<svg id="Group_374" data-name="Group 374" xmlns="http://www.w3.org/2000/svg" width="146.361" height="152.466" viewBox="0 0 146.361 152.466">
  <path id="Path_364" data-name="Path 364" d="M758.028,609.276l-6.709,6.176,5.332-8.946a69.089,69.089,0,0,0-11.07-14.2s-14.252,13.655-14.252,24.389,6.381,14.482,14.252,14.482,14.252-3.748,14.252-14.482A18.832,18.832,0,0,0,758.028,609.276Z" transform="translate(-623.8 -478.851)" fill="#ddecf2"/>
  <path id="Path_365" data-name="Path 365" d="M789.53,614.11v.529c-.031,6.15-1.069,10.948-3.1,14.327-.029.05-.06.1-.089.147l-.228-.139-.217-.136c2.258-3.649,3.057-8.806,3.085-14.17,0-.173.005-.348,0-.524-.008-2.271-.147-4.568-.369-6.8-.016-.173-.034-.348-.052-.524-.309-2.944-.754-5.757-1.21-8.2-.031-.173-.065-.346-.1-.516-.788-4.133-1.592-7.127-1.776-7.79-.021-.081-.034-.126-.037-.136l.249-.071,0,0,.251-.071c0,.01.047.16.121.437.28,1.037,1.008,3.853,1.723,7.567.031.168.066.341.1.513.372,1.983.736,4.2,1.024,6.524q.11.876.2,1.729c.021.175.039.351.055.524Q789.517,610.947,789.53,614.11Z" transform="translate(-663.735 -477.174)" fill="#fff"/>
  <path id="Path_366" data-name="Path 366" d="M770.667,617.125c-.175.023-.354.047-.534.065a14.425,14.425,0,0,1-1.477.076,14.053,14.053,0,0,1-6.077-1.372l-.333.419a14.577,14.577,0,0,0,6.409,1.477,14.984,14.984,0,0,0,1.577-.084c.178-.018.356-.042.532-.068a14.455,14.455,0,0,0,4.178-1.265l-.33-.424a14.009,14.009,0,0,1-3.945,1.176Z" transform="translate(-646.619 -496.24)" fill="#fff"/>
  <path id="Path_367" data-name="Path 367" d="M763.865,637.043q-.271.016-.542.016c-.055,0-.113,0-.168,0a14.13,14.13,0,0,1-11.6-6.058c-.1.155-.209.309-.312.466a14.655,14.655,0,0,0,11.91,6.116c.073,0,.147,0,.22,0,.183,0,.364-.008.545-.016a14.577,14.577,0,0,0,7.766-2.724c-.084-.155-.168-.309-.254-.464A14.033,14.033,0,0,1,763.865,637.043Z" transform="translate(-638.5 -507.413)" fill="#fff"/>
  <path id="Path_368" data-name="Path 368" d="M758.6,653.361c-.183.016-.367.026-.55.034s-.393.013-.589.013a14.168,14.168,0,0,1-13.583-10.194c-.118.212-.236.422-.348.634a14.688,14.688,0,0,0,13.932,10.084c.2,0,.393,0,.587-.013s.369-.016.553-.029a14.644,14.644,0,0,0,9.665-4.717c-.055-.194-.118-.385-.181-.579A14.123,14.123,0,0,1,758.6,653.361Z" transform="translate(-632.802 -516.425)" fill="#fff"/>
  <path id="Rectangle_1_-_Outline" data-name="Rectangle 1 - Outline" d="M518.582,258.376l-72.968-9.3a4.723,4.723,0,0,0-.593-.038,4.522,4.522,0,0,0-.584.037,4.465,4.465,0,0,0-.574.112,4.572,4.572,0,0,0-.561.189,4.787,4.787,0,0,0-.522.252,4.971,4.971,0,0,0-.495.315,5.289,5.289,0,0,0-.465.38,5.78,5.78,0,0,0-.435.441,6.228,6.228,0,0,0-.4.5q-.187.263-.351.546t-.3.592q-.14.307-.256.636t-.21.694q-.09.354-.151.721t-.091.745q-.031.378-.031.766t.031.772q.03.385.091.763t.151.752q.09.372.21.736t.256.687q.14.336.3.653t.351.617q.187.3.4.578t.434.53q.225.251.465.473t.495.415a6.2,6.2,0,0,0,.522.356,5.721,5.721,0,0,0,.561.3,5.256,5.256,0,0,0,.573.227,4.975,4.975,0,0,0,.584.154,4.845,4.845,0,0,0,.593.08l72.968,5.338a1.849,1.849,0,0,0,.63-.063,1.978,1.978,0,0,0,.3-.112,2.248,2.248,0,0,0,.3-.165,2.627,2.627,0,0,0,.273-.208,3.055,3.055,0,0,0,.257-.252,3.624,3.624,0,0,0,.241-.3q.116-.158.224-.337t.2-.374q.1-.194.179-.4t.155-.433q.071-.224.129-.461t.106-.5q.044-.254.076-.516t.046-.53q.015-.269.015-.543t-.015-.546q-.014-.272-.046-.539t-.076-.531q-.046-.263-.106-.521t-.129-.487q-.07-.235-.155-.462t-.179-.441q-.1-.213-.2-.414t-.223-.382q-.116-.181-.241-.344t-.257-.3a3.5,3.5,0,0,0-.273-.263,2.961,2.961,0,0,0-.3-.225,2.475,2.475,0,0,0-.3-.173,2.159,2.159,0,0,0-.312-.121,1.989,1.989,0,0,0-.319-.068" transform="translate(-408.428 -225.405)" fill="#fc2361"/>
  <path id="Rectangle_3_-_Outline" data-name="Rectangle 3 - Outline" d="M518.582,359.876l-72.968-1.748a4.691,4.691,0,0,0-1.177.12,4.807,4.807,0,0,0-.573.172,5.078,5.078,0,0,0-.561.246,5.415,5.415,0,0,0-.522.305,5.741,5.741,0,0,0-.495.367,6.194,6.194,0,0,0-.465.428q-.225.23-.434.488t-.4.54q-.187.281-.351.583t-.3.624q-.14.322-.256.662t-.21.716q-.09.364-.151.737t-.091.754q-.031.382-.031.769t.031.769q.03.381.091.754t.151.734q.09.363.21.714t.256.662q.14.321.3.622t.351.58q.187.279.4.536t.435.485a6.113,6.113,0,0,0,.465.425,5.7,5.7,0,0,0,.495.364,5.393,5.393,0,0,0,.522.3,5.052,5.052,0,0,0,.561.242,4.782,4.782,0,0,0,.574.168,4.63,4.63,0,0,0,1.177.114l72.967-2.22a1.9,1.9,0,0,0,.319-.037,1.979,1.979,0,0,0,.312-.09,2.22,2.22,0,0,0,.3-.144,2.6,2.6,0,0,0,.3-.2,3.066,3.066,0,0,0,.273-.236,3.555,3.555,0,0,0,.257-.279q.124-.149.241-.32t.224-.36q.107-.19.2-.395t.179-.423q.084-.222.155-.451t.129-.473q.062-.249.106-.508t.076-.524q.03-.266.046-.536t.015-.545q0-.272-.015-.544t-.046-.536q-.031-.265-.076-.523t-.106-.51q-.059-.243-.13-.474t-.154-.448q-.083-.218-.178-.422t-.2-.393q-.107-.19-.224-.359t-.241-.319a3.533,3.533,0,0,0-.257-.277,3.03,3.03,0,0,0-.273-.235,2.544,2.544,0,0,0-.3-.194,2.187,2.187,0,0,0-.3-.141,1.977,1.977,0,0,0-.312-.089,1.9,1.9,0,0,0-.319-.035" transform="translate(-408.428 -305.945)" fill="#ddecf2"/>
  <path id="Rectangle_4_-_Outline" data-name="Rectangle 4 - Outline" d="M518.582,439.89l-72.968,5.337a4.836,4.836,0,0,0-.593.08,4.959,4.959,0,0,0-.584.154,5.282,5.282,0,0,0-.574.227,5.716,5.716,0,0,0-.561.3,6.191,6.191,0,0,0-.522.356q-.255.195-.495.415t-.465.473q-.225.251-.435.53t-.4.579q-.187.3-.351.617t-.3.653q-.14.335-.256.687t-.21.736q-.09.373-.151.751t-.091.763q-.031.384-.031.772t.031.766q.03.378.091.745t.151.721q.09.354.21.694t.256.636q.14.307.3.592t.351.546a6.235,6.235,0,0,0,.4.5,5.785,5.785,0,0,0,.434.441,5.29,5.29,0,0,0,.465.38,4.948,4.948,0,0,0,.495.315,4.779,4.779,0,0,0,.522.252,4.588,4.588,0,0,0,.561.189,4.481,4.481,0,0,0,.573.112,4.532,4.532,0,0,0,.584.037,4.736,4.736,0,0,0,.593-.038l72.968-9.3a1.986,1.986,0,0,0,.319-.068,2.153,2.153,0,0,0,.312-.121,2.463,2.463,0,0,0,.3-.173,2.956,2.956,0,0,0,.3-.225,3.526,3.526,0,0,0,.273-.263q.131-.142.257-.3t.241-.344q.116-.182.223-.382t.2-.414q.1-.215.179-.441t.155-.465q.071-.238.129-.487t.106-.521q.044-.263.076-.531t.046-.539q.015-.272.015-.546t-.016-.542q-.014-.269-.046-.53t-.076-.517q-.046-.254-.106-.5t-.129-.461q-.07-.223-.154-.433t-.179-.4q-.1-.193-.2-.373t-.224-.337a3.629,3.629,0,0,0-.241-.3,3.049,3.049,0,0,0-.257-.252,2.6,2.6,0,0,0-.273-.208,2.245,2.245,0,0,0-.3-.166,1.962,1.962,0,0,0-.3-.112,1.846,1.846,0,0,0-.63-.063" transform="translate(-408.428 -366.307)" fill="#ddecf2"/>
  <path id="Path_5" data-name="Path 5" d="M587.828,341.758a3.659,3.659,0,0,0,6.623-3l14.142-29.054-6.769-4.1L589.61,336.465q-.07.027-.138.057l-.135.062c-.045.022-.09.044-.134.068s-.088.049-.132.075a3.664,3.664,0,0,0-1.244,5.029Z" transform="translate(-517.452 -267.174)" fill="#9e616a"/>
  <path id="Path_8" data-name="Path 8" d="M629.976,290.64l-10.047-2.575s.328-.741.861-1.97,1.278-2.941,2.116-4.886,1.768-4.118,2.676-6.266,1.791-4.27,2.535-6.11a7.913,7.913,0,0,1,2.438-3.559,3.352,3.352,0,0,1,2.463-.655,4.76,4.76,0,0,1,1.906.726,5.187,5.187,0,0,1,.765.581l2.329,4.236Z" transform="translate(-541.54 -236.891)" fill="#ccc"/>
  <path id="Ellipse_3_-_Outline" data-name="Ellipse 3 - Outline" d="M330.536,355.213a6.52,6.52,0,0,0-.725.095,6.634,6.634,0,0,0-.715.175,6.894,6.894,0,0,0-.7.257,7.315,7.315,0,0,0-.686.337q-.327.184-.639.4t-.606.464q-.294.248-.57.528t-.533.591q-.256.311-.486.644t-.431.687q-.2.354-.373.727t-.315.764q-.148.405-.259.819t-.185.834q-.074.421-.112.847t-.037.856q0,.43.037.848t.112.824q.074.406.185.8t.258.766q.143.362.315.7a7.487,7.487,0,0,0,.373.652,7.163,7.163,0,0,0,.431.6,6.942,6.942,0,0,0,.486.548,6.66,6.66,0,0,0,.533.484,6.31,6.31,0,0,0,.571.414,6.073,6.073,0,0,0,1.245.613,5.959,5.959,0,0,0,1.387.315,6.1,6.1,0,0,0,.715.032,6.41,6.41,0,0,0,.725-.051,6.663,6.663,0,0,0,.721-.133,6.782,6.782,0,0,0,.7-.212,7.061,7.061,0,0,0,.686-.289,7.5,7.5,0,0,0,.665-.365q.314-.2.612-.421t.577-.479q.279-.254.539-.536t.5-.591q.242-.309.455-.637t.4-.673q.186-.345.344-.707t.289-.738q.135-.39.236-.786t.169-.8q.067-.4.1-.809t.034-.816q0-.41-.034-.81t-.1-.788q-.067-.388-.169-.764t-.236-.739q-.131-.351-.289-.68t-.346-.638a7.15,7.15,0,0,0-.852-1.139,6.756,6.756,0,0,0-.5-.492,6.4,6.4,0,0,0-.539-.428,6.162,6.162,0,0,0-.577-.363,6.087,6.087,0,0,0-.614-.3,5.95,5.95,0,0,0-1.35-.383,6.041,6.041,0,0,0-.7-.07,6.315,6.315,0,0,0-.721.012" transform="translate(-322.442 -303.782)" fill="#ddecf2"/>
  <path id="Ellipse_3_-_Outline-2" data-name="Ellipse 3 - Outline" d="M330.536,468.366a6.534,6.534,0,0,0-.725.095,6.649,6.649,0,0,0-.715.175,6.9,6.9,0,0,0-.7.257,7.323,7.323,0,0,0-.686.337q-.327.184-.639.4t-.606.464q-.294.247-.57.528t-.533.591q-.256.311-.486.644t-.431.687q-.2.354-.373.727t-.315.764q-.148.405-.259.819t-.185.834q-.074.421-.112.847t-.037.856q0,.43.037.848t.112.824q.074.406.185.8t.258.766q.143.362.315.7a7.486,7.486,0,0,0,.373.652,7.153,7.153,0,0,0,.431.6,6.937,6.937,0,0,0,.486.548,6.654,6.654,0,0,0,.533.484,6.311,6.311,0,0,0,.571.414,6.073,6.073,0,0,0,1.245.613,5.954,5.954,0,0,0,1.387.315,6.09,6.09,0,0,0,.715.031,6.417,6.417,0,0,0,.725-.051,6.634,6.634,0,0,0,.721-.133,6.756,6.756,0,0,0,.7-.212,7.04,7.04,0,0,0,.686-.289,7.512,7.512,0,0,0,.665-.365q.314-.2.612-.421t.577-.479q.279-.254.539-.536t.5-.591q.242-.309.455-.637t.4-.673q.186-.345.344-.706t.289-.738q.135-.39.236-.786t.169-.8q.067-.4.1-.809t.034-.816q0-.41-.034-.81t-.1-.788q-.067-.388-.169-.764t-.236-.739q-.131-.351-.289-.68t-.346-.638a7.151,7.151,0,0,0-.852-1.139,6.75,6.75,0,0,0-.5-.492,6.4,6.4,0,0,0-.539-.428,6.175,6.175,0,0,0-.577-.363,6.094,6.094,0,0,0-.614-.3,5.953,5.953,0,0,0-1.35-.383,6.041,6.041,0,0,0-.7-.07,6.322,6.322,0,0,0-.721.012" transform="translate(-322.442 -387.32)" fill="#ddecf2"/>
  <path id="Ellipse_2_-_Outline" data-name="Ellipse 2 - Outline" d="M328.508,230.452a6.373,6.373,0,0,0-.725.024,6.283,6.283,0,0,0-.715.106,6.358,6.358,0,0,0-.7.189,6.575,6.575,0,0,0-.686.271,6.82,6.82,0,0,0-.639.336,7.025,7.025,0,0,0-.606.405,7.342,7.342,0,0,0-.571.473q-.278.255-.534.541t-.486.6q-.23.311-.431.645t-.374.693q-.173.355-.315.733t-.258.793q-.111.4-.185.816t-.112.836q-.037.422-.037.851t.037.851q.037.422.112.835t.185.815q.111.4.258.791t.315.731q.173.354.375.687t.431.642q.229.31.486.594t.533.536a7.265,7.265,0,0,0,.568.471,6.962,6.962,0,0,0,.606.4,6.773,6.773,0,0,0,.639.332,6.524,6.524,0,0,0,.686.266,6.283,6.283,0,0,0,1.417.284,6.414,6.414,0,0,0,1.446-.044,6.33,6.33,0,0,0,.7-.143,6.411,6.411,0,0,0,.686-.223,6.647,6.647,0,0,0,.665-.3,6.943,6.943,0,0,0,.614-.36,7.129,7.129,0,0,0,.577-.423q.279-.227.539-.484t.5-.543q.242-.286.455-.593t.4-.634q.187-.327.344-.673t.289-.708q.135-.377.236-.763t.169-.782q.067-.4.1-.8t.034-.813q0-.41-.034-.813t-.1-.8q-.068-.4-.169-.781t-.236-.762q-.131-.363-.289-.708t-.346-.672q-.186-.324-.4-.631t-.453-.59q-.238-.283-.5-.539t-.539-.48a7.074,7.074,0,0,0-.577-.42,6.9,6.9,0,0,0-.614-.356,6.63,6.63,0,0,0-.665-.3,6.386,6.386,0,0,0-.686-.218,6.308,6.308,0,0,0-.7-.139,6.378,6.378,0,0,0-.721-.058m0-.789a7.006,7.006,0,0,1,3.038.786,7.973,7.973,0,0,1,2.437,1.968,9.283,9.283,0,0,1,1.621,2.845,10.378,10.378,0,0,1,0,6.9,9.356,9.356,0,0,1-1.62,2.856A8.048,8.048,0,0,1,331.544,247a7.038,7.038,0,0,1-3.038.806,6.946,6.946,0,0,1-3.1-.618,7.837,7.837,0,0,1-2.579-1.9,9.181,9.181,0,0,1-1.763-2.911,10.368,10.368,0,0,1,0-7.235,9.259,9.259,0,0,1,1.763-2.923,7.91,7.91,0,0,1,2.579-1.918,6.972,6.972,0,0,1,3.1-.638Z" transform="translate(-320.413 -211.088)" fill="#fc2361"/>
  <path id="Path_1" data-name="Path 1" d="M344.319,240.691l-2.484-5.174.59-.384,2.046,4.25,8.589-10.1.52.554Z" transform="translate(-336.224 -210.813)" fill="#fc2361"/>
  <g id="Group_1" data-name="Group 1" transform="translate(86.054 131.898)">
    <path id="Path_1-2" data-name="Path 1-2" d="M679.078,662.743l-6.148-.024,1.982,16.065,4.166.021Z" transform="translate(-666.716 -662.719)" fill="#9e616a"/>
    <path id="Path_2" data-name="Path 2" d="M662.629,724.246l-13.424-.071v-.17a5.266,5.266,0,0,1,.1-1.026,5.134,5.134,0,0,1,.774-1.865,5.273,5.273,0,0,1,1.452-1.445,5.139,5.139,0,0,1,1.869-.766,5.265,5.265,0,0,1,1.027-.095h0l8.2.04Z" transform="translate(-649.205 -704.118)" fill="#2f2e41"/>
  </g>
  <g id="Group_2" data-name="Group 2" transform="translate(66.415 131.821)">
    <path id="Path_3" data-name="Path 3" d="M603.97,662.451l-6.13-.024,1.976,16.043,4.154.021Z" transform="translate(-591.64 -662.427)" fill="#9e616a"/>
    <path id="Path_4" data-name="Path 4" d="M587.56,723.869l-13.389-.07v-.17a5.263,5.263,0,0,1,.1-1.025,5.132,5.132,0,0,1,.772-1.862,5.259,5.259,0,0,1,1.448-1.443,5.115,5.115,0,0,1,1.864-.764,5.245,5.245,0,0,1,1.024-.095h0l8.18.04Z" transform="translate(-574.171 -703.769)" fill="#2f2e41"/>
  </g>
  <path id="Path_6" data-name="Path 6" d="M591.2,411.829,580.891,450.3l3.773,36.878,8.355.23-1.819-33.3,10.423-16.618,2.261,50.143,7.579-.536,4.216-43.113A48.957,48.957,0,0,0,618.81,433.5a46.672,46.672,0,0,0,.741-8.565,40.061,40.061,0,0,0-.445-5.775,21.13,21.13,0,0,0-.417-2.118l-3.074-3.116Z" transform="translate(-512.729 -345.645)" fill="#2f2e41"/>
  <path id="Path_369" data-name="Path 369" d="M628.922,302.132c-1.734,0-3.36-.056-4.835-.166a36.311,36.311,0,0,1-4.488-.591,15.983,15.983,0,0,1-3.66-1.152,5.873,5.873,0,0,1-2.374-1.874l-.07-.1,2.818-18.338,3.039-20.619a5.619,5.619,0,0,1,5.734-4.8l9.516.292a5.334,5.334,0,0,1,5.16,5.655l-1.249,20.506,4.608,20.227-.326.046c-.131.017-.637.084-1.429.173-1.035.116-2.093.221-3.143.312-1.485.128-2.938.229-4.319.3C632.151,302.087,630.472,302.13,628.922,302.132Z" transform="translate(-536.795 -229.435)" fill="#ccc"/>
  <path id="Path_9" data-name="Path 9" d="M647.933,180.184h-.008a1.52,1.52,0,0,1-1.519-1.521v-8.484a11.338,11.338,0,0,1,.894-4.425,11.521,11.521,0,0,1,6.054-6.085,11.345,11.345,0,0,1,15.817,10.409v8.5a1.524,1.524,0,0,1-.121.6,1.547,1.547,0,0,1-.815.817,1.527,1.527,0,0,1-.6.123l-19.708.075Z" transform="translate(-561.09 -158.75)" fill="#2f2e41"/>
  <path id="Ellipse_1" data-name="Ellipse 1" d="M665.337,179.129a8.363,8.363,0,0,1-9.671,12.047,8.266,8.266,0,0,1-4.972-3.983,8.363,8.363,0,0,1,9.664-12.044,8.266,8.266,0,0,1,4.979,3.98Z" transform="translate(-563.496 -170.61)" fill="#9e616a"/>
  <path id="Path_10" data-name="Path 10" d="M636.133,179.532a8.968,8.968,0,0,1,.708-3.5,9.108,9.108,0,0,1,4.787-4.811,8.974,8.974,0,0,1,3.5-.725l1.7-.008h.057a8.954,8.954,0,0,1,8.949,8.96v.17l-3.592.015-1.225-3.422-.245,3.429-1.855.008-.618-1.726-.124,1.729-12.037.054Z" transform="translate(-553.504 -167.413)" fill="#2f2e41"/>
  <path id="Path_11" data-name="Path 11" d="M572.481,272.851a3.939,3.939,0,0,0-1.515.743,3.837,3.837,0,0,0-.88.987,4,4,0,0,0-.579,2.5,3.833,3.833,0,0,0,.354,1.272,3.9,3.9,0,0,0,5.6,1.642l.1-.068.1-.07.1-.073.094-.075,19.823,7.055a2.987,2.987,0,0,0,3.426-1.07l4.7-6.507-5.682-3.826-2.982,3.387L577,275.138q-.03-.071-.061-.14t-.066-.139q-.035-.069-.072-.137t-.079-.135A3.9,3.9,0,0,0,572.481,272.851Z" transform="translate(-504.308 -242.905)" fill="#9e616a"/>
  <path id="Path_12" data-name="Path 12" d="M666.2,263.487c.593-.74,1.422-1.7,2.264-2.654s1.7-1.9,2.342-2.6,1.079-1.175,1.079-1.175a4.671,4.671,0,0,1,8.486,3.446,4.6,4.6,0,0,1-.7,1.707s-.647.846-1.623,2.109-2.282,2.945-3.6,4.616-2.648,3.335-3.673,4.562-1.748,2.021-1.849,1.953l-3.578-10.635C665.253,264.745,665.611,264.227,666.2,263.487Z" transform="translate(-575.062 -229.78)" fill="#ccc"/>
  <path id="Path_13" data-name="Path 13" d="M676.666,199.055a1.5,1.5,0,0,0,.063.821,1.53,1.53,0,0,0,.2.377,1.548,1.548,0,0,0,.248.267,1.518,1.518,0,0,0,.986.358l.067,0,.068,0,.068-.008.068-.011,1.275-.232,1.756-3.752v3.437l5.8-1.044V184.679l-9.718.047.24.279a6.685,6.685,0,0,1,1.513,3.289,10.894,10.894,0,0,1-.07,3.706,19.649,19.649,0,0,1-1.035,3.619,28.979,28.979,0,0,1-1.382,3.034,1.522,1.522,0,0,0-.145.4Z" transform="translate(-583.401 -177.888)" fill="#2f2e41"/>
  <path id="Path_370" data-name="Path 370" d="M418.867,739.473H538.991a.315.315,0,1,0,0-.631H418.867a.315.315,0,0,0,0,.631Z" transform="translate(-392.945 -587.007)" fill="#ddecf2"/>
</svg>
