<svg xmlns="http://www.w3.org/2000/svg" width="1281" height="306" viewBox="0 0 1281 306">
  <g id="Group_2768" data-name="Group 2768" transform="translate(-6866.366 1041)">
    <g id="Group_121" data-name="Group 121" transform="translate(6958.211 -1040.749)">
      <path id="Subtraction_2" data-name="Subtraction 2" d="M69.95,288.466H0V7.322C0,3.289,2.7,0,6.006,0H63.944c3.308,0,6,3.289,6.006,7.321V288.465Z" transform="translate(34.622 16.957)" fill="#a7e6fe"/>
      <path id="Path_274" data-name="Path 274" d="M353.883,262.5H342.578a3.183,3.183,0,0,1-3.18-3.18V233.18a3.183,3.183,0,0,1,3.18-3.18h11.305a3.183,3.183,0,0,1,3.18,3.18v26.143a3.183,3.183,0,0,1-3.18,3.18Z" transform="translate(-284.286 -225.054)" fill="#a7e6fe"/>
      <g id="Group_122" data-name="Group 122" transform="translate(0 0)">
        <path id="Subtraction_1" data-name="Subtraction 1" d="M69.95,288.466H0V7.272C0,3.267,2.7,0,6.006,0H63.944c3.308,0,6,3.267,6.006,7.272V288.465Z" transform="translate(0 16.957)" fill="#c9f0ff"/>
        <path id="Path_142" data-name="Path 142" d="M338.883,262.5H327.578a3.183,3.183,0,0,1-3.18-3.18V233.18a3.183,3.183,0,0,1,3.18-3.18h11.305a3.183,3.183,0,0,1,3.18,3.18v26.143a3.183,3.183,0,0,1-3.18,3.18Z" transform="translate(-294.016 -230)" fill="#c9f0ff"/>
        <g id="Group_135" data-name="Group 135" opacity="0.7">
          <path id="Path_143" data-name="Path 143" d="M317.589,338.023H304.164a1.768,1.768,0,0,1-1.766-1.766v-20.49A1.768,1.768,0,0,1,304.164,314h13.425a1.768,1.768,0,0,1,1.766,1.766v20.49A1.768,1.768,0,0,1,317.589,338.023Z" transform="translate(-288.973 -268.073)" fill="#fff"/>
          <path id="Path_144" data-name="Path 144" d="M354.589,338.023H341.164a1.768,1.768,0,0,1-1.767-1.766v-20.49A1.768,1.768,0,0,1,341.164,314h13.425a1.768,1.768,0,0,1,1.766,1.766v20.49A1.768,1.768,0,0,1,354.589,338.023Z" transform="translate(-299.831 -268.073)" fill="#fff"/>
          <path id="Path_145" data-name="Path 145" d="M317.589,391.023H304.164a1.768,1.768,0,0,1-1.766-1.766v-20.49A1.768,1.768,0,0,1,304.164,367h13.425a1.768,1.768,0,0,1,1.766,1.766v20.49A1.768,1.768,0,0,1,317.589,391.023Z" transform="translate(-288.973 -283.625)" fill="#fff"/>
          <path id="Path_146" data-name="Path 146" d="M354.589,391.023H341.164a1.768,1.768,0,0,1-1.767-1.766v-20.49A1.768,1.768,0,0,1,341.164,367h13.425a1.768,1.768,0,0,1,1.766,1.766v20.49A1.768,1.768,0,0,1,354.589,391.023Z" transform="translate(-299.831 -283.625)" fill="#fff"/>
          <path id="Path_147" data-name="Path 147" d="M317.589,444.023H304.164a1.769,1.769,0,0,1-1.766-1.766v-20.49A1.768,1.768,0,0,1,304.164,420h13.425a1.768,1.768,0,0,1,1.766,1.766v20.49a1.768,1.768,0,0,1-1.766,1.766Z" transform="translate(-288.973 -299.177)" fill="#fff"/>
          <path id="Path_148" data-name="Path 148" d="M354.589,444.023H341.164a1.769,1.769,0,0,1-1.767-1.766v-20.49A1.768,1.768,0,0,1,341.164,420h13.425a1.768,1.768,0,0,1,1.766,1.766v20.49a1.768,1.768,0,0,1-1.766,1.766Z" transform="translate(-299.831 -299.177)" fill="#fff"/>
          <path id="Path_149" data-name="Path 149" d="M317.589,497.023H304.164a1.769,1.769,0,0,1-1.766-1.766v-20.49A1.768,1.768,0,0,1,304.164,473h13.425a1.768,1.768,0,0,1,1.766,1.766v20.49A1.768,1.768,0,0,1,317.589,497.023Z" transform="translate(-288.973 -314.729)" fill="#fff"/>
          <path id="Path_150" data-name="Path 150" d="M354.589,497.023H341.164a1.768,1.768,0,0,1-1.767-1.766v-20.49A1.768,1.768,0,0,1,341.164,473h13.425a1.768,1.768,0,0,1,1.766,1.766v20.49A1.769,1.769,0,0,1,354.589,497.023Z" transform="translate(-299.831 -314.729)" fill="#fff"/>
          <path id="Path_151" data-name="Path 151" d="M317.589,550.023H304.164a1.768,1.768,0,0,1-1.766-1.766v-20.49A1.768,1.768,0,0,1,304.164,526h13.425a1.768,1.768,0,0,1,1.766,1.766v20.49A1.768,1.768,0,0,1,317.589,550.023Z" transform="translate(-288.973 -330.281)" fill="#fff"/>
          <path id="Path_152" data-name="Path 152" d="M354.589,550.023H341.164a1.768,1.768,0,0,1-1.767-1.766v-20.49A1.768,1.768,0,0,1,341.164,526h13.425a1.768,1.768,0,0,1,1.766,1.766v20.49A1.768,1.768,0,0,1,354.589,550.023Z" transform="translate(-299.831 -330.281)" fill="#fff"/>
          <path id="Path_276" data-name="Path 276" d="M317.589,497.023H304.164a1.769,1.769,0,0,1-1.766-1.766v-20.49A1.768,1.768,0,0,1,304.164,473h13.425a1.768,1.768,0,0,1,1.766,1.766v20.49A1.768,1.768,0,0,1,317.589,497.023Z" transform="translate(-288.973 -242.729)" fill="#fff"/>
          <path id="Path_277" data-name="Path 277" d="M354.589,497.023H341.164a1.768,1.768,0,0,1-1.767-1.766v-20.49A1.768,1.768,0,0,1,341.164,473h13.425a1.768,1.768,0,0,1,1.766,1.766v20.49A1.769,1.769,0,0,1,354.589,497.023Z" transform="translate(-299.831 -242.729)" fill="#fff"/>
          <path id="Path_278" data-name="Path 278" d="M317.589,550.023H304.164a1.768,1.768,0,0,1-1.766-1.766v-20.49A1.768,1.768,0,0,1,304.164,526h13.425a1.768,1.768,0,0,1,1.766,1.766v20.49A1.768,1.768,0,0,1,317.589,550.023Z" transform="translate(-288.973 -258.281)" fill="#fff"/>
          <path id="Path_279" data-name="Path 279" d="M354.589,550.023H341.164a1.768,1.768,0,0,1-1.767-1.766v-20.49A1.768,1.768,0,0,1,341.164,526h13.425a1.768,1.768,0,0,1,1.766,1.766v20.49A1.768,1.768,0,0,1,354.589,550.023Z" transform="translate(-299.831 -258.281)" fill="#fff"/>
        </g>
      </g>
    </g>
    <g id="Group_129" data-name="Group 129" transform="translate(7181.66 -924.914)" opacity="0.6">
      <path id="Subtraction_2-2" data-name="Subtraction 2" d="M52.01,177.306H0V4.465A4.471,4.471,0,0,1,4.465,0H47.544A4.471,4.471,0,0,1,52.01,4.465v172.84Z" transform="translate(25.742 12.608)" fill="#a7e6fe"/>
      <path id="Path_274-2" data-name="Path 274" d="M350.168,254.166h-8.406A2.367,2.367,0,0,1,339.4,251.8V232.364A2.367,2.367,0,0,1,341.762,230h8.406a2.367,2.367,0,0,1,2.364,2.364V251.8a2.367,2.367,0,0,1-2.364,2.364Z" transform="translate(-298.421 -226.323)" fill="#a7e6fe"/>
      <g id="Group_122-2" data-name="Group 122" transform="translate(0 0)">
        <path id="Subtraction_1-2" data-name="Subtraction 1" d="M52.01,177.306H0V4.465A4.471,4.471,0,0,1,4.466,0H47.544A4.471,4.471,0,0,1,52.01,4.465v172.84Z" transform="translate(0 12.608)" fill="#c9f0ff"/>
        <path id="Path_142-2" data-name="Path 142" d="M335.168,254.166h-8.406A2.367,2.367,0,0,1,324.4,251.8V232.364A2.367,2.367,0,0,1,326.762,230h8.406a2.367,2.367,0,0,1,2.364,2.364V251.8a2.367,2.367,0,0,1-2.364,2.364Z" transform="translate(-301.808 -230)" fill="#c9f0ff"/>
        <g id="Group_134" data-name="Group 134" opacity="0.6">
          <path id="Path_143-2" data-name="Path 143" d="M313.693,331.862h-9.982a1.315,1.315,0,0,1-1.313-1.313V315.313A1.315,1.315,0,0,1,303.711,314h9.982a1.315,1.315,0,0,1,1.313,1.313v15.235A1.315,1.315,0,0,1,313.693,331.862Z" transform="translate(-292.417 -279.852)" fill="#fff"/>
          <path id="Path_144-2" data-name="Path 144" d="M350.693,331.862h-9.982a1.315,1.315,0,0,1-1.313-1.313V315.313A1.315,1.315,0,0,1,340.711,314h9.982a1.315,1.315,0,0,1,1.313,1.313v15.235A1.315,1.315,0,0,1,350.693,331.862Z" transform="translate(-309.979 -279.852)" fill="#fff"/>
          <path id="Path_145-2" data-name="Path 145" d="M313.693,384.862h-9.982a1.315,1.315,0,0,1-1.313-1.313V368.313A1.315,1.315,0,0,1,303.711,367h9.982a1.315,1.315,0,0,1,1.313,1.313v15.235A1.315,1.315,0,0,1,313.693,384.862Z" transform="translate(-292.417 -305.009)" fill="#fff"/>
          <path id="Path_146-2" data-name="Path 146" d="M350.693,384.862h-9.982a1.315,1.315,0,0,1-1.313-1.313V368.313A1.315,1.315,0,0,1,340.711,367h9.982a1.315,1.315,0,0,1,1.313,1.313v15.235A1.315,1.315,0,0,1,350.693,384.862Z" transform="translate(-309.979 -305.009)" fill="#fff"/>
          <path id="Path_147-2" data-name="Path 147" d="M313.693,437.862h-9.982a1.315,1.315,0,0,1-1.313-1.313V421.313A1.315,1.315,0,0,1,303.711,420h9.982a1.315,1.315,0,0,1,1.313,1.313v15.235a1.315,1.315,0,0,1-1.313,1.313Z" transform="translate(-292.417 -330.165)" fill="#fff"/>
          <path id="Path_148-2" data-name="Path 148" d="M350.693,437.862h-9.982a1.315,1.315,0,0,1-1.313-1.313V421.313A1.315,1.315,0,0,1,340.711,420h9.982a1.315,1.315,0,0,1,1.313,1.313v15.235a1.315,1.315,0,0,1-1.313,1.313Z" transform="translate(-309.979 -330.165)" fill="#fff"/>
          <path id="Path_149-2" data-name="Path 149" d="M313.693,490.862h-9.982a1.315,1.315,0,0,1-1.313-1.313V474.313A1.315,1.315,0,0,1,303.711,473h9.982a1.315,1.315,0,0,1,1.313,1.313v15.235A1.315,1.315,0,0,1,313.693,490.862Z" transform="translate(-292.417 -355.322)" fill="#fff"/>
          <path id="Path_150-2" data-name="Path 150" d="M350.693,490.862h-9.982a1.315,1.315,0,0,1-1.313-1.313V474.313A1.315,1.315,0,0,1,340.711,473h9.982a1.315,1.315,0,0,1,1.313,1.313v15.235A1.315,1.315,0,0,1,350.693,490.862Z" transform="translate(-309.979 -355.322)" fill="#fff"/>
          <path id="Path_151-2" data-name="Path 151" d="M313.693,543.862h-9.982a1.315,1.315,0,0,1-1.313-1.313V527.313A1.315,1.315,0,0,1,303.711,526h9.982a1.315,1.315,0,0,1,1.313,1.313v15.235A1.315,1.315,0,0,1,313.693,543.862Z" transform="translate(-292.417 -380.478)" fill="#fff"/>
          <path id="Path_152-2" data-name="Path 152" d="M350.693,543.862h-9.982a1.315,1.315,0,0,1-1.313-1.313V527.313A1.315,1.315,0,0,1,340.711,526h9.982a1.315,1.315,0,0,1,1.313,1.313v15.235A1.315,1.315,0,0,1,350.693,543.862Z" transform="translate(-309.979 -380.478)" fill="#fff"/>
        </g>
      </g>
    </g>
    <g id="Group_137" data-name="Group 137" transform="translate(7273.376 -1006.142)">
      <path id="Subtraction_2-3" data-name="Subtraction 2" d="M51.944,257.306H.065A9.253,9.253,0,0,1,0,256.215V6.415C0,2.881,2.006,0,4.465,0H47.544C50,0,52.007,2.881,52.009,6.415v249.8a9.256,9.256,0,0,1-.065,1.09h0Z" transform="translate(25.742 12.608)" fill="#a7e6fe"/>
      <path id="Path_274-3" data-name="Path 274" d="M350.168,254.166h-8.406A2.367,2.367,0,0,1,339.4,251.8V232.364A2.367,2.367,0,0,1,341.762,230h8.406a2.367,2.367,0,0,1,2.364,2.364V251.8a2.367,2.367,0,0,1-2.364,2.364Z" transform="translate(-298.421 -226.323)" fill="#a7e6fe"/>
      <g id="Group_122-3" data-name="Group 122" transform="translate(0 0)">
        <path id="Subtraction_1-3" data-name="Subtraction 1" d="M51.439,257.306h-52c0-.083,0-.167,0-.25V6.436C-.564,2.891,1.439,0,3.9,0H46.977c2.459,0,4.462,2.891,4.465,6.436V257.055c0,.083,0,.167,0,.249Z" transform="translate(0 12.608)" fill="#c9f0ff"/>
        <path id="Path_142-3" data-name="Path 142" d="M335.168,254.166h-8.406A2.367,2.367,0,0,1,324.4,251.8V232.364A2.367,2.367,0,0,1,326.762,230h8.406a2.367,2.367,0,0,1,2.364,2.364V251.8a2.367,2.367,0,0,1-2.364,2.364Z" transform="translate(-301.808 -230)" fill="#c9f0ff"/>
        <g id="Group_134-2" data-name="Group 134" opacity="0.6">
          <path id="Path_143-3" data-name="Path 143" d="M313.693,331.862h-9.982a1.315,1.315,0,0,1-1.313-1.313V315.313A1.315,1.315,0,0,1,303.711,314h9.982a1.315,1.315,0,0,1,1.313,1.313v15.235A1.315,1.315,0,0,1,313.693,331.862Z" transform="translate(-292.417 -279.852)" fill="#fff"/>
          <path id="Path_144-3" data-name="Path 144" d="M350.693,331.862h-9.982a1.315,1.315,0,0,1-1.313-1.313V315.313A1.315,1.315,0,0,1,340.711,314h9.982a1.315,1.315,0,0,1,1.313,1.313v15.235A1.315,1.315,0,0,1,350.693,331.862Z" transform="translate(-309.979 -279.852)" fill="#fff"/>
          <path id="Path_145-3" data-name="Path 145" d="M313.693,384.862h-9.982a1.315,1.315,0,0,1-1.313-1.313V368.313A1.315,1.315,0,0,1,303.711,367h9.982a1.315,1.315,0,0,1,1.313,1.313v15.235A1.315,1.315,0,0,1,313.693,384.862Z" transform="translate(-292.417 -305.009)" fill="#fff"/>
          <path id="Path_146-3" data-name="Path 146" d="M350.693,384.862h-9.982a1.315,1.315,0,0,1-1.313-1.313V368.313A1.315,1.315,0,0,1,340.711,367h9.982a1.315,1.315,0,0,1,1.313,1.313v15.235A1.315,1.315,0,0,1,350.693,384.862Z" transform="translate(-309.979 -305.009)" fill="#fff"/>
          <path id="Path_147-3" data-name="Path 147" d="M313.693,437.862h-9.982a1.315,1.315,0,0,1-1.313-1.313V421.313A1.315,1.315,0,0,1,303.711,420h9.982a1.315,1.315,0,0,1,1.313,1.313v15.235a1.315,1.315,0,0,1-1.313,1.313Z" transform="translate(-292.417 -330.165)" fill="#fff"/>
          <path id="Path_148-3" data-name="Path 148" d="M350.693,437.862h-9.982a1.315,1.315,0,0,1-1.313-1.313V421.313A1.315,1.315,0,0,1,340.711,420h9.982a1.315,1.315,0,0,1,1.313,1.313v15.235a1.315,1.315,0,0,1-1.313,1.313Z" transform="translate(-309.979 -330.165)" fill="#fff"/>
          <path id="Path_149-3" data-name="Path 149" d="M313.693,490.862h-9.982a1.315,1.315,0,0,1-1.313-1.313V474.313A1.315,1.315,0,0,1,303.711,473h9.982a1.315,1.315,0,0,1,1.313,1.313v15.235A1.315,1.315,0,0,1,313.693,490.862Z" transform="translate(-292.417 -355.322)" fill="#fff"/>
          <path id="Path_150-3" data-name="Path 150" d="M350.693,490.862h-9.982a1.315,1.315,0,0,1-1.313-1.313V474.313A1.315,1.315,0,0,1,340.711,473h9.982a1.315,1.315,0,0,1,1.313,1.313v15.235A1.315,1.315,0,0,1,350.693,490.862Z" transform="translate(-309.979 -355.322)" fill="#fff"/>
          <path id="Path_151-3" data-name="Path 151" d="M313.693,543.862h-9.982a1.315,1.315,0,0,1-1.313-1.313V527.313A1.315,1.315,0,0,1,303.711,526h9.982a1.315,1.315,0,0,1,1.313,1.313v15.235A1.315,1.315,0,0,1,313.693,543.862Z" transform="translate(-292.417 -380.478)" fill="#fff"/>
          <path id="Path_152-3" data-name="Path 152" d="M350.693,543.862h-9.982a1.315,1.315,0,0,1-1.313-1.313V527.313A1.315,1.315,0,0,1,340.711,526h9.982a1.315,1.315,0,0,1,1.313,1.313v15.235A1.315,1.315,0,0,1,350.693,543.862Z" transform="translate(-309.979 -380.478)" fill="#fff"/>
          <path id="Path_280" data-name="Path 280" d="M313.693,490.862h-9.982a1.315,1.315,0,0,1-1.313-1.313V474.313A1.315,1.315,0,0,1,303.711,473h9.982a1.315,1.315,0,0,1,1.313,1.313v15.235A1.315,1.315,0,0,1,313.693,490.862Z" transform="translate(-292.417 -298.322)" fill="#fff"/>
          <path id="Path_281" data-name="Path 281" d="M350.693,490.862h-9.982a1.315,1.315,0,0,1-1.313-1.313V474.313A1.315,1.315,0,0,1,340.711,473h9.982a1.315,1.315,0,0,1,1.313,1.313v15.235A1.315,1.315,0,0,1,350.693,490.862Z" transform="translate(-309.979 -298.322)" fill="#fff"/>
          <path id="Path_282" data-name="Path 282" d="M313.693,543.862h-9.982a1.315,1.315,0,0,1-1.313-1.313V527.313A1.315,1.315,0,0,1,303.711,526h9.982a1.315,1.315,0,0,1,1.313,1.313v15.235A1.315,1.315,0,0,1,313.693,543.862Z" transform="translate(-292.417 -323.478)" fill="#fff"/>
          <path id="Path_283" data-name="Path 283" d="M350.693,543.862h-9.982a1.315,1.315,0,0,1-1.313-1.313V527.313A1.315,1.315,0,0,1,340.711,526h9.982a1.315,1.315,0,0,1,1.313,1.313v15.235A1.315,1.315,0,0,1,350.693,543.862Z" transform="translate(-309.979 -323.478)" fill="#fff"/>
        </g>
      </g>
    </g>
    <g id="Group_120" data-name="Group 120" transform="translate(7339.524 -850.93)">
      <path id="Path_153" data-name="Path 153" d="M764.9,439.3h-9.761a2.748,2.748,0,0,1-2.745-2.745V423.745A2.748,2.748,0,0,1,755.143,421H764.9a2.748,2.748,0,0,1,2.745,2.745v12.811A2.748,2.748,0,0,1,764.9,439.3Z" transform="translate(-725.555 -421)" fill="#a7e6fe"/>
      <path id="Subtraction_4" data-name="Subtraction 4" d="M60.4,100.354H0V5.185A5.191,5.191,0,0,1,5.185,0H55.209A5.191,5.191,0,0,1,60.4,5.185v95.169Z" transform="translate(66.496 15.251)" fill="#a7e6fe"/>
      <path id="Subtraction_3" data-name="Subtraction 3" d="M97,100.354H0V5.185A5.191,5.191,0,0,1,5.186,0H91.813A5.192,5.192,0,0,1,97,5.185v95.169Z" transform="translate(0 15.251)" fill="#c9f0ff"/>
      <path id="Path_156" data-name="Path 156" d="M749.9,439.3h-9.761a2.748,2.748,0,0,1-2.745-2.745V423.745A2.748,2.748,0,0,1,740.143,421H749.9a2.748,2.748,0,0,1,2.745,2.745v12.811A2.748,2.748,0,0,1,749.9,439.3Z" transform="translate(-719.706 -421)" fill="#c9f0ff"/>
      <path id="Path_157" data-name="Path 157" d="M770.514,511.242H758.923a1.527,1.527,0,0,1-1.525-1.525V492.025a1.527,1.527,0,0,1,1.525-1.525h11.591a1.527,1.527,0,0,1,1.525,1.525v17.692a1.527,1.527,0,0,1-1.525,1.525Z" transform="translate(-727.505 -448.101)" fill="#fff" opacity="0.7"/>
      <path id="Path_158" data-name="Path 158" d="M807.514,511.242H795.923a1.527,1.527,0,0,1-1.525-1.525V492.025a1.527,1.527,0,0,1,1.525-1.525h11.591a1.527,1.527,0,0,1,1.525,1.525v17.692a1.527,1.527,0,0,1-1.525,1.525Z" transform="translate(-741.933 -448.101)" fill="#fff" opacity="0.7"/>
      <path id="Path_159" data-name="Path 159" d="M770.514,564.242H758.923a1.527,1.527,0,0,1-1.525-1.525V545.025a1.527,1.527,0,0,1,1.525-1.525h11.591a1.527,1.527,0,0,1,1.525,1.525v17.692a1.527,1.527,0,0,1-1.525,1.525Z" transform="translate(-727.505 -468.769)" fill="#fff" opacity="0.7"/>
      <path id="Path_160" data-name="Path 160" d="M807.514,564.242H795.923a1.527,1.527,0,0,1-1.525-1.525V545.025a1.527,1.527,0,0,1,1.525-1.525h11.591a1.527,1.527,0,0,1,1.525,1.525v17.692A1.527,1.527,0,0,1,807.514,564.242Z" transform="translate(-741.933 -468.769)" fill="#fff" opacity="0.7"/>
    </g>
    <rect id="Rectangle_124" data-name="Rectangle 124" width="1281" height="305" transform="translate(6866.366 -1041)" fill="none"/>
    <g id="Group_130" data-name="Group 130" transform="translate(248.912 -1829.169)">
      <path id="Path_170" data-name="Path 170" d="M974.825,531.214c0-12.122-9.833-40.886-21.963-40.886S930.9,519.092,930.9,531.214a21.963,21.963,0,0,0,43.927,0Z" transform="translate(5910.958 513.699)" fill="#a9f370"/>
      <g id="Group_126" data-name="Group 126" transform="translate(6863.819 1031.467)">
        <path id="Subtraction_7" data-name="Subtraction 7" d="M-6961-612.1v-61.015a.688.688,0,0,1,.687-.687.688.688,0,0,1,.687.687V-612.1H-6961Z" transform="translate(6961 673.798)" fill="#cba37a"/>
        <path id="Path_172" data-name="Path 172" d="M963.584,541.193a.686.686,0,0,1-.485-1.172l8.976-8.976a.686.686,0,1,1,.97.971l-8.976,8.976a.684.684,0,0,1-.485.2Z" transform="translate(-962.898 -530.476)" fill="#cba37a"/>
      </g>
    </g>
    <g id="Group_2756" data-name="Group 2756" transform="translate(7488.211 -1040.749)">
      <path id="Subtraction_2-4" data-name="Subtraction 2" d="M69.95,288.466H0V7.322C0,3.289,2.7,0,6.006,0H63.944c3.308,0,6,3.289,6.006,7.321V288.465Z" transform="translate(34.622 16.957)" fill="#a7e6fe"/>
      <path id="Path_274-4" data-name="Path 274" d="M353.883,262.5H342.578a3.183,3.183,0,0,1-3.18-3.18V233.18a3.183,3.183,0,0,1,3.18-3.18h11.305a3.183,3.183,0,0,1,3.18,3.18v26.143a3.183,3.183,0,0,1-3.18,3.18Z" transform="translate(-284.286 -225.054)" fill="#a7e6fe"/>
      <g id="Group_122-4" data-name="Group 122" transform="translate(0 0)">
        <path id="Subtraction_1-4" data-name="Subtraction 1" d="M69.95,288.466H0V7.272C0,3.267,2.7,0,6.006,0H63.944c3.308,0,6,3.267,6.006,7.272V288.465Z" transform="translate(0 16.957)" fill="#c9f0ff"/>
        <path id="Path_142-4" data-name="Path 142" d="M338.883,262.5H327.578a3.183,3.183,0,0,1-3.18-3.18V233.18a3.183,3.183,0,0,1,3.18-3.18h11.305a3.183,3.183,0,0,1,3.18,3.18v26.143a3.183,3.183,0,0,1-3.18,3.18Z" transform="translate(-294.016 -230)" fill="#c9f0ff"/>
        <g id="Group_135-2" data-name="Group 135" opacity="0.7">
          <path id="Path_143-4" data-name="Path 143" d="M317.589,338.023H304.164a1.768,1.768,0,0,1-1.766-1.766v-20.49A1.768,1.768,0,0,1,304.164,314h13.425a1.768,1.768,0,0,1,1.766,1.766v20.49A1.768,1.768,0,0,1,317.589,338.023Z" transform="translate(-288.973 -268.073)" fill="#fff"/>
          <path id="Path_144-4" data-name="Path 144" d="M354.589,338.023H341.164a1.768,1.768,0,0,1-1.767-1.766v-20.49A1.768,1.768,0,0,1,341.164,314h13.425a1.768,1.768,0,0,1,1.766,1.766v20.49A1.768,1.768,0,0,1,354.589,338.023Z" transform="translate(-299.831 -268.073)" fill="#fff"/>
          <path id="Path_145-4" data-name="Path 145" d="M317.589,391.023H304.164a1.768,1.768,0,0,1-1.766-1.766v-20.49A1.768,1.768,0,0,1,304.164,367h13.425a1.768,1.768,0,0,1,1.766,1.766v20.49A1.768,1.768,0,0,1,317.589,391.023Z" transform="translate(-288.973 -283.625)" fill="#fff"/>
          <path id="Path_146-4" data-name="Path 146" d="M354.589,391.023H341.164a1.768,1.768,0,0,1-1.767-1.766v-20.49A1.768,1.768,0,0,1,341.164,367h13.425a1.768,1.768,0,0,1,1.766,1.766v20.49A1.768,1.768,0,0,1,354.589,391.023Z" transform="translate(-299.831 -283.625)" fill="#fff"/>
          <path id="Path_147-4" data-name="Path 147" d="M317.589,444.023H304.164a1.769,1.769,0,0,1-1.766-1.766v-20.49A1.768,1.768,0,0,1,304.164,420h13.425a1.768,1.768,0,0,1,1.766,1.766v20.49a1.768,1.768,0,0,1-1.766,1.766Z" transform="translate(-288.973 -299.177)" fill="#fff"/>
          <path id="Path_148-4" data-name="Path 148" d="M354.589,444.023H341.164a1.769,1.769,0,0,1-1.767-1.766v-20.49A1.768,1.768,0,0,1,341.164,420h13.425a1.768,1.768,0,0,1,1.766,1.766v20.49a1.768,1.768,0,0,1-1.766,1.766Z" transform="translate(-299.831 -299.177)" fill="#fff"/>
          <path id="Path_149-4" data-name="Path 149" d="M317.589,497.023H304.164a1.769,1.769,0,0,1-1.766-1.766v-20.49A1.768,1.768,0,0,1,304.164,473h13.425a1.768,1.768,0,0,1,1.766,1.766v20.49A1.768,1.768,0,0,1,317.589,497.023Z" transform="translate(-288.973 -314.729)" fill="#fff"/>
          <path id="Path_150-4" data-name="Path 150" d="M354.589,497.023H341.164a1.768,1.768,0,0,1-1.767-1.766v-20.49A1.768,1.768,0,0,1,341.164,473h13.425a1.768,1.768,0,0,1,1.766,1.766v20.49A1.769,1.769,0,0,1,354.589,497.023Z" transform="translate(-299.831 -314.729)" fill="#fff"/>
          <path id="Path_151-4" data-name="Path 151" d="M317.589,550.023H304.164a1.768,1.768,0,0,1-1.766-1.766v-20.49A1.768,1.768,0,0,1,304.164,526h13.425a1.768,1.768,0,0,1,1.766,1.766v20.49A1.768,1.768,0,0,1,317.589,550.023Z" transform="translate(-288.973 -330.281)" fill="#fff"/>
          <path id="Path_152-4" data-name="Path 152" d="M354.589,550.023H341.164a1.768,1.768,0,0,1-1.767-1.766v-20.49A1.768,1.768,0,0,1,341.164,526h13.425a1.768,1.768,0,0,1,1.766,1.766v20.49A1.768,1.768,0,0,1,354.589,550.023Z" transform="translate(-299.831 -330.281)" fill="#fff"/>
          <path id="Path_276-2" data-name="Path 276" d="M317.589,497.023H304.164a1.769,1.769,0,0,1-1.766-1.766v-20.49A1.768,1.768,0,0,1,304.164,473h13.425a1.768,1.768,0,0,1,1.766,1.766v20.49A1.768,1.768,0,0,1,317.589,497.023Z" transform="translate(-288.973 -242.729)" fill="#fff"/>
          <path id="Path_277-2" data-name="Path 277" d="M354.589,497.023H341.164a1.768,1.768,0,0,1-1.767-1.766v-20.49A1.768,1.768,0,0,1,341.164,473h13.425a1.768,1.768,0,0,1,1.766,1.766v20.49A1.769,1.769,0,0,1,354.589,497.023Z" transform="translate(-299.831 -242.729)" fill="#fff"/>
          <path id="Path_278-2" data-name="Path 278" d="M317.589,550.023H304.164a1.768,1.768,0,0,1-1.766-1.766v-20.49A1.768,1.768,0,0,1,304.164,526h13.425a1.768,1.768,0,0,1,1.766,1.766v20.49A1.768,1.768,0,0,1,317.589,550.023Z" transform="translate(-288.973 -258.281)" fill="#fff"/>
          <path id="Path_279-2" data-name="Path 279" d="M354.589,550.023H341.164a1.768,1.768,0,0,1-1.767-1.766v-20.49A1.768,1.768,0,0,1,341.164,526h13.425a1.768,1.768,0,0,1,1.766,1.766v20.49A1.768,1.768,0,0,1,354.589,550.023Z" transform="translate(-299.831 -258.281)" fill="#fff"/>
        </g>
      </g>
    </g>
    <g id="Group_2757" data-name="Group 2757" transform="translate(7711.66 -924.914)" opacity="0.6">
      <path id="Subtraction_2-5" data-name="Subtraction 2" d="M52.01,177.306H0V4.465A4.471,4.471,0,0,1,4.465,0H47.544A4.471,4.471,0,0,1,52.01,4.465v172.84Z" transform="translate(25.742 12.608)" fill="#a7e6fe"/>
      <path id="Path_274-5" data-name="Path 274" d="M350.168,254.166h-8.406A2.367,2.367,0,0,1,339.4,251.8V232.364A2.367,2.367,0,0,1,341.762,230h8.406a2.367,2.367,0,0,1,2.364,2.364V251.8a2.367,2.367,0,0,1-2.364,2.364Z" transform="translate(-298.421 -226.323)" fill="#a7e6fe"/>
      <g id="Group_122-5" data-name="Group 122" transform="translate(0 0)">
        <path id="Subtraction_1-5" data-name="Subtraction 1" d="M52.01,177.306H0V4.465A4.471,4.471,0,0,1,4.466,0H47.544A4.471,4.471,0,0,1,52.01,4.465v172.84Z" transform="translate(0 12.608)" fill="#c9f0ff"/>
        <path id="Path_142-5" data-name="Path 142" d="M335.168,254.166h-8.406A2.367,2.367,0,0,1,324.4,251.8V232.364A2.367,2.367,0,0,1,326.762,230h8.406a2.367,2.367,0,0,1,2.364,2.364V251.8a2.367,2.367,0,0,1-2.364,2.364Z" transform="translate(-301.808 -230)" fill="#c9f0ff"/>
        <g id="Group_134-3" data-name="Group 134" opacity="0.6">
          <path id="Path_143-5" data-name="Path 143" d="M313.693,331.862h-9.982a1.315,1.315,0,0,1-1.313-1.313V315.313A1.315,1.315,0,0,1,303.711,314h9.982a1.315,1.315,0,0,1,1.313,1.313v15.235A1.315,1.315,0,0,1,313.693,331.862Z" transform="translate(-292.417 -279.852)" fill="#fff"/>
          <path id="Path_144-5" data-name="Path 144" d="M350.693,331.862h-9.982a1.315,1.315,0,0,1-1.313-1.313V315.313A1.315,1.315,0,0,1,340.711,314h9.982a1.315,1.315,0,0,1,1.313,1.313v15.235A1.315,1.315,0,0,1,350.693,331.862Z" transform="translate(-309.979 -279.852)" fill="#fff"/>
          <path id="Path_145-5" data-name="Path 145" d="M313.693,384.862h-9.982a1.315,1.315,0,0,1-1.313-1.313V368.313A1.315,1.315,0,0,1,303.711,367h9.982a1.315,1.315,0,0,1,1.313,1.313v15.235A1.315,1.315,0,0,1,313.693,384.862Z" transform="translate(-292.417 -305.009)" fill="#fff"/>
          <path id="Path_146-5" data-name="Path 146" d="M350.693,384.862h-9.982a1.315,1.315,0,0,1-1.313-1.313V368.313A1.315,1.315,0,0,1,340.711,367h9.982a1.315,1.315,0,0,1,1.313,1.313v15.235A1.315,1.315,0,0,1,350.693,384.862Z" transform="translate(-309.979 -305.009)" fill="#fff"/>
          <path id="Path_147-5" data-name="Path 147" d="M313.693,437.862h-9.982a1.315,1.315,0,0,1-1.313-1.313V421.313A1.315,1.315,0,0,1,303.711,420h9.982a1.315,1.315,0,0,1,1.313,1.313v15.235a1.315,1.315,0,0,1-1.313,1.313Z" transform="translate(-292.417 -330.165)" fill="#fff"/>
          <path id="Path_148-5" data-name="Path 148" d="M350.693,437.862h-9.982a1.315,1.315,0,0,1-1.313-1.313V421.313A1.315,1.315,0,0,1,340.711,420h9.982a1.315,1.315,0,0,1,1.313,1.313v15.235a1.315,1.315,0,0,1-1.313,1.313Z" transform="translate(-309.979 -330.165)" fill="#fff"/>
          <path id="Path_149-5" data-name="Path 149" d="M313.693,490.862h-9.982a1.315,1.315,0,0,1-1.313-1.313V474.313A1.315,1.315,0,0,1,303.711,473h9.982a1.315,1.315,0,0,1,1.313,1.313v15.235A1.315,1.315,0,0,1,313.693,490.862Z" transform="translate(-292.417 -355.322)" fill="#fff"/>
          <path id="Path_150-5" data-name="Path 150" d="M350.693,490.862h-9.982a1.315,1.315,0,0,1-1.313-1.313V474.313A1.315,1.315,0,0,1,340.711,473h9.982a1.315,1.315,0,0,1,1.313,1.313v15.235A1.315,1.315,0,0,1,350.693,490.862Z" transform="translate(-309.979 -355.322)" fill="#fff"/>
          <path id="Path_151-5" data-name="Path 151" d="M313.693,543.862h-9.982a1.315,1.315,0,0,1-1.313-1.313V527.313A1.315,1.315,0,0,1,303.711,526h9.982a1.315,1.315,0,0,1,1.313,1.313v15.235A1.315,1.315,0,0,1,313.693,543.862Z" transform="translate(-292.417 -380.478)" fill="#fff"/>
          <path id="Path_152-5" data-name="Path 152" d="M350.693,543.862h-9.982a1.315,1.315,0,0,1-1.313-1.313V527.313A1.315,1.315,0,0,1,340.711,526h9.982a1.315,1.315,0,0,1,1.313,1.313v15.235A1.315,1.315,0,0,1,350.693,543.862Z" transform="translate(-309.979 -380.478)" fill="#fff"/>
        </g>
      </g>
    </g>
    <g id="Group_2758" data-name="Group 2758" transform="translate(7803.376 -1006.142)">
      <path id="Subtraction_2-6" data-name="Subtraction 2" d="M51.944,257.306H.065A9.253,9.253,0,0,1,0,256.215V6.415C0,2.881,2.006,0,4.465,0H47.544C50,0,52.007,2.881,52.009,6.415v249.8a9.256,9.256,0,0,1-.065,1.09h0Z" transform="translate(25.742 12.608)" fill="#a7e6fe"/>
      <path id="Path_274-6" data-name="Path 274" d="M350.168,254.166h-8.406A2.367,2.367,0,0,1,339.4,251.8V232.364A2.367,2.367,0,0,1,341.762,230h8.406a2.367,2.367,0,0,1,2.364,2.364V251.8a2.367,2.367,0,0,1-2.364,2.364Z" transform="translate(-298.421 -226.323)" fill="#a7e6fe"/>
      <g id="Group_122-6" data-name="Group 122" transform="translate(0 0)">
        <path id="Subtraction_1-6" data-name="Subtraction 1" d="M51.439,257.306h-52c0-.083,0-.167,0-.25V6.436C-.564,2.891,1.439,0,3.9,0H46.977c2.459,0,4.462,2.891,4.465,6.436V257.055c0,.083,0,.167,0,.249Z" transform="translate(0 12.608)" fill="#c9f0ff"/>
        <path id="Path_142-6" data-name="Path 142" d="M335.168,254.166h-8.406A2.367,2.367,0,0,1,324.4,251.8V232.364A2.367,2.367,0,0,1,326.762,230h8.406a2.367,2.367,0,0,1,2.364,2.364V251.8a2.367,2.367,0,0,1-2.364,2.364Z" transform="translate(-301.808 -230)" fill="#c9f0ff"/>
        <g id="Group_134-4" data-name="Group 134" opacity="0.6">
          <path id="Path_143-6" data-name="Path 143" d="M313.693,331.862h-9.982a1.315,1.315,0,0,1-1.313-1.313V315.313A1.315,1.315,0,0,1,303.711,314h9.982a1.315,1.315,0,0,1,1.313,1.313v15.235A1.315,1.315,0,0,1,313.693,331.862Z" transform="translate(-292.417 -279.852)" fill="#fff"/>
          <path id="Path_144-6" data-name="Path 144" d="M350.693,331.862h-9.982a1.315,1.315,0,0,1-1.313-1.313V315.313A1.315,1.315,0,0,1,340.711,314h9.982a1.315,1.315,0,0,1,1.313,1.313v15.235A1.315,1.315,0,0,1,350.693,331.862Z" transform="translate(-309.979 -279.852)" fill="#fff"/>
          <path id="Path_145-6" data-name="Path 145" d="M313.693,384.862h-9.982a1.315,1.315,0,0,1-1.313-1.313V368.313A1.315,1.315,0,0,1,303.711,367h9.982a1.315,1.315,0,0,1,1.313,1.313v15.235A1.315,1.315,0,0,1,313.693,384.862Z" transform="translate(-292.417 -305.009)" fill="#fff"/>
          <path id="Path_146-6" data-name="Path 146" d="M350.693,384.862h-9.982a1.315,1.315,0,0,1-1.313-1.313V368.313A1.315,1.315,0,0,1,340.711,367h9.982a1.315,1.315,0,0,1,1.313,1.313v15.235A1.315,1.315,0,0,1,350.693,384.862Z" transform="translate(-309.979 -305.009)" fill="#fff"/>
          <path id="Path_147-6" data-name="Path 147" d="M313.693,437.862h-9.982a1.315,1.315,0,0,1-1.313-1.313V421.313A1.315,1.315,0,0,1,303.711,420h9.982a1.315,1.315,0,0,1,1.313,1.313v15.235a1.315,1.315,0,0,1-1.313,1.313Z" transform="translate(-292.417 -330.165)" fill="#fff"/>
          <path id="Path_148-6" data-name="Path 148" d="M350.693,437.862h-9.982a1.315,1.315,0,0,1-1.313-1.313V421.313A1.315,1.315,0,0,1,340.711,420h9.982a1.315,1.315,0,0,1,1.313,1.313v15.235a1.315,1.315,0,0,1-1.313,1.313Z" transform="translate(-309.979 -330.165)" fill="#fff"/>
          <path id="Path_149-6" data-name="Path 149" d="M313.693,490.862h-9.982a1.315,1.315,0,0,1-1.313-1.313V474.313A1.315,1.315,0,0,1,303.711,473h9.982a1.315,1.315,0,0,1,1.313,1.313v15.235A1.315,1.315,0,0,1,313.693,490.862Z" transform="translate(-292.417 -355.322)" fill="#fff"/>
          <path id="Path_150-6" data-name="Path 150" d="M350.693,490.862h-9.982a1.315,1.315,0,0,1-1.313-1.313V474.313A1.315,1.315,0,0,1,340.711,473h9.982a1.315,1.315,0,0,1,1.313,1.313v15.235A1.315,1.315,0,0,1,350.693,490.862Z" transform="translate(-309.979 -355.322)" fill="#fff"/>
          <path id="Path_151-6" data-name="Path 151" d="M313.693,543.862h-9.982a1.315,1.315,0,0,1-1.313-1.313V527.313A1.315,1.315,0,0,1,303.711,526h9.982a1.315,1.315,0,0,1,1.313,1.313v15.235A1.315,1.315,0,0,1,313.693,543.862Z" transform="translate(-292.417 -380.478)" fill="#fff"/>
          <path id="Path_152-6" data-name="Path 152" d="M350.693,543.862h-9.982a1.315,1.315,0,0,1-1.313-1.313V527.313A1.315,1.315,0,0,1,340.711,526h9.982a1.315,1.315,0,0,1,1.313,1.313v15.235A1.315,1.315,0,0,1,350.693,543.862Z" transform="translate(-309.979 -380.478)" fill="#fff"/>
          <path id="Path_280-2" data-name="Path 280" d="M313.693,490.862h-9.982a1.315,1.315,0,0,1-1.313-1.313V474.313A1.315,1.315,0,0,1,303.711,473h9.982a1.315,1.315,0,0,1,1.313,1.313v15.235A1.315,1.315,0,0,1,313.693,490.862Z" transform="translate(-292.417 -298.322)" fill="#fff"/>
          <path id="Path_281-2" data-name="Path 281" d="M350.693,490.862h-9.982a1.315,1.315,0,0,1-1.313-1.313V474.313A1.315,1.315,0,0,1,340.711,473h9.982a1.315,1.315,0,0,1,1.313,1.313v15.235A1.315,1.315,0,0,1,350.693,490.862Z" transform="translate(-309.979 -298.322)" fill="#fff"/>
          <path id="Path_282-2" data-name="Path 282" d="M313.693,543.862h-9.982a1.315,1.315,0,0,1-1.313-1.313V527.313A1.315,1.315,0,0,1,303.711,526h9.982a1.315,1.315,0,0,1,1.313,1.313v15.235A1.315,1.315,0,0,1,313.693,543.862Z" transform="translate(-292.417 -323.478)" fill="#fff"/>
          <path id="Path_283-2" data-name="Path 283" d="M350.693,543.862h-9.982a1.315,1.315,0,0,1-1.313-1.313V527.313A1.315,1.315,0,0,1,340.711,526h9.982a1.315,1.315,0,0,1,1.313,1.313v15.235A1.315,1.315,0,0,1,350.693,543.862Z" transform="translate(-309.979 -323.478)" fill="#fff"/>
        </g>
      </g>
    </g>
    <g id="Group_2759" data-name="Group 2759" transform="translate(7869.524 -850.93)">
      <path id="Path_153-2" data-name="Path 153" d="M764.9,439.3h-9.761a2.748,2.748,0,0,1-2.745-2.745V423.745A2.748,2.748,0,0,1,755.143,421H764.9a2.748,2.748,0,0,1,2.745,2.745v12.811A2.748,2.748,0,0,1,764.9,439.3Z" transform="translate(-725.555 -421)" fill="#a7e6fe"/>
      <path id="Subtraction_4-2" data-name="Subtraction 4" d="M60.4,100.354H0V5.185A5.191,5.191,0,0,1,5.185,0H55.209A5.191,5.191,0,0,1,60.4,5.185v95.169Z" transform="translate(66.496 15.251)" fill="#a7e6fe"/>
      <path id="Subtraction_3-2" data-name="Subtraction 3" d="M97,100.354H0V5.185A5.191,5.191,0,0,1,5.186,0H91.813A5.192,5.192,0,0,1,97,5.185v95.169Z" transform="translate(0 15.251)" fill="#c9f0ff"/>
      <path id="Path_156-2" data-name="Path 156" d="M749.9,439.3h-9.761a2.748,2.748,0,0,1-2.745-2.745V423.745A2.748,2.748,0,0,1,740.143,421H749.9a2.748,2.748,0,0,1,2.745,2.745v12.811A2.748,2.748,0,0,1,749.9,439.3Z" transform="translate(-719.706 -421)" fill="#c9f0ff"/>
      <path id="Path_157-2" data-name="Path 157" d="M770.514,511.242H758.923a1.527,1.527,0,0,1-1.525-1.525V492.025a1.527,1.527,0,0,1,1.525-1.525h11.591a1.527,1.527,0,0,1,1.525,1.525v17.692a1.527,1.527,0,0,1-1.525,1.525Z" transform="translate(-727.505 -448.101)" fill="#fff" opacity="0.7"/>
      <path id="Path_158-2" data-name="Path 158" d="M807.514,511.242H795.923a1.527,1.527,0,0,1-1.525-1.525V492.025a1.527,1.527,0,0,1,1.525-1.525h11.591a1.527,1.527,0,0,1,1.525,1.525v17.692a1.527,1.527,0,0,1-1.525,1.525Z" transform="translate(-741.933 -448.101)" fill="#fff" opacity="0.7"/>
      <path id="Path_159-2" data-name="Path 159" d="M770.514,564.242H758.923a1.527,1.527,0,0,1-1.525-1.525V545.025a1.527,1.527,0,0,1,1.525-1.525h11.591a1.527,1.527,0,0,1,1.525,1.525v17.692a1.527,1.527,0,0,1-1.525,1.525Z" transform="translate(-727.505 -468.769)" fill="#fff" opacity="0.7"/>
      <path id="Path_160-2" data-name="Path 160" d="M807.514,564.242H795.923a1.527,1.527,0,0,1-1.525-1.525V545.025a1.527,1.527,0,0,1,1.525-1.525h11.591a1.527,1.527,0,0,1,1.525,1.525v17.692A1.527,1.527,0,0,1,807.514,564.242Z" transform="translate(-741.933 -468.769)" fill="#fff" opacity="0.7"/>
    </g>
    <g id="Group_132" data-name="Group 132" transform="translate(637.059 -1417.617)">
      <path id="Path_275" data-name="Path 275" d="M254.916,521.991c0-9.387-7.615-31.663-17.009-31.663S220.9,512.6,220.9,521.991a17.009,17.009,0,0,0,34.018,0Z" transform="translate(6034.81 122.449)" fill="#7ad66a"/>
      <g id="Group_127" data-name="Group 127" transform="translate(6272.717 634.027)">
        <path id="Subtraction_9" data-name="Subtraction 9" d="M-6300-640.32v-47.059a.532.532,0,0,1,.531-.531.532.532,0,0,1,.532.531v47.059H-6300Z" transform="translate(6300 687.91)" fill="#cba37a"/>
        <path id="Path_133" data-name="Path 133" d="M253.43,538.858a.532.532,0,0,1-.376-.907L260,531a.531.531,0,0,1,.752.752l-6.951,6.951A.529.529,0,0,1,253.43,538.858Z" transform="translate(-252.898 -530.559)" fill="#cba37a"/>
      </g>
    </g>
    <g id="Group_130-2" data-name="Group 130" transform="translate(78.912 -1829.169)">
      <path id="Path_170-2" data-name="Path 170" d="M974.825,531.214c0-12.122-9.833-40.886-21.963-40.886S930.9,519.092,930.9,531.214a21.963,21.963,0,0,0,43.927,0Z" transform="translate(5910.958 513.699)" fill="#a9f370"/>
      <g id="Group_126-2" data-name="Group 126" transform="translate(6863.819 1031.467)">
        <path id="Subtraction_7-2" data-name="Subtraction 7" d="M-6961-612.1v-61.015a.688.688,0,0,1,.687-.687.688.688,0,0,1,.687.687V-612.1H-6961Z" transform="translate(6961 673.798)" fill="#cba37a"/>
        <path id="Path_172-2" data-name="Path 172" d="M963.584,541.193a.686.686,0,0,1-.485-1.172l8.976-8.976a.686.686,0,1,1,.97.971l-8.976,8.976a.684.684,0,0,1-.485.2Z" transform="translate(-962.898 -530.476)" fill="#cba37a"/>
      </g>
    </g>
    <g id="Group_2760" data-name="Group 2760" transform="translate(8011.769 -780.117)">
      <path id="Path_275-2" data-name="Path 275" d="M242.7,510.619c0-6.016-4.88-20.291-10.9-20.291s-10.9,14.275-10.9,20.291a10.9,10.9,0,1,0,21.8,0Z" transform="translate(-220.898 -490.328)" fill="#7ad66a"/>
      <g id="Group_127-2" data-name="Group 127" transform="translate(10.9 13.618)">
        <path id="Subtraction_9-2" data-name="Subtraction 9" d="M0,30.5V.341a.341.341,0,1,1,.681,0V30.5H0Z" fill="#cba37a"/>
        <path id="Path_133-2" data-name="Path 133" d="M253.239,535.98A.341.341,0,0,1,253,535.4l4.455-4.455a.341.341,0,0,1,.482.482l-4.455,4.455A.339.339,0,0,1,253.239,535.98Z" transform="translate(-252.898 -530.661)" fill="#cba37a"/>
      </g>
    </g>
    <g id="Group_2761" data-name="Group 2761" transform="translate(7950.768 -793.127)">
      <path id="Path_170-3" data-name="Path 170" d="M959.048,516.53c0-7.768-6.3-26.2-14.075-26.2S930.9,508.762,930.9,516.53a14.075,14.075,0,0,0,28.151,0Z" transform="translate(-930.898 -490.328)" fill="#a9f370"/>
      <g id="Group_126-3" data-name="Group 126" transform="translate(14.075 17.585)">
        <path id="Subtraction_7-3" data-name="Subtraction 7" d="M0,39.542V.44a.44.44,0,1,1,.88,0v39.1H0Z" fill="#cba37a"/>
        <path id="Path_172-3" data-name="Path 172" d="M963.338,537.476a.44.44,0,0,1-.311-.751l5.752-5.752a.44.44,0,1,1,.622.622l-5.752,5.752A.439.439,0,0,1,963.338,537.476Z" transform="translate(-962.898 -530.608)" fill="#cba37a"/>
      </g>
    </g>
    <g id="Group_2762" data-name="Group 2762" transform="translate(752.471 -1402.811)">
      <path id="Path_135" data-name="Path 135" d="M691.689,515.264c0-7.393-6-24.936-13.4-24.936s-13.4,17.543-13.4,24.936a13.4,13.4,0,0,0,26.791,0Z" transform="translate(6005.072 122.449)" fill="#7ad66a"/>
      <path id="Path_136" data-name="Path 136" d="M683.689,515.264c0-7.393-6-24.936-13.4-24.936s-13.4,17.543-13.4,24.936a13.4,13.4,0,1,0,26.791,0Z" transform="translate(6009.724 122.449)" fill="#a9f370"/>
      <g id="Group_125" data-name="Group 125" transform="translate(6680.017 629.512)">
        <path id="Subtraction_8" data-name="Subtraction 8" d="M-6678-659.9v-37.868a.425.425,0,0,1,.419-.43.425.425,0,0,1,.419.43V-659.9H-6678Z" transform="translate(6678 698.201)" fill="#cba37a"/>
        <path id="Path_138" data-name="Path 138" d="M689.317,537.156a.419.419,0,0,1-.3-.715l5.474-5.475a.419.419,0,0,1,.592.592l-5.474,5.474A.416.416,0,0,1,689.317,537.156Z" transform="translate(-688.898 -530.62)" fill="#cba37a"/>
      </g>
    </g>
    <g id="Group_2763" data-name="Group 2763" transform="translate(7641.769 -793.127)">
      <path id="Path_275-3" data-name="Path 275" d="M249.127,516.6c0-7.79-6.319-26.275-14.115-26.275S220.9,508.813,220.9,516.6a14.115,14.115,0,1,0,28.229,0Z" transform="translate(-220.898 -490.328)" fill="#7ad66a"/>
      <g id="Group_127-3" data-name="Group 127" transform="translate(14.115 17.634)">
        <path id="Subtraction_9-3" data-name="Subtraction 9" d="M0,39.493V.441a.441.441,0,1,1,.882,0V39.493H0Z" transform="translate(0)" fill="#cba37a"/>
        <path id="Path_133-3" data-name="Path 133" d="M253.339,537.495a.441.441,0,0,1-.312-.753l5.768-5.769a.441.441,0,0,1,.624.624l-5.768,5.769A.439.439,0,0,1,253.339,537.495Z" transform="translate(-252.898 -530.607)" fill="#cba37a"/>
      </g>
    </g>
    <g id="Group_2764" data-name="Group 2764" transform="translate(1150.073 -1429.341)">
      <path id="Path_165" data-name="Path 165" d="M468.126,527.771c0-11.1-9.005-37.443-20.114-37.443S427.9,516.67,427.9,527.771a20.114,20.114,0,1,0,40.228,0Z" transform="translate(6020.389 122.449)" fill="#7ad66a"/>
      <path id="Path_166" data-name="Path 166" d="M460.126,527.771c0-11.1-9.005-37.443-20.114-37.443S419.9,516.67,419.9,527.771a20.114,20.114,0,1,0,40.228,0Z" transform="translate(6023.36 122.449)" fill="#a9f370"/>
      <path id="Subtraction_5" data-name="Subtraction 5" d="M-15.371,15.275h-1.257V-40.532A.629.629,0,0,1-16-41.16a.629.629,0,0,1,.629.628v7.041l7.147-7.148a.625.625,0,0,1,.445-.184.625.625,0,0,1,.445.184.631.631,0,0,1,0,.889l-8.036,8.035Z" transform="translate(6480 679.066)" fill="#cba37a"/>
    </g>
    <g id="Group_2765" data-name="Group 2765" transform="translate(527.471 -1464.338)">
      <path id="Subtraction_6" data-name="Subtraction 6" d="M1.725,76.882H0V.862a.862.862,0,0,1,1.725,0Z" transform="translate(6631.688 652.456)" fill="#8f8b87"/>
      <path id="Path_173" data-name="Path 173" d="M629.52,557.278H610.552a2.157,2.157,0,0,1-2.155-2.155V536.155A2.157,2.157,0,0,1,610.552,534H629.52a2.157,2.157,0,0,1,2.155,2.155v18.967A2.157,2.157,0,0,1,629.52,557.278Z" transform="translate(6012.514 124.384)" fill="#efa8c0"/>
    </g>
    <g id="Group_2766" data-name="Group 2766" transform="translate(1058.401 -1437.553)">
      <path id="Subtraction_6-2" data-name="Subtraction 6" d="M1.124,50.1H0V.562a.562.562,0,0,1,1.124,0Z" transform="translate(6627.934 652.456)" fill="#8f8b87"/>
      <path id="Path_173-2" data-name="Path 173" d="M622.161,549.168H609.8a1.406,1.406,0,0,1-1.4-1.4V535.4a1.406,1.406,0,0,1,1.4-1.4h12.359a1.406,1.406,0,0,1,1.4,1.4v12.359A1.406,1.406,0,0,1,622.161,549.168Z" transform="translate(6012.514 122.319)" fill="#efa8c0"/>
    </g>
    <g id="Group_2767" data-name="Group 2767" transform="translate(8051.66 -924.914)" opacity="0.6">
      <path id="Subtraction_2-7" data-name="Subtraction 2" d="M52.01,177.306H0V4.465A4.471,4.471,0,0,1,4.465,0H47.544A4.471,4.471,0,0,1,52.01,4.465v172.84Z" transform="translate(25.742 12.608)" fill="#a7e6fe"/>
      <path id="Path_274-7" data-name="Path 274" d="M350.168,254.166h-8.406A2.367,2.367,0,0,1,339.4,251.8V232.364A2.367,2.367,0,0,1,341.762,230h8.406a2.367,2.367,0,0,1,2.364,2.364V251.8a2.367,2.367,0,0,1-2.364,2.364Z" transform="translate(-298.421 -226.323)" fill="#a7e6fe"/>
      <g id="Group_122-7" data-name="Group 122" transform="translate(0 0)">
        <path id="Subtraction_1-7" data-name="Subtraction 1" d="M52.01,177.306H0V4.465A4.471,4.471,0,0,1,4.466,0H47.544A4.471,4.471,0,0,1,52.01,4.465v172.84Z" transform="translate(0 12.608)" fill="#c9f0ff"/>
        <path id="Path_142-7" data-name="Path 142" d="M335.168,254.166h-8.406A2.367,2.367,0,0,1,324.4,251.8V232.364A2.367,2.367,0,0,1,326.762,230h8.406a2.367,2.367,0,0,1,2.364,2.364V251.8a2.367,2.367,0,0,1-2.364,2.364Z" transform="translate(-301.808 -230)" fill="#c9f0ff"/>
        <g id="Group_134-5" data-name="Group 134" opacity="0.6">
          <path id="Path_143-7" data-name="Path 143" d="M313.693,331.862h-9.982a1.315,1.315,0,0,1-1.313-1.313V315.313A1.315,1.315,0,0,1,303.711,314h9.982a1.315,1.315,0,0,1,1.313,1.313v15.235A1.315,1.315,0,0,1,313.693,331.862Z" transform="translate(-292.417 -279.852)" fill="#fff"/>
          <path id="Path_144-7" data-name="Path 144" d="M350.693,331.862h-9.982a1.315,1.315,0,0,1-1.313-1.313V315.313A1.315,1.315,0,0,1,340.711,314h9.982a1.315,1.315,0,0,1,1.313,1.313v15.235A1.315,1.315,0,0,1,350.693,331.862Z" transform="translate(-309.979 -279.852)" fill="#fff"/>
          <path id="Path_145-7" data-name="Path 145" d="M313.693,384.862h-9.982a1.315,1.315,0,0,1-1.313-1.313V368.313A1.315,1.315,0,0,1,303.711,367h9.982a1.315,1.315,0,0,1,1.313,1.313v15.235A1.315,1.315,0,0,1,313.693,384.862Z" transform="translate(-292.417 -305.009)" fill="#fff"/>
          <path id="Path_146-7" data-name="Path 146" d="M350.693,384.862h-9.982a1.315,1.315,0,0,1-1.313-1.313V368.313A1.315,1.315,0,0,1,340.711,367h9.982a1.315,1.315,0,0,1,1.313,1.313v15.235A1.315,1.315,0,0,1,350.693,384.862Z" transform="translate(-309.979 -305.009)" fill="#fff"/>
          <path id="Path_147-7" data-name="Path 147" d="M313.693,437.862h-9.982a1.315,1.315,0,0,1-1.313-1.313V421.313A1.315,1.315,0,0,1,303.711,420h9.982a1.315,1.315,0,0,1,1.313,1.313v15.235a1.315,1.315,0,0,1-1.313,1.313Z" transform="translate(-292.417 -330.165)" fill="#fff"/>
          <path id="Path_148-7" data-name="Path 148" d="M350.693,437.862h-9.982a1.315,1.315,0,0,1-1.313-1.313V421.313A1.315,1.315,0,0,1,340.711,420h9.982a1.315,1.315,0,0,1,1.313,1.313v15.235a1.315,1.315,0,0,1-1.313,1.313Z" transform="translate(-309.979 -330.165)" fill="#fff"/>
          <path id="Path_149-7" data-name="Path 149" d="M313.693,490.862h-9.982a1.315,1.315,0,0,1-1.313-1.313V474.313A1.315,1.315,0,0,1,303.711,473h9.982a1.315,1.315,0,0,1,1.313,1.313v15.235A1.315,1.315,0,0,1,313.693,490.862Z" transform="translate(-292.417 -355.322)" fill="#fff"/>
          <path id="Path_150-7" data-name="Path 150" d="M350.693,490.862h-9.982a1.315,1.315,0,0,1-1.313-1.313V474.313A1.315,1.315,0,0,1,340.711,473h9.982a1.315,1.315,0,0,1,1.313,1.313v15.235A1.315,1.315,0,0,1,350.693,490.862Z" transform="translate(-309.979 -355.322)" fill="#fff"/>
          <path id="Path_151-7" data-name="Path 151" d="M313.693,543.862h-9.982a1.315,1.315,0,0,1-1.313-1.313V527.313A1.315,1.315,0,0,1,303.711,526h9.982a1.315,1.315,0,0,1,1.313,1.313v15.235A1.315,1.315,0,0,1,313.693,543.862Z" transform="translate(-292.417 -380.478)" fill="#fff"/>
          <path id="Path_152-7" data-name="Path 152" d="M350.693,543.862h-9.982a1.315,1.315,0,0,1-1.313-1.313V527.313A1.315,1.315,0,0,1,340.711,526h9.982a1.315,1.315,0,0,1,1.313,1.313v15.235A1.315,1.315,0,0,1,350.693,543.862Z" transform="translate(-309.979 -380.478)" fill="#fff"/>
        </g>
      </g>
    </g>
  </g>
</svg>
