<svg xmlns="http://www.w3.org/2000/svg" width="620.232" height="154.358" viewBox="0 0 620.232 154.358">
  <g id="Group_2769" data-name="Group 2769" transform="translate(-7026.372 1775)">
    <g id="Group_143" data-name="Group 143" transform="translate(1337.254 -1392)">
      <path id="Subtraction_11" data-name="Subtraction 11" d="M99.232,29H0A15.319,15.319,0,0,1,20.423,17.056,24.981,24.981,0,0,1,66.43,13.75,15.316,15.316,0,0,1,85.225,21.4a11.3,11.3,0,0,1,3.2-.46,11.178,11.178,0,0,1,6.8,2.281A11.367,11.367,0,0,1,99.232,29v0h0Z" transform="translate(6210.118 -339)" fill="#fff"/>
    </g>
    <path id="Subtraction_10" data-name="Subtraction 10" d="M51.973,20H0A13.471,13.471,0,0,1,13.575,6.666a14.141,14.141,0,0,1,1.753.11A13.722,13.722,0,0,1,35.99,3.217a13.29,13.29,0,0,1,4.559,7.977,10.417,10.417,0,0,1,1.305-.082A10.1,10.1,0,0,1,51.973,20Z" transform="translate(7421.912 -1689.802)" fill="#fff"/>
    <g id="Group_144" data-name="Group 144" transform="translate(1144.604 -1383.431)">
      <path id="Subtraction_10-2" data-name="Subtraction 10" d="M117,39H0A14.515,14.515,0,0,1,14.625,24.631c.251,0,.5.007.775.02a17.6,17.6,0,0,1,6.327-8.846,17.813,17.813,0,0,1,10.656-3.489,18.056,18.056,0,0,1,5.59.881,23.823,23.823,0,0,1,8.7-9.531,24.412,24.412,0,0,1,25.737,0,23.821,23.821,0,0,1,8.7,9.531,18.054,18.054,0,0,1,5.588-.881,17.818,17.818,0,0,1,10.675,3.5A17.588,17.588,0,0,1,103.7,24.69a14.677,14.677,0,0,1,9.444,4.592A14.19,14.19,0,0,1,117,39Z" transform="translate(6157 -391.569)" fill="#fff"/>
    </g>
    <g id="Group_145" data-name="Group 145" transform="translate(816.254 -1310.642)">
      <path id="Subtraction_11-2" data-name="Subtraction 11" d="M99.232,29H0A15.319,15.319,0,0,1,20.423,17.056,24.981,24.981,0,0,1,66.43,13.75,15.316,15.316,0,0,1,85.225,21.4a11.3,11.3,0,0,1,3.2-.46,11.178,11.178,0,0,1,6.8,2.281A11.367,11.367,0,0,1,99.232,29v0h0Z" transform="translate(6210.118 -339)" fill="#e9f9ff"/>
    </g>
  </g>
</svg>
