<svg xmlns="http://www.w3.org/2000/svg" xmlns:xlink="http://www.w3.org/1999/xlink" width="193.923" height="151.254" viewBox="0 0 193.923 151.254">
  <defs>
    <linearGradient id="linear-gradient" x1="0.5" y1="1" x2="0.5" gradientUnits="objectBoundingBox">
      <stop offset="0" stop-color="gray" stop-opacity="0.251"/>
      <stop offset="0.54" stop-color="gray" stop-opacity="0.122"/>
      <stop offset="1" stop-color="gray" stop-opacity="0.102"/>
    </linearGradient>
    <linearGradient id="linear-gradient-2" x1="0.5" y1="1" x2="0.5" y2="0" xlink:href="#linear-gradient"/>
  </defs>
  <g id="Group_378" data-name="Group 378" transform="translate(0.485)">
    <ellipse id="Ellipse_61" data-name="Ellipse 61" cx="18.829" cy="3.024" rx="18.829" ry="3.024" transform="translate(46.145 145.12)" fill="#cbd7dc" opacity="0.44"/>
    <ellipse id="Ellipse_62" data-name="Ellipse 62" cx="23.495" cy="3.024" rx="23.495" ry="3.024" transform="translate(129.753 145.205)" fill="#cbd7dc" opacity="0.44"/>
    <path id="Path_410" data-name="Path 410" d="M59.4,396.83H79.013v26.73H60.838c-.048.274-.095.551-.145.827H79.013v21.557c-.033-.01-.062-.021-.093-.033-.518-.2-1.032-.421-1.546-.653l-.328-.149q-.773-.365-1.546-.773c-.18-.095-.359-.193-.537-.294a32.157,32.157,0,0,1-7.706-6.021c-.066-.064-.128-.131-.193-.193-.313-.34-.62-.684-.918-1.036l-.328-.386c-.352-.431-.692-.873-1.022-1.322-.048-.066-.095-.131-.145-.193a28.768,28.768,0,0,1-3.324-6.01c-.027-.064-.05-.133-.075-.193q-.4-1.024-.705-2.068c-.089-.292-.174-.58-.247-.883-.027-.089-.05-.176-.071-.263A52.834,52.834,0,0,1,59,412.322v-1.546c0-1.787.021-3.586.052-5.384,0-.466.019-.929.029-1.4q.041-1.78.116-3.559c.012-.33.027-.659.044-.987a5.592,5.592,0,0,1,.029-.568C59.317,398.192,59.356,397.51,59.4,396.83Z" transform="translate(-56.82 -331.477)" fill="#d7f4ff"/>
    <path id="Path_411" data-name="Path 411" d="M117.657,186.046H106.9a81.548,81.548,0,0,1,5.722-7.876c1.6-1.963,3.285-3.876,5.036-5.72Z" transform="translate(-95.464 -150.455)" fill="#31c5fe" opacity="0.1"/>
    <path id="Path_412" data-name="Path 412" d="M80.95,247.09V275.2H61.4c0-.081.014-.164.019-.245.017-.222.035-.444.054-.665.021-.259.044-.52.07-.773s.052-.562.081-.842.056-.564.089-.844.062-.56.1-.839.066-.56.1-.839c.029-.232.06-.462.091-.694.044-.327.091-.655.141-.98a.9.9,0,0,1,.021-.145,66.842,66.842,0,0,1,1.44-7.057,52.19,52.19,0,0,1,2.425-7.15,53.672,53.672,0,0,1,3.648-7.026Z" transform="translate(-58.757 -210.672)" fill="#31c5fe" opacity="0.1"/>
    <path id="Path_413" data-name="Path 413" d="M186.8,123.975v26.732h37.4V123.975Zm0,27.557v22.956c.214.05.426.1.637.139.286.062.571.118.863.166.055.01.112.019.173.025.114.021.231.039.345.056.288.044.574.081.863.11.136.015.274.029.412.041l.333.029h0c.181.015.361.027.538.033.11,0,.221.012.335.015h1.23a4.229,4.229,0,0,0,.443-.015h.01a2.079,2.079,0,0,0,.309-.015.646.646,0,0,0,.086,0,1.6,1.6,0,0,0,.255-.014h.06l.578-.05c.19-.019.381-.044.574-.068l.393-.052a31.237,31.237,0,0,0,4.736-1.128c3.488-1.09,6.9-2.614,10.387-3.731,4.508-1.44,9.489-2.147,13.845-.386v-18.11Zm37.4-57.317V58.627a43.187,43.187,0,0,0-12.151,1.6c-9.47,2.665-17.966,8.444-25.246,15.826V94.213h1.877v.825H186.8V123.15h37.4V95.04H196.383v-.825Zm48.034-12.021a14.279,14.279,0,0,1-6.778-2.207c-4.028-2.454-7.246-6.243-10.841-9.441a46.931,46.931,0,0,0-26.238-11.677V94.215H281.76l.133-.157Zm4.863-.966,5.157,6.338v-8a18.808,18.808,0,0,0-5.15,1.654Zm5.157,98.961V151.532H271.264c-.029-.122-.059-.245-.093-.369.033.124.06.247.091.369H228.381v20.724c.407.338.809.694,1.208,1.055h0c.43.386.854.794,1.28,1.194l.43.4c.205.193.412.386.621.568q.621.564,1.254,1.113c.209.193.423.367.635.549a86.2,86.2,0,0,0,10.632,7.789q1.247.773,2.517,1.509c.564.323,1.132.643,1.7.955q1.284.7,2.588,1.353h0a87.473,87.473,0,0,0,25.188,8.218q2.9.479,5.816.754V180.187h.173ZM228.381,95.04v28.11h53.878V95.04Zm0,28.935v26.732h53.878V123.975Zm58.06-44.444v8.924l6.582-8.089a64.7,64.7,0,0,0-6.582-.844Zm0,44.454v26.722h52.4V123.975Zm52.211,58.326.185-30.778h-52.4v46.486a83.918,83.918,0,0,0,10.127-.135h.059q2.415-.17,4.808-.495h.036a81.155,81.155,0,0,0,24.7-7.383m22.772-61.628c-.2-.52-.4-1.036-.611-1.546-.39-.966-.8-1.905-1.227-2.844h-4.089v26.72h10.337a63.666,63.666,0,0,0-4.406-22.34Zm-5.926,23.165v26.473a37.949,37.949,0,0,0,7.144-10.792,40.843,40.843,0,0,0,3.185-15.685Zm0-35.346v6.956h3.706a77.771,77.771,0,0,0-3.7-6.966Zm-35.539-31.42c-.273-.116-.545-.234-.819-.348a68.923,68.923,0,0,0-8.852-2.98L287.739,93.828h0l-.193.23.129.158h35.846a74.226,74.226,0,0,0-16.034-9.451Zm17.09,10.274h-37.4l-.735.754V123.15h52.41V109.9A78.8,78.8,0,0,0,324.577,95.04Z" transform="translate(-159.925 -58.624)" fill="#31c5fe" opacity="0.1"/>
    <path id="Path_414" data-name="Path 414" d="M80.95,320.46v13.93H61.4c0-.081.014-.164.019-.245.017-.222.035-.444.054-.665.021-.259.044-.52.07-.773s.052-.562.081-.842.056-.564.089-.844.062-.56.1-.839.066-.56.1-.839c.029-.232.06-.462.091-.694.044-.327.091-.655.141-.98a.9.9,0,0,1,.021-.145,66.842,66.842,0,0,1,1.44-7.057Z" transform="translate(-58.757 -269.864)" fill="#31c5fe" opacity="0.1"/>
    <path id="Path_416" data-name="Path 416" d="M154.306,175.234v24.085H139.56V175.234h2.1V167.08h8.63v8.155Z" transform="translate(-112.685 -134.793)" fill="#31c5fe" opacity="0.1"/>
    <rect id="Rectangle_162" data-name="Rectangle 162" width="14.744" height="26.73" transform="translate(26.877 65.351)" fill="#31c5fe" opacity="0.1"/>
    <path id="Path_417" data-name="Path 417" d="M186.8,539.44h14.746v22.222a38.473,38.473,0,0,1-5.3,1.127l-.441.054c-.216.025-.431.046-.643.068s-.433.037-.647.05h-.068c-.093,0-.193.012-.284.013h-.1c-.116,0-.232.012-.348.015h0c-.164.01-.328.012-.5.014h-1.368l-.373-.014c-.193,0-.4-.021-.6-.035h0l-.371-.027-.462-.042c-.325-.029-.647-.066-.966-.11l-.386-.054-.193-.027c-.323-.05-.642-.1-.966-.166-.238-.041-.473-.091-.713-.139Z" transform="translate(-159.925 -446.53)" fill="#31c5fe" opacity="0.1"/>
    <rect id="Rectangle_163" data-name="Rectangle 163" width="12.158" height="26.927" transform="translate(109.551 37.597)" fill="#6c63ff" opacity="0.1"/>
    <path id="Path_418" data-name="Path 418" d="M440.929,338.19v26.732H380.58v-11.53h32.145v6.8h16.044v-22Z" transform="translate(-316.727 -272.839)" fill="#31c5fe" opacity="0.1"/>
    <path id="Path_419" data-name="Path 419" d="M488.36,566.56h-.193V584.1q-3.266-.276-6.512-.752a106.446,106.446,0,0,1-28.224-8.236q-3.89-1.751-7.621-3.822A97.244,97.244,0,0,1,433.9,563.5q-1.422-1.09-2.808-2.23c-.64-.528-1.275-1.069-1.919-1.594-.446-.361-.9-.717-1.353-1.057V537.9h48.028c-.033-.124-.066-.247-.1-.369.037.122.071.245.1.369h12.315v28.649C488.233,566.55,488.3,566.556,488.36,566.56Z" transform="translate(-363.979 -444.989)" fill="#31c5fe" opacity="0.1"/>
    <path id="Path_420" data-name="Path 420" d="M871.143,201.915H863.22v-2.462h3.552V192.12q.462.168.92.346v6.987h3.451Z" transform="translate(-720.973 -166.324)" fill="#31c5fe" opacity="0.1"/>
    <path id="Path_421" data-name="Path 421" d="M810.474,275.2H771.579l.014.01-.017-.01H764.36V248.271H766.4v19.9h9.343V256.387h7.718v-9.3h7.923v9.3h7.718v11.787h11.368Z" transform="translate(-645.88 -210.672)" fill="#31c5fe" opacity="0.1"/>
    <path id="Path_422" data-name="Path 422" d="M764.36,396.82v26.732h46.114V396.82Zm58.631,58.2.064-21.159H810.474v-9.469H764.36v46.473a105.257,105.257,0,0,0,11.343-.135h.066q2.705-.17,5.385-.495h.041a99.177,99.177,0,0,0,27.671-7.383" transform="translate(-645.88 -331.469)" fill="#31c5fe" opacity="0.1"/>
    <path id="Path_423" data-name="Path 423" d="M1093.182,539.44h10.757a37.218,37.218,0,0,1-3.569,15.683,37.936,37.936,0,0,1-8,10.792v-17h.812Z" transform="translate(-910.507 -446.53)" fill="#31c5fe" opacity="0.1"/>
    <path id="Path_424" data-name="Path 424" d="M1107.333,441.89H1096.57V419.55h5.824A57.834,57.834,0,0,1,1107.333,441.89Z" transform="translate(-913.896 -349.807)" fill="#31c5fe" opacity="0.1"/>
    <rect id="Rectangle_164" data-name="Rectangle 164" width="6.514" height="8.442" transform="translate(114.981 45.083)" fill="#6c63ff" opacity="0.1"/>
    <rect id="Rectangle_165" data-name="Rectangle 165" width="6.514" height="1.944" transform="translate(114.981 62.582)" fill="#31c5fe" opacity="0.2"/>
    <rect id="Rectangle_166" data-name="Rectangle 166" width="6.514" height="5.671" transform="translate(114.981 65.351)" fill="#31c5fe" opacity="0.2"/>
    <rect id="Rectangle_167" data-name="Rectangle 167" width="6.514" height="8.442" transform="translate(114.981 80.082)" fill="#31c5fe" opacity="0.2"/>
    <rect id="Rectangle_168" data-name="Rectangle 168" width="6.514" height="8.442" transform="translate(114.981 97.581)" fill="#31c5fe" opacity="0.2"/>
    <path id="Path_425" data-name="Path 425" d="M712.932,660.649a1.07,1.07,0,0,1,.193.012h-.193v1.961H706.42V654.17h6.512Z" transform="translate(-591.45 -539.09)" fill="#31c5fe" opacity="0.2"/>
    <path id="Path_426" data-name="Path 426" d="M712.932,744.71v6.522q-3.266-.276-6.512-.752v-5.77Z" transform="translate(-591.439 -612.134)" fill="#31c5fe" opacity="0.2"/>
    <rect id="Rectangle_169" data-name="Rectangle 169" width="27.917" height="0.62" transform="translate(65.53 91.463)" fill="#31c5fe" opacity="0.2"/>
    <rect id="Rectangle_170" data-name="Rectangle 170" width="27.917" height="2.377" transform="translate(65.53 92.908)" fill="#31c5fe" opacity="0.2"/>
    <rect id="Rectangle_171" data-name="Rectangle 171" width="27.917" height="3.822" transform="translate(65.53 103.076)" fill="#31c5fe" opacity="0.2"/>
    <path id="Path_427" data-name="Path 427" d="M461.374,652.15v3.822H439.538q-1.422-1.086-2.81-2.23c-.64-.528-1.273-1.069-1.919-1.592Z" transform="translate(-368.016 -537.46)" fill="#31c5fe" opacity="0.2"/>
    <path id="Path_428" data-name="Path 428" d="M530.845,712.216v3.818h-2.305q-3.886-1.753-7.619-3.824Z" transform="translate(-438.467 -585.915)" fill="#31c5fe" opacity="0.2"/>
    <rect id="Rectangle_172" data-name="Rectangle 172" width="5.496" height="5.496" transform="translate(135.414 67.943)" fill="#31c5fe" opacity="0.2"/>
    <rect id="Rectangle_173" data-name="Rectangle 173" width="5.496" height="5.496" transform="translate(30.834 42.337)" fill="#31c5fe" opacity="0.2"/>
    <rect id="Rectangle_174" data-name="Rectangle 174" width="5.496" height="5.496" transform="translate(30.834 55.102)" fill="#31c5fe" opacity="0.2"/>
    <rect id="Rectangle_175" data-name="Rectangle 175" width="5.496" height="5.496" transform="translate(30.834 67.867)" fill="#31c5fe" opacity="0.2"/>
    <rect id="Rectangle_176" data-name="Rectangle 176" width="5.496" height="5.496" transform="translate(30.834 80.63)" fill="#31c5fe" opacity="0.2"/>
    <rect id="Rectangle_177" data-name="Rectangle 177" width="5.496" height="5.496" transform="translate(30.834 93.395)" fill="#6c63ff" opacity="0.1"/>
    <rect id="Rectangle_178" data-name="Rectangle 178" width="5.496" height="5.496" transform="translate(30.834 106.16)" fill="#6c63ff" opacity="0.1"/>
    <rect id="Rectangle_179" data-name="Rectangle 179" width="5.496" height="5.496" transform="translate(150.804 67.943)" fill="#6c63ff" opacity="0.1"/>
    <rect id="Rectangle_180" data-name="Rectangle 180" width="5.496" height="5.496" transform="translate(135.414 81.498)" fill="#31c5fe" opacity="0.2"/>
    <rect id="Rectangle_181" data-name="Rectangle 181" width="5.496" height="5.496" transform="translate(150.804 81.498)" fill="#6c63ff" opacity="0.1"/>
    <rect id="Rectangle_182" data-name="Rectangle 182" width="5.496" height="5.496" transform="translate(135.414 95.051)" fill="#31c5fe" opacity="0.2"/>
    <rect id="Rectangle_183" data-name="Rectangle 183" width="5.496" height="5.496" transform="translate(150.804 95.051)" fill="#6c63ff" opacity="0.1"/>
    <rect id="Rectangle_184" data-name="Rectangle 184" width="5.496" height="5.496" transform="translate(135.414 108.607)" fill="#31c5fe" opacity="0.2"/>
    <rect id="Rectangle_185" data-name="Rectangle 185" width="5.496" height="5.496" transform="translate(150.804 108.607)" fill="#6c63ff" opacity="0.1"/>
    <rect id="Rectangle_186" data-name="Rectangle 186" width="5.496" height="5.496" transform="translate(135.414 122.162)" fill="#31c5fe" opacity="0.2"/>
    <rect id="Rectangle_187" data-name="Rectangle 187" width="5.496" height="5.496" transform="translate(150.804 122.162)" fill="#31c5fe" opacity="0.2"/>
    <path id="Path_429" data-name="Path 429" d="M775.83,705.874V702.33h5.494v3.04Z" transform="translate(-640.416 -566.614)" fill="#31c5fe" opacity="0.2"/>
    <path id="Path_430" data-name="Path 430" d="M65.24,357v3.144H84.048V357Zm1.874,2.947H65.58v-2.754h1.546Zm1.872,0H67.441v-2.754h1.546Zm1.869,0H69.31v-2.754h1.546Zm1.872,0H71.184v-2.754H72.73Zm1.871,0H73.052v-2.754H74.6Zm1.872,0H74.925v-2.754h1.546Zm1.872,0H76.8v-2.754h1.546Zm1.871,0H78.668v-2.754h1.546Zm1.871,0H80.538v-2.754h1.546Zm1.871,0H82.409v-2.754h1.546Z" transform="translate(-61.855 -299.343)" fill="#31c5fe" opacity="0.2"/>
    <path id="Path_431" data-name="Path 431" d="M65.24,404.34v3.144H84.048V404.34Zm1.874,2.945H65.58v-2.746h1.546Zm1.872,0H67.441v-2.746h1.546Zm1.869,0H69.31v-2.746h1.546Zm1.872,0H71.184v-2.746H72.73Zm1.871,0H73.052v-2.746H74.6Zm1.872,0H74.925v-2.746h1.546Zm1.872,0H76.8v-2.746h1.546Zm1.871,0H78.668v-2.746h1.546Zm1.871,0H80.538v-2.746h1.546Zm1.871,0H82.409v-2.746h1.546Z" transform="translate(-61.855 -337.536)" fill="#31c5fe" opacity="0.2"/>
    <path id="Path_432" data-name="Path 432" d="M65.24,451.7v3.15H84.048V451.7Zm1.874,2.945H65.58V451.9h1.546Zm1.872,0H67.441V451.9h1.546Zm1.869,0H69.31V451.9h1.546Zm1.872,0H71.184V451.9H72.73Zm1.871,0H73.052V451.9H74.6Zm1.872,0H74.925V451.9h1.546Zm1.872,0H76.8V451.9h1.546Zm1.871,0H78.668V451.9h1.546Zm1.871,0H80.538V451.9h1.546Zm1.871,0H82.409V451.9h1.546Z" transform="translate(-61.855 -375.744)" fill="#31c5fe" opacity="0.2"/>
    <path id="Path_433" data-name="Path 433" d="M65.24,499.06v3.14H84.048v-3.14ZM67.114,502H65.58v-2.75h1.546Zm1.872,0H67.441v-2.75h1.546Zm1.869,0H69.31v-2.75h1.546Zm1.872,0H71.184v-2.75H72.73Zm1.871,0H73.052v-2.75H74.6Zm1.872,0H74.925v-2.75h1.546Zm1.872,0H76.8v-2.75h1.546Zm1.871,0H78.668v-2.75h1.546Zm1.871,0H80.538v-2.75h1.546Zm1.871,0H82.409v-2.75h1.546Z" transform="translate(-61.855 -413.952)" fill="#31c5fe" opacity="0.2"/>
    <path id="Path_434" data-name="Path 434" d="M65.66,546.41c.075.3.16.591.249.883v-.686h1.546v2.748h-.827c.025.064.05.133.075.193H84.386V546.41Zm3.671,2.945H67.786v-2.748h1.546Zm1.869,0H69.654v-2.748H71.2Zm1.872,0h-1.55v-2.748h1.546Zm1.871,0H73.4v-2.748h1.546Zm1.872,0H75.27v-2.748h1.546Zm1.872,0H77.142v-2.748h1.546Zm1.871,0H79.013v-2.748h1.546Zm1.871,0H80.883v-2.748h1.546Zm1.871,0H82.754v-2.748H84.3Z" transform="translate(-62.193 -452.153)" fill="#6c63ff" opacity="0.1"/>
    <path id="Path_435" data-name="Path 435" d="M88.26,593.77c.048.062.095.131.145.193h1.022v1.32c.11.131.218.263.33.386v-1.714H91.3v2.757h-.626c.062.064.122.131.193.193h11.754V593.77Zm4.91,2.943H91.624v-2.746H93.17Zm1.872,0H93.5v-2.746h1.546Zm1.872,0H95.369v-2.746h1.546Zm1.871,0H97.24v-2.746h1.546Zm1.871,0H99.11v-2.746h1.546Zm1.871,0h-1.546v-2.746h1.546Z" transform="translate(-80.426 -490.361)" fill="#6c63ff" opacity="0.1"/>
    <path id="Path_436" data-name="Path 436" d="M141.65,641.12c.176.1.356.193.537.294v-.1h1.546v.87l.328.153v-1.022h1.546v1.671a.48.48,0,0,0,.093.035v-1.9Z" transform="translate(-123.499 -528.562)" fill="#6c63ff" opacity="0.1"/>
    <path id="Path_437" data-name="Path 437" d="M314.434,271.721Zm-11.9,57.031Zm-12.419-29.018c.037.124.068.247.1.369h0C290.183,299.981,290.15,299.858,290.111,299.734Zm24.322-28.019ZM197.72,242.78v.825h8.632v-.825Zm104.81,85.972Zm-12.419-29.018c.037.124.068.247.1.369h0C290.183,299.981,290.15,299.858,290.111,299.734Zm24.322-28.019Zm-11.9,57.031Zm-12.419-29.012c.037.124.068.247.1.369h0C290.183,299.981,290.15,299.858,290.111,299.734Z" transform="translate(-168.735 -207.195)" fill="#31c5fe" opacity="0.2"/>
    <path id="Path_438" data-name="Path 438" d="M336.821,260.7s-.761-.106-.761-1.215a17.375,17.375,0,0,0-.545-3.181h0c0-.01-.471-3.608-1.123-4.18s-1.488-3.93-1.488-3.93a7.924,7.924,0,0,0-.435-2.214,18.813,18.813,0,0,1-1.268-2.723c-.582-1.37-3.007-2.319-3.007-2.319s-4.384-2.543-5.627-3.372h0a1.905,1.905,0,0,1-.315-.238c-.216-.284-1.159-.29-1.159-.29a19,19,0,0,1-.224-1.985,1.507,1.507,0,0,0-.01-.209,6.686,6.686,0,0,0,2.939-3.637c.023-.073.043-.151.064-.224a.628.628,0,0,0,.377-.34,7.087,7.087,0,0,1,.253-.773,2.911,2.911,0,0,1,.715-.628,2.705,2.705,0,0,0,.744-2.2c-.019-.647-.124-1.3-.083-1.944l.012-.162c.012-.1.025-.193.042-.286.095-.479.3-.931.417-1.407a1.81,1.81,0,0,0-.143-1.42,2.468,2.468,0,0,0-1.946-.783c-.821-.07-1.556.021-2.081-.661a7.418,7.418,0,0,0-.827-1c-.108-.1-1.159-.742-1.159-.785a4.7,4.7,0,0,0-3.275-.251c-.545.158-1.059.417-1.612.547-1.192.282-2.564-.023-3.577.659a4.2,4.2,0,0,0-1.219,1.6q-.386.74-.785,1.478a9.577,9.577,0,0,0-1.042,2.529,4.015,4.015,0,0,0-.07.591h0v.315a1.042,1.042,0,0,0,.012.193c.012.06.01.079.015.12s.015.131.027.193.035.17.058.255c.01.037.023.071.035.106.019.066.043.129.068.193.014.033.027.068.043.1a1.81,1.81,0,0,0,.1.193c.015.027.027.052.042.077a2.567,2.567,0,0,0,.178.259c.414.516,1.022.844,1.472,1.328v.216a6.615,6.615,0,0,0,3.011,5.4c0,.073.01.149.014.222a11.061,11.061,0,0,1-.021,1.722.812.812,0,0,0-.642-.286.925.925,0,0,0-.247.021l-.017-.014h0v.017c-.425.1-.949.547-1.449,1.8,0,0-1.523,1.716-2.682,1.644s-4.095,1.785-4.095,1.785-2.864,1.859-3.478,3.753a26.444,26.444,0,0,1-1.233,3.146l-3.54,7.295h0l-.653,5.787a26.853,26.853,0,0,1,.29,2.966,28.558,28.558,0,0,0,1.486,3.93s5.146,9.041,7.248,9.505l.151-.106a1.231,1.231,0,0,0,.284.106l.433-.305a4.717,4.717,0,0,1-.033,1.02,26.886,26.886,0,0,0,.615,7.861c.506,1.142.327,16.116.327,16.116l-.071,1.322a.56.56,0,0,0,.017.116l-.017.313.052.027a3.722,3.722,0,0,1-.052,1.258,13.988,13.988,0,0,0-.255,2.218s-1.447,9.252-.761,11.111,1.27,3.9,1.27,3.9.725,2.319.035,2.715-2.651,1.061-2.247,2.027c.367.893,1.76,3.285,1.967,3.635l-.017.184-.284,3.078a3.864,3.864,0,0,0,.327,1.175,2.024,2.024,0,0,0,2.066,1.291c.193-.014.417-.037.634-.066a27.386,27.386,0,0,0,4.7-1.221,1.915,1.915,0,0,1-.367-.3h0a1.061,1.061,0,0,1-.323-.773,22.631,22.631,0,0,0-1.279-3.888c-.041-.095-.062-.149-.062-.149s2.392-2.5,1.994-4.717c0,0-2.647-1.546-1.776-2.394a27,27,0,0,0,2.429-3.285s.072-9.111,0-10.471a11.267,11.267,0,0,1,.133-2.827c.029-.141.064-.278.1-.414a25.23,25.23,0,0,0,3.641.276c.444,0,.9,0,1.353-.027q0,.193.017.417c.1,2.257.288,6.214.441,7.685.216,2.108,1.413,7.789,1.413,7.789s-2.282,1.465.4,5.074a4.893,4.893,0,0,1-.178,1.5h0a16.385,16.385,0,0,0-.458,1.886,3.325,3.325,0,0,0,.023,1.726c.435.854,3.043.785,3.043.785h0l.064-.012a3.739,3.739,0,0,1,2.761.833c.991.8,4.754.446,6.79.193.8-.1,1.331-.193,1.331-.193a.773.773,0,0,0,.027-.278h0c-.021-.5-.414-1.6-3.072-2.578,0,0-2.5-1.681-2.466-3.146h-.342a2.725,2.725,0,0,1,.346,0s-.98-3.575-.58-3.865-.8-4.251-.8-4.251-.686-6.647-.723-7.113a4.059,4.059,0,0,1,.18-1.179l-.18-3.644s-.035-1.212,0-1.606a8.016,8.016,0,0,0-.083-1.022c-.017-.135-.035-.276-.054-.415.937-.238,1.546-.458,1.546-.458l-.108-12.686c.8-1.546.943-4.937.939-7.343,0-1.546-.07-2.69-.07-2.69l1.088-1.776s.251-2.126-.147-2.591a.446.446,0,0,1,.048-.609,2.021,2.021,0,0,1,.238-.162s-.012-.017-.025-.043a1.919,1.919,0,0,1,.242-.172s-.386-.6-.041-.852c.325.22.615.386.835.522-.015.141-.031.222-.031.222l.093-.193.342.193a25.827,25.827,0,0,0,1.668-3.9,11.361,11.361,0,0,1,1.159-2.609,2.61,2.61,0,0,1,.8-1.571c.653-.464.506-3.824.506-3.824a8.238,8.238,0,0,1,.616-2.466C337.652,261.662,336.821,260.7,336.821,260.7Zm-32.61-1.49.033.81-.332-.535Z" transform="translate(-253.297 -187.331)" fill="url(#linear-gradient)"/>
    <path id="Path_439" data-name="Path 439" d="M468.02,492.5l-.417,1.778s-3.343-1.706-3.946-3.874a2.452,2.452,0,0,1,1.009-2.991l3.115,1.32Z" transform="translate(-390.865 -404.554)" fill="#fff"/>
    <path id="Path_440" data-name="Path 440" d="M468.02,492.5l-.417,1.778s-3.343-1.706-3.946-3.874a2.452,2.452,0,0,1,1.009-2.991l3.115,1.32Z" transform="translate(-390.865 -404.554)" opacity="0.1"/>
    <path id="Path_441" data-name="Path 441" d="M358.133,797.459a24.023,24.023,0,0,1-5.217,1.279,1.985,1.985,0,0,1-2.027-1.283,3.884,3.884,0,0,1-.319-1.169l.276-3.063.147-1.631,4.516-1.173.64,1.956.06.149a22.641,22.641,0,0,1,1.256,3.865,1.055,1.055,0,0,0,.317.763A1.838,1.838,0,0,0,358.133,797.459Z" transform="translate(-297.734 -649.012)" fill="#fff"/>
    <path id="Path_442" data-name="Path 442" d="M441.054,795.055a.773.773,0,0,1-.027.276s-6.612,1.1-7.965,0a3.583,3.583,0,0,0-2.783-.815s-2.558.07-2.986-.773a3.354,3.354,0,0,1-.021-1.716,16.346,16.346,0,0,1,.448-1.876l.1-.081.609-.489,7.126-.211h.054c-.035,1.457,2.419,3.128,2.419,3.128C440.639,793.465,441.023,794.556,441.054,795.055Z" transform="translate(-361.2 -648.164)" fill="#fff"/>
    <path id="Path_443" data-name="Path 443" d="M441.059,806.148a.788.788,0,0,1-.029.276s-6.611,1.1-7.963,0a3.583,3.583,0,0,0-2.781-.815s-2.56.07-2.985-.773a3.352,3.352,0,0,1-.023-1.716,6.372,6.372,0,0,1,3.152.93,7,7,0,0,0,3.449,1.849C434.63,805.947,439.126,806.09,441.059,806.148Z" transform="translate(-361.204 -659.258)" opacity="0.1"/>
    <path id="Path_444" data-name="Path 444" d="M359.472,825.608a24.024,24.024,0,0,1-5.217,1.279,1.98,1.98,0,0,1-2.025-1.285,4.2,4.2,0,0,0,2.452.288,21.868,21.868,0,0,1,4.444-.58A1.906,1.906,0,0,0,359.472,825.608Z" transform="translate(-299.096 -677.16)" opacity="0.1"/>
    <path id="Path_445" data-name="Path 445" d="M391.988,304.594c-2.551-.991-5.832-4.267-5.013-5.8a3.424,3.424,0,0,0,.319-1.229,11.221,11.221,0,0,0,.023-1.739,23.813,23.813,0,0,0-.342-2.829s7.963.18,7.5,1.353a4.386,4.386,0,0,0-.12,1.61c.037.669.133,1.424.234,2.064.139.877.278,1.546.278,1.546s-.487.682-.773.719S395.648,306.007,391.988,304.594Z" transform="translate(-327.696 -247.71)" fill="#cf6f80"/>
    <path id="Path_446" data-name="Path 446" d="M357.332,792.524l-.06.066c-2.381-2.879-5.26.709-5.26.709l-.043-.075.147-1.631,4.516-1.173.64,1.956Z" transform="translate(-298.829 -649.012)" opacity="0.1"/>
    <path id="Path_447" data-name="Path 447" d="M437.909,789.541a4.573,4.573,0,0,0-2.667.783c-.928.819-5.411.178-5.217,0a.636.636,0,0,0,.1-.294l.609-.489,7.126-.211C437.887,789.459,437.909,789.541,437.909,789.541Z" transform="translate(-363.333 -648.132)" opacity="0.1"/>
    <path id="Path_448" data-name="Path 448" d="M352.083,657.476a5.378,5.378,0,0,0-.294.991,11.346,11.346,0,0,0-.133,2.814c.072,1.353,0,10.417,0,10.417a27.732,27.732,0,0,1-2.381,3.27c-.852.852,1.739,2.383,1.739,2.383.386,2.2-1.956,4.692-1.956,4.692-2.381-2.879-5.26.711-5.26.711s-1.565-2.705-1.956-3.671,1.528-1.635,2.2-2.027-.033-2.705-.033-2.705-.57-2.027-1.246-3.876.746-11.055.746-11.055a14.266,14.266,0,0,1,.249-2.2,3.687,3.687,0,0,0,.052-1.252c-.012-.141-.025-.259-.035-.338s-.017-.116-.017-.116l.027-.046.966-1.8S352.547,656.342,352.083,657.476Z" transform="translate(-290.562 -538.678)" fill="#31c5fe"/>
    <path id="Path_449" data-name="Path 449" d="M429.189,687.764a4.614,4.614,0,0,0-2.667.773c-.928.81-5.411.178-5.217,0s.178-1.494.178-1.494c-2.63-3.59-.386-5.047-.386-5.047s-1.175-5.652-1.387-7.749c-.149-1.465-.332-5.4-.431-7.648-.043-.966-.068-1.631-.068-1.631l2.149-.433.276-.056,5.183-1.04s.143.966.24,1.756a8.214,8.214,0,0,1,.081,1.018c-.035.386,0,1.6,0,1.6l.176,3.627a4.12,4.12,0,0,0-.176,1.173c.035.462.709,7.074.709,7.074s1.173,3.946.773,4.23S429.189,687.764,429.189,687.764Z" transform="translate(-354.482 -546.569)" fill="#31c5fe"/>
    <path id="Path_450" data-name="Path 450" d="M395.009,294.353a4.385,4.385,0,0,0-.12,1.61,6.618,6.618,0,0,1-7.038-.131A23.813,23.813,0,0,0,387.51,293S395.473,293.176,395.009,294.353Z" transform="translate(-328.228 -247.71)" opacity="0.1"/>
    <path id="Path_451" data-name="Path 451" d="M387.051,250.292a6.545,6.545,0,0,1-.325,2.05,6.612,6.612,0,0,1-12.9-1.892v-.158a6.612,6.612,0,1,1,13.224,0Z" transform="translate(-317.109 -207.921)" fill="#cf6f80"/>
    <path id="Path_452" data-name="Path 452" d="M391.988,323.666c-2.551-.991-5.832-4.267-5.013-5.8a3.424,3.424,0,0,0,.319-1.229l3.492,2.87,2.16,1.772,1.642-4.182c.139.877.278,1.546.278,1.546s-.487.682-.773.719S395.648,325.079,391.988,323.666Z" transform="translate(-327.696 -266.782)" opacity="0.1"/>
    <path id="Path_453" data-name="Path 453" d="M343.776,276.435,340.86,325.42l-3.8.249-9.847-28.4,1.615-33.721.34-7.125,4.379,3.6,2.162,1.772,1.691-4.3,3.144,2.74Z" transform="translate(-270.488 -206.87)" fill="#31c5fe"/>
    <path id="Path_454" data-name="Path 454" d="M360.319,657.541a5.38,5.38,0,0,0-.294.991,28.016,28.016,0,0,1-7.973-2.491l-.052-.027.017-.311.01-.162.966-1.8S360.783,656.407,360.319,657.541Z" transform="translate(-298.936 -538.743)" opacity="0.1"/>
    <path id="Path_455" data-name="Path 455" d="M421.355,670.98a19.553,19.553,0,0,1-2.137.243c-.043-.966-.068-1.631-.068-1.631l2.149-.433Z" transform="translate(-354.173 -551.183)" opacity="0.1"/>
    <path id="Path_456" data-name="Path 456" d="M437.122,665.246a15,15,0,0,1-5.4.508l-.027-1.225,5.183-1.04S437.026,664.447,437.122,665.246Z" transform="translate(-364.636 -546.609)" opacity="0.1"/>
    <path id="Path_457" data-name="Path 457" d="M327.055,384.832c-7.923,1.353-15.179-2.526-15.179-2.526l.07-1.314s.18-14.9-.319-16.038a27.156,27.156,0,0,1-.6-7.822c.282-.889-1.03-14.218-1.03-14.218l-.213-5.411L302,334.352l3.478-7.25a26.166,26.166,0,0,0,1.21-3.13c.6-1.882,3.413-3.731,3.413-3.731s2.879-1.847,4.017-1.778,2.63-1.635,2.63-1.635c1.1-2.808,2.1-1.536,2.1-1.536a2.508,2.508,0,0,1-.054.415c-.386,3.082,6.249,12.821,6.344,12.993h0l.632,15.393.64,19.48Z" transform="translate(-258.081 -265.462)" opacity="0.1"/>
    <path id="Path_458" data-name="Path 458" d="M325.931,384.784c-7.923,1.353-15.18-2.526-15.18-2.526l.071-1.314s.18-14.9-.321-16.038a27.017,27.017,0,0,1-.6-7.822c.284-.889-1.03-14.218-1.03-14.218l-.215-5.411-7.783-3.163,3.478-7.25a26.567,26.567,0,0,0,1.21-3.13c.6-1.882,3.413-3.731,3.413-3.731s2.879-1.847,4.015-1.778,2.63-1.635,2.63-1.635c1.1-2.808,2.319-1.536,2.319-1.536,0,.133-.116.193-.054.415.85,2.989,6.037,12.821,6.131,12.993h0l.64,15.393.64,19.48Z" transform="translate(-257.146 -265.414)" fill="#fff"/>
    <path id="Path_459" data-name="Path 459" d="M389.038,330.947c-.852-.356-5.366-5.509-5.366-5.509v-1.173c-.164-.386-1.14-.151-1.932.12l.34-7.125.386.321C383.313,320.568,388.94,330.775,389.038,330.947Z" transform="translate(-323.458 -267.283)" opacity="0.1"/>
    <path id="Path_460" data-name="Path 460" d="M390.14,328.737c-.854-.356-5.368-5.509-5.368-5.509v-1.173c-.164-.386-1.14-.151-1.932.12l.342-7.125.386.321C384.417,318.358,390.046,328.567,390.14,328.737Z" transform="translate(-324.366 -265.5)" fill="#fff"/>
    <path id="Path_461" data-name="Path 461" d="M351.295,516.518c.106,0,5.509-.568,5.509-.568s3.271,6.433,3.057,8-.6,2.951-1.919,2.705a58.406,58.406,0,0,0-7.082.193Z" transform="translate(-298.014 -427.579)" opacity="0.1"/>
    <path id="Path_462" data-name="Path 462" d="M350.185,514.308c.106,0,5.509-.568,5.509-.568s3.27,6.435,3.057,8-.6,2.951-1.919,2.705a58.433,58.433,0,0,0-7.082.193Z" transform="translate(-297.097 -425.796)" fill="#fff"/>
    <path id="Path_463" data-name="Path 463" d="M360.735,501.05s4.958,2.665,5.065,3.478-2.524-.356-3.092-.5a7.073,7.073,0,0,0-1.138-.178l-3.789.1Z" transform="translate(-303.699 -415.558)" fill="#cf6f80"/>
    <circle id="Ellipse_63" data-name="Ellipse 63" cx="0.522" cy="0.522" r="0.522" transform="translate(63.352 62.953)" opacity="0.1"/>
    <circle id="Ellipse_64" data-name="Ellipse 64" cx="0.522" cy="0.522" r="0.522" transform="translate(63.352 62.741)" fill="#3f3d56"/>
    <circle id="Ellipse_65" data-name="Ellipse 65" cx="0.522" cy="0.522" r="0.522" transform="translate(64.222 85.538)" opacity="0.1"/>
    <circle id="Ellipse_66" data-name="Ellipse 66" cx="0.522" cy="0.522" r="0.522" transform="translate(64.222 85.324)" fill="#3f3d56"/>
    <circle id="Ellipse_67" data-name="Ellipse 67" cx="0.522" cy="0.522" r="0.522" transform="translate(63.823 74.246)" opacity="0.1"/>
    <circle id="Ellipse_68" data-name="Ellipse 68" cx="0.522" cy="0.522" r="0.522" transform="translate(63.823 74.033)" fill="#3f3d56"/>
    <path id="Path_464" data-name="Path 464" d="M436.635,356.76s.356.533,0,.783.035.852.035.852-.887.52-.5.987.143,2.58.143,2.58l-1.067,1.766s.064,1.138.068,2.676c0,2.4-.141,5.774-.922,7.312l.108,12.62a17.178,17.178,0,0,1-6.862.949l-.464-20.251s.676-11.484.926-13.687a22.933,22.933,0,0,0,.178-3.449,38.536,38.536,0,0,0-.464-5.047s-.386-6.931-.425-8.85c-.017-.918.031-3.6.085-6.143.06-2.785.128-5.411.128-5.411l-.705-5.581s.705-.072.918.213a2.03,2.03,0,0,0,.309.238h0c1.217.823,5.519,3.355,5.519,3.355s2.381.947,2.951,2.3a20.065,20.065,0,0,0,1.242,2.705,8.351,8.351,0,0,1,.427,2.2s.819,3.343,1.459,3.909,1.107,4.168,1.107,4.168L435.18,342.4s-.5,7.393-.6,7.679S436.635,356.76,436.635,356.76Z" transform="translate(-360.975 -268.572)" fill="#fff"/>
    <path id="Path_465" data-name="Path 465" d="M436.793,356.5s.354.533,0,.783.033.852.033.852-.881.526-.495.993.143,2.58.143,2.58l-1.067,1.766s.064,1.138.07,2.676c0,2.4-.141,5.774-.922,7.312l.106,12.62a17.206,17.206,0,0,1-6.864.949l-.462-20.251s.676-11.484.926-13.687a22.717,22.717,0,0,0,.176-3.449,38.774,38.774,0,0,0-.462-5.047s-.386-6.931-.427-8.85c-.017-.918.033-3.6.085-6.143.06-2.785.128-5.411.128-5.411l-.931-5.656s.931,0,1.146.288a1.835,1.835,0,0,0,.309.238h0c1.217.823,5.521,3.355,5.521,3.355s2.379.947,2.949,2.3A19.756,19.756,0,0,0,438,327.429a8.254,8.254,0,0,1,.425,2.2s.819,3.343,1.459,3.909,1.1,4.16,1.1,4.16l-5.652,4.444s-.5,7.393-.6,7.679S436.793,356.5,436.793,356.5Z" transform="translate(-360.925 -268.315)" fill="#fff"/>
    <path id="Path_466" data-name="Path 466" d="M430.92,327.6l.51,1.488-2.686,2.705c.06-2.783.128-5.411.128-5.411l-.931-5.656s.931,0,1.146.288a1.764,1.764,0,0,0,.309.236h0l2.284,6.589Z" transform="translate(-361.476 -270.082)" opacity="0.1"/>
    <path id="Path_467" data-name="Path 467" d="M429.81,325.393l.512,1.488-2.686,2.705c.06-2.785.128-5.411.128-5.411l-.933-5.656s.933,0,1.146.288a1.933,1.933,0,0,0,.309.238h0l2.286,6.587Z" transform="translate(-360.56 -268.299)" fill="#fff"/>
    <path id="Path_468" data-name="Path 468" d="M387.051,250.292a6.545,6.545,0,0,1-.325,2.05.276.276,0,0,1-.209-.052,8.53,8.53,0,0,0-1.959-4.761,5,5,0,0,0-1.063-1.1,2.079,2.079,0,0,0-1.442-.408c-.58.079-1.092.473-1.677.524-.773.064-1.465-.471-2.232-.5a2.193,2.193,0,0,0-1.641.761,4.5,4.5,0,0,0-.879,1.631,9.542,9.542,0,0,0-.491,2.813c-.01.541-.062,1.219-.564,1.416a2.887,2.887,0,0,0-.729-2.2l-.012-.012v-.158a6.612,6.612,0,1,1,13.224,0Z" transform="translate(-317.109 -207.921)" opacity="0.1"/>
    <path id="Path_469" data-name="Path 469" d="M374.747,221.762a4.553,4.553,0,0,0-3.212-.251c-.535.158-1.04.415-1.583.545-1.159.28-2.512-.023-3.507.655a4.194,4.194,0,0,0-1.194,1.59l-.773,1.472a9.554,9.554,0,0,0-1.022,2.512,3.207,3.207,0,0,0,.493,2.593c.41.52,1.014.846,1.459,1.335a2.9,2.9,0,0,1,.727,2.2c.5-.193.553-.873.564-1.414a9.543,9.543,0,0,1,.491-2.813,4.485,4.485,0,0,1,.879-1.631,2.2,2.2,0,0,1,1.641-.761c.773.027,1.467.56,2.232.5.58-.048,1.094-.444,1.677-.522a2.071,2.071,0,0,1,1.442.408,4.95,4.95,0,0,1,1.061,1.1,8.508,8.508,0,0,1,1.961,4.761c.218.16.533-.048.642-.3a7.063,7.063,0,0,1,.249-.773,2.851,2.851,0,0,1,.7-.622,2.735,2.735,0,0,0,.73-2.189,10.906,10.906,0,0,1-.027-2.381c.091-.479.3-.928.408-1.4a1.832,1.832,0,0,0-.139-1.413,2.379,2.379,0,0,0-1.909-.773c-.806-.07-1.527.019-2.041-.659a7.4,7.4,0,0,0-.812-.993C375.781,222.442,374.747,221.8,374.747,221.762Z" transform="translate(-308.608 -189.889)" fill="#512e4e"/>
    <path id="Path_470" data-name="Path 470" d="M302.419,418.863,300.4,415.13l-.64,5.76a26.7,26.7,0,0,1,.284,2.951,28.369,28.369,0,0,0,1.457,3.909s5.049,8.993,7.111,9.457l6.966-4.978-1.847-2.346s-.64-.249-.8,0c0,0-3.43-5.9-3.785-6.328a2.132,2.132,0,0,1-.286-1.279s-.533-.568-.356-1.1-1.03-2.383-1.03-2.383l1.1-1.03Z" transform="translate(-255.986 -346.241)" opacity="0.1"/>
    <path id="Path_471" data-name="Path 471" d="M298.723,412.93l-.533.425-.64,5.76a26.7,26.7,0,0,1,.284,2.951,28.358,28.358,0,0,0,1.459,3.909s5.047,8.993,7.109,9.457l6.968-4.978-1.849-2.346s-.64-.249-.8,0c0,0-3.43-5.9-3.785-6.328a2.125,2.125,0,0,1-.284-1.279s-.533-.568-.356-1.1-1.032-2.383-1.032-2.383l1.1-1.03Z" transform="translate(-254.16 -344.466)" fill="#fff"/>
    <path id="Path_472" data-name="Path 472" d="M458.059,515.342c.386.47.143,2.578.143,2.578l-1.067,1.766s.064,1.14.068,2.676l-1.793.56a1.065,1.065,0,0,1-1.382-1.049l.309-9.973,4.184,1.6c-.356.247.035.854.035.854S457.668,514.872,458.059,515.342Z" transform="translate(-383.031 -424.311)" opacity="0.1"/>
    <path id="Path_473" data-name="Path 473" d="M459.161,514.24c.386.47.143,2.58.143,2.58l-1.067,1.766s.064,1.138.07,2.676l-1.826.57a1.043,1.043,0,0,1-1.353-1.028l.311-10,4.185,1.6c-.357.247.033.852.033.852S458.774,513.772,459.161,514.24Z" transform="translate(-383.939 -423.424)" fill="#fff"/>
    <path id="Path_474" data-name="Path 474" d="M469.2,497.5s-.284,1.814-1,1.921-1.03,2.935-1.739,2.835-.24-2.63-.214-3.121-.773-2.524-.176-2.985,2.487,0,2.487,0Z" transform="translate(-392.745 -411.442)" fill="#cf6f80"/>
    <path id="Path_475" data-name="Path 475" d="M467.664,420.4,469,417.69a17.564,17.564,0,0,1,.533,3.163c0,1.1.746,1.21.746,1.21s.817.966.386,1.67a8.1,8.1,0,0,0-.6,2.454s.141,3.341-.5,3.8a2.588,2.588,0,0,0-.773,1.565,11.336,11.336,0,0,0-1.138,2.6,25.773,25.773,0,0,1-1.635,3.874s.817-4.2-3.946-6.008c0,0-.037-1.424.319-1.814s.91-.568.562-2.541a23.045,23.045,0,0,1-.1-4.8,30.252,30.252,0,0,1,1.067-3.426Z" transform="translate(-389.829 -348.306)" opacity="0.1"/>
    <path id="Path_476" data-name="Path 476" d="M469.93,415.69l1.171.386a17.506,17.506,0,0,1,.535,3.163c0,1.1.746,1.21.746,1.21s.817.966.386,1.67a8.083,8.083,0,0,0-.6,2.454s.141,3.341-.5,3.8a2.623,2.623,0,0,0-.783,1.565,11.341,11.341,0,0,0-1.136,2.6,25.762,25.762,0,0,1-1.637,3.874s.819-4.2-3.946-6.008c0,0-.035-1.424.321-1.814s.91-.568.562-2.541a23.045,23.045,0,0,1-.1-4.8,30.252,30.252,0,0,1,1.067-3.426Z" transform="translate(-391.556 -346.692)" fill="#fff"/>
    <path id="Path_477" data-name="Path 477" d="M360.15,775.925s1.867-1.173,3.092-.321S360.15,775.925,360.15,775.925Z" transform="translate(-305.524 -636.808)" opacity="0.1"/>
    <path id="Path_478" data-name="Path 478" d="M435.21,759.746a3.779,3.779,0,0,1,3.04,1.281C439.637,762.521,435.21,759.746,435.21,759.746Z" transform="translate(-367.46 -624.257)" opacity="0.1"/>
    <g id="Group_377" data-name="Group 377" transform="translate(54.772 35.686)" opacity="0.1">
      <path id="Path_479" data-name="Path 479" d="M391.214,257.029a2.867,2.867,0,0,0-.7.624,7.077,7.077,0,0,0-.247.773c-.108.251-.423.456-.642.3a8.544,8.544,0,0,0-1.961-4.763,4.95,4.95,0,0,0-1.061-1.1,2.077,2.077,0,0,0-1.443-.408c-.58.079-1.09.473-1.675.522-.773.066-1.467-.47-2.234-.5a2.187,2.187,0,0,0-1.639.763,4.476,4.476,0,0,0-.879,1.629,9.553,9.553,0,0,0-.491,2.813c-.012.539-.062,1.212-.56,1.413a2.643,2.643,0,0,1,0,.429c.5-.193.553-.873.564-1.414a9.541,9.541,0,0,1,.491-2.814,4.485,4.485,0,0,1,.879-1.631,2.193,2.193,0,0,1,1.639-.761c.773.027,1.469.56,2.234.5.58-.048,1.094-.444,1.675-.522a2.077,2.077,0,0,1,1.443.408,4.951,4.951,0,0,1,1.061,1.1,8.522,8.522,0,0,1,1.961,4.761c.218.16.533-.048.642-.3a7.5,7.5,0,0,1,.247-.773,2.86,2.86,0,0,1,.7-.622,2.735,2.735,0,0,0,.73-2.189V255.2A2.537,2.537,0,0,1,391.214,257.029Z" transform="translate(-374.918 -250.676)"/>
      <path id="Path_480" data-name="Path 480" d="M365.417,263.3c-.444-.489-1.051-.815-1.459-1.333a2.829,2.829,0,0,1-.562-1.583,2.976,2.976,0,0,0,.562,2.008c.408.52,1.014.846,1.459,1.335a2.9,2.9,0,0,1,.728,1.724A2.9,2.9,0,0,0,365.417,263.3Z" transform="translate(-363.385 -257.08)"/>
      <path id="Path_481" data-name="Path 481" d="M451.489,243.683c-.114.473-.317.924-.41,1.4a4.463,4.463,0,0,0-.06.966,3.757,3.757,0,0,1,.06-.549c.093-.479.3-.928.41-1.4a2.377,2.377,0,0,0,.064-.8,2.683,2.683,0,0,1-.064.383Z" transform="translate(-434.082 -243.3)"/>
    </g>
    <ellipse id="Ellipse_69" data-name="Ellipse 69" cx="18.829" cy="3.024" rx="18.829" ry="3.024" transform="translate(6.726 140.925)" fill="#cbd7dc" opacity="0.36"/>
    <rect id="Rectangle_188" data-name="Rectangle 188" width="1.212" height="27.279" transform="translate(24.95 86.018)" fill="#535461"/>
    <path id="Path_482" data-name="Path 482" d="M153.883,636.781l-.075,1.229-.108,1.739-.044.723-.106,1.739-.046.723-.108,1.739L152.173,664.4a3.343,3.343,0,0,1-3.335,3.134h-6.35a3.341,3.341,0,0,1-3.333-3.134l-1.215-19.737-.108-1.739-.044-.723-.108-1.739-.044-.723L137.526,638l-.077-1.229a1.739,1.739,0,0,1,1.739-1.838h12.987a1.728,1.728,0,0,1,1.708,1.851Z" transform="translate(-120.107 -523.568)" fill="#a7b5bb"/>
    <path id="Path_483" data-name="Path 483" d="M106.87,592.24l-.108,1.733H90.688l-.108-1.733Z" transform="translate(-73.17 -477.798)" fill="#ddecf2"/>
    <path id="Path_484" data-name="Path 484" d="M107.354,604.95l-.106,1.735H91.478l-.108-1.735Z" transform="translate(-73.807 -488.052)" fill="#ddecf2"/>
    <path id="Path_485" data-name="Path 485" d="M107.839,617.68l-.106,1.733H92.268l-.108-1.733Z" transform="translate(-74.444 -498.322)" fill="#ddecf2"/>
    <path id="Path_486" data-name="Path 486" d="M63.305,534.155a31.5,31.5,0,0,1,10,13.09,31.441,31.441,0,0,1-15.559-5.4,31.453,31.453,0,0,1-10-13.088A31.419,31.419,0,0,1,63.305,534.155Z" transform="translate(-47.744 -437.913)" fill="#fc2361"/>
    <path id="Path_487" data-name="Path 487" d="M47.72,528.76s8.827,4.9,11.658,8.954,13.9,9.53,13.9,9.53" transform="translate(-47.72 -437.913)" fill="none" stroke="#535461" stroke-miterlimit="10" stroke-width="2"/>
    <path id="Path_488" data-name="Path 488" d="M116.468,491.2a17.156,17.156,0,0,1,5.445,7.123A15.551,15.551,0,0,1,108,488.26,17.109,17.109,0,0,1,116.468,491.2Z" transform="translate(-96.352 -405.239)" fill="#fc2361"/>
    <path id="Path_489" data-name="Path 489" d="M108,488.26s4.8,2.667,6.344,4.873,7.569,5.186,7.569,5.186" transform="translate(-96.352 -405.239)" fill="none" stroke="#535461" stroke-miterlimit="10" stroke-width="2"/>
    <path id="Path_490" data-name="Path 490" d="M186.535,512.557a23.665,23.665,0,0,0-5.345,11.184,21.509,21.509,0,0,0,15.973-17.561A23.684,23.684,0,0,0,186.535,512.557Z" transform="translate(-155.399 -419.697)" fill="#fc2361"/>
    <path id="Path_491" data-name="Path 491" d="M197.167,506.19s-5.747,4.97-7.208,8.394-8.769,9.165-8.769,9.165" transform="translate(-155.399 -419.705)" fill="none" stroke="#535461" stroke-miterlimit="10" stroke-width="2"/>
    <path id="Path_492" data-name="Path 492" d="M865.84,315.219s-3.19-15.872-1.969-17.847c0,0,.044-1.836-.029-4.176v-.269a5.943,5.943,0,0,0,.671.386,5.426,5.426,0,0,0,3.652.471l-.966-1.076a1.784,1.784,0,0,1-.524-.875,1.834,1.834,0,0,1,.209-.947c.918-2.319.966-5.235-.8-7-1.494-1.488-1.857-3.409-3.478-4.767a10.047,10.047,0,0,1-2.45-3.865,21.73,21.73,0,0,1-1.341-3.658c-.232-.987-.325-2.01-.643-2.974a3.785,3.785,0,0,0-1.849-2.332,6.98,6.98,0,0,1-1-.443,4.341,4.341,0,0,1-.926-1.088c-1.463-1.932-6.361-.794-8.68-.01a4.883,4.883,0,0,0-1.716.951l.021-.035c.017-.029.039-.058.058-.087a3.05,3.05,0,0,0-.649.725,17.4,17.4,0,0,0-.761,1.739c-.34.686-2.232,2.6-1.418,3.372a.685.685,0,0,0,.193.124,1.671,1.671,0,0,0,.966.1l-.035.083a5.648,5.648,0,0,0-.419,2.143,5.8,5.8,0,0,0,5.851,5.749,5.907,5.907,0,0,0,1.791-.276c.014.073.025.147.039.22a.67.67,0,0,0,.014.087h0l-.1.143a.2.2,0,0,0-.017-.025l-3.034,4.24c-.464.327-3.134,2.259-3.285,3.708-.158,1.586-.317,3.443-.317,3.443l-.021.4a1.194,1.194,0,0,1-.966.261c-.947-.155-.947,3.478-.947,3.478s-.63.58-1.063.077-1.577,1.2-1.577,1.2l-7.169.309h0l-.164.01-.386-1.2a.5.5,0,0,0-.632-.323.581.581,0,0,0-.087.037l-.027.015-.05.035-.025.023a.388.388,0,0,0-.039.041l-.023.027-.012.012h0a.487.487,0,0,0-.07.433l.332,1.026c-1.384.278-2.8,1.063-1.644,3.223l-5.847-1.08,1.892,1.588,9.766,2.015c-.13.232-.044.568.359,1.042,1.739,2.042,4.908,2.6,6.184,2.74a10.978,10.978,0,0,0,1.254,2.126l-.11,2.035s-3.229,15.509-3.82,16.3a9.189,9.189,0,0,0,.817-1.076c-.937,3.186-2.247,7.548-2.591,8.2-.553,1.043-1.065,5.266-.435,5.536a5.3,5.3,0,0,0,1.534-.017v.35l-.035,13.254s.158,8.129-.276,8.9a7.578,7.578,0,0,0-.551,2.4,23.557,23.557,0,0,1-3.117,4.495.211.211,0,0,1-.031.027l-.043-.3a6.575,6.575,0,0,1-5.32,1.973s-2.2,1.434,1.065,1.511,7.445-.116,7.445-.116,2.916-4.444,5.358-3.865v3.368h.748v-3.422A3.066,3.066,0,0,0,843.9,366.2a2.45,2.45,0,0,0-.873-2.267,1.449,1.449,0,0,1-.477-1.059l-.027.023a2.055,2.055,0,0,0-.025-.209c-.214-1.739-.483-5.327.466-7.983,1.3-3.641,1.695-8.711.748-11.729a26.982,26.982,0,0,1-.752-2.939c-.023-.126-.044-.245-.064-.357a15.233,15.233,0,0,1,1.919.386c2.193.6,6.991.717,11.088.684.01.112.021.23.035.348a12.658,12.658,0,0,0,.456,2.419c.514,1.546.75,8.361.75,8.361s.663,5.6.3,7.884c-.193,1.268-.386,2.541-.5,3.82v.025s-1.086,3.092-1.88,4.771c-.019.042-.041.085-.06.126a2.513,2.513,0,0,0-.62.137s-1.065,2.126-2.126,2.477-.709,1.509,1.693,1.084,6.029-.773,6.029-.773l.156-2.168.738-.924-.193,2.162.786-.155-.1-2.63,1.208-1.511s1.459-1.3-.709-3.853v.056c-.023-.037-.044-.075-.07-.112v-.012c-.359-.557-.645-1.594-.122-3.436.947-3.328,1.5-6.348,1.5-6.348s2.114-8.091-.427-11.919h.112a6.439,6.439,0,0,1-.547-1.7q-.019-.1-.035-.214a13.944,13.944,0,0,0,5.231-1.183C867.5,337.476,866.589,318.276,865.84,315.219Zm-23.87-13.391v.039l-.386.019Zm-1.326.184a.428.428,0,0,0-.174.083,1.716,1.716,0,0,0-.3.794l-.6-.135s-.423-.091-1.032-.193l-.288-.29C839.036,302.205,839.859,302.108,840.644,302.012Z" transform="translate(-692.761 -224.066)" fill="url(#linear-gradient-2)"/>
    <path id="Path_493" data-name="Path 493" d="M971.55,741.917l-.23,2.738.771-.155-.116-2.97Z" transform="translate(-803.72 -598.24)" fill="#1d2366"/>
    <path id="Path_494" data-name="Path 494" d="M884.827,666.442c-.929,2.647-.667,6.22-.458,7.955.077.642.149,1.032.149,1.032s-1.389,3.165-1.505,3.285-4.089,2.545-4.089,2.545l-2.777,1.621s-2.817-1.235-1.467-1.66a2.05,2.05,0,0,0,.729-.5,23.321,23.321,0,0,0,3.051-4.479,7.7,7.7,0,0,1,.541-2.392c.425-.771.271-8.873.271-8.873l.033-13.208V650.05l5.285.039a11.957,11.957,0,0,0,.228,1.739,26.585,26.585,0,0,0,.736,2.929C886.484,657.77,886.1,662.815,884.827,666.442Z" transform="translate(-730.426 -535.766)" fill="#ffb0b1"/>
    <path id="Path_495" data-name="Path 495" d="M884.517,777.1s-1.389,3.165-1.505,3.285-4.089,2.545-4.089,2.545l-2.777,1.621s-2.817-1.235-1.467-1.66a2.051,2.051,0,0,0,.729-.5l.12.844.926-.039,7.923-7.128C884.446,776.708,884.517,777.1,884.517,777.1Z" transform="translate(-730.305 -637.435)" opacity="0.1"/>
    <path id="Path_496" data-name="Path 496" d="M863.928,777l-7.967,7.177-.926.039-.193-1.353a6.4,6.4,0,0,1-5.217,1.967s-2.16,1.428,1.042,1.505,7.291-.116,7.291-.116,2.856-4.444,5.246-3.865v3.357h.734v-3.387a3.051,3.051,0,0,0,1.3-2.01,2.462,2.462,0,0,0-.852-2.257A1.455,1.455,0,0,1,863.928,777Z" transform="translate(-709.805 -638.185)" fill="#1d2366"/>
    <path id="Path_497" data-name="Path 497" d="M993.591,669.969c-.514,1.836-.234,2.87.118,3.424v.012a6.33,6.33,0,0,1,.924,2.255l.031.174-3.625,5.285-1.967.773s-3.163-1.08-2.586-1.389a2.959,2.959,0,0,0,.63-1.032c.773-1.672,1.84-4.755,1.84-4.755v-.025c.112-1.273.29-2.543.487-3.807.354-2.274-.3-7.857-.3-7.857s-.232-6.788-.734-8.332a12.746,12.746,0,0,1-.45-2.4c-.1-.966-.128-1.762-.128-1.762s2.083-2.9,5.9.232a4.2,4.2,0,0,1,.8.866c2.638,3.753.514,12.019.514,12.019S994.517,666.651,993.591,669.969Z" transform="translate(-825.027 -535.165)" fill="#ffb0b1"/>
    <path id="Path_498" data-name="Path 498" d="M994.693,776.207l-3.625,5.285-1.967.773s-3.163-1.08-2.585-1.389a2.962,2.962,0,0,0,.63-1.032,2.5,2.5,0,0,1,2.033,1.264l1.7-.271s2.238-4.4,2.74-4.667.077-2.008.077-2.008v-.443c.013.015.025.033.041.048v.012a6.329,6.329,0,0,1,.924,2.255Z" transform="translate(-825.051 -635.539)" opacity="0.1"/>
    <path id="Path_499" data-name="Path 499" d="M978.406,781.689a2.362,2.362,0,0,0-2.817-1.119s-1.042,2.126-2.083,2.47-.694,1.5,1.66,1.08,5.9-.773,5.9-.773l.155-2.162,2.392-3.047s1.426-1.293-.7-3.838v.443s.425,1.739-.077,2.008-2.732,4.669-2.732,4.669Z" transform="translate(-814.163 -636.007)" fill="#1d2366"/>
    <path id="Path_500" data-name="Path 500" d="M905.431,650.069a11.966,11.966,0,0,0,.228,1.739,24.241,24.241,0,0,0-5.519-.056V650.03Z" transform="translate(-751.267 -535.75)" opacity="0.1"/>
    <path id="Path_501" data-name="Path 501" d="M1000.706,652.1s-3.092.151-6.779.182c-.1-.966-.128-1.762-.128-1.762s2.083-2.9,5.9.232a4.2,4.2,0,0,1,.8.866,4.712,4.712,0,0,0,.207.483Z" transform="translate(-830.985 -535.157)" opacity="0.1"/>
    <path id="Path_502" data-name="Path 502" d="M917.7,510.433s-13.542.655-17.669-.5-8.218-.155-8.835-.423-.116-4.475.425-5.517,3.509-11.575,3.509-11.575l2.856-14.891,3.009-.829.213-.06,5.242-1.445,3.841-1.061s7.639,29.822,6.984,32.021a5.63,5.63,0,0,0-.112,2.587A6.46,6.46,0,0,0,917.7,510.433Z" transform="translate(-747.977 -393.84)" fill="#fc2361"/>
    <path id="Path_503" data-name="Path 503" d="M870.057,439s-2.705,2.9-.657,4.514,3.4.155,3.4.155Z" transform="translate(-725.164 -365.498)" fill="#c7daf5"/>
    <path id="Path_504" data-name="Path 504" d="M870.057,439s-2.705,2.9-.657,4.514,3.4.155,3.4.155Z" transform="translate(-725.164 -365.498)" opacity="0.1"/>
    <path id="Path_505" data-name="Path 505" d="M964.947,318.322s-.317.3-.794.746c-.68.636-1.687,1.565-2.58,2.344-1.237,1.076-2.257,1.867-1.892,1.192a5.21,5.21,0,0,0,.114-2.949c-.013-.073-.025-.147-.039-.218a20.242,20.242,0,0,0-.6-2.388,41.318,41.318,0,0,1,3.1-3.6c.412-.386.7-.545.717-.276a8.979,8.979,0,0,0,.626,2.006c.01.027.019.052.031.079.224.58.477,1.175.7,1.689C964.677,317.734,964.947,318.322,964.947,318.322Z" transform="translate(-803.038 -263.876)" fill="#ffb0b1"/>
    <path id="Path_506" data-name="Path 506" d="M963.637,315.266a5.735,5.735,0,0,1-3.842,4.4,20.106,20.106,0,0,0-.636-2.607s3.762-4.86,3.82-3.876A9.194,9.194,0,0,0,963.637,315.266Z" transform="translate(-803.038 -263.886)" opacity="0.1"/>
    <path id="Path_507" data-name="Path 507" d="M930.3,351.136l.487-.686s.323,1.967,1.509,1.1,1.245,6.529,1.245,6.529l-1.273,19.039-9.2-.551.261-9.2,1.042-4.638,2.576-6.742,1.532-2.228Z" transform="translate(-770.59 -294.059)" opacity="0.1"/>
    <path id="Path_508" data-name="Path 508" d="M933.569,358.649l-1.159,17.215-.122,1.824-5.13-.307-.193-.012-3.865-.232.261-9.2L924.4,363.3l2.576-6.742,1.532-2.228,1.824-2.634.487-.684s.323,1.967,1.509,1.1l.025-.017h0C933.515,351.358,933.569,358.649,933.569,358.649Z" transform="translate(-770.614 -294.511)" fill="#fc2361"/>
    <path id="Path_509" data-name="Path 509" d="M880.724,406.26a1.408,1.408,0,0,1-1.389.81c-.927-.157-.926,3.478-.926,3.478s-.616.58-1.042.077-1.546,1.2-1.546,1.2l-7.022.309s3.125,1.428,2.512,5.749c0,0,10.609-.657,10.956-1.66S880.724,406.26,880.724,406.26Z" transform="translate(-726.011 -339.085)" fill="#fff"/>
    <path id="Path_510" data-name="Path 510" d="M880.724,406.26a1.408,1.408,0,0,1-1.389.81c-.927-.157-.926,3.478-.926,3.478s-.616.58-1.042.077-1.546,1.2-1.546,1.2l-7.022.309s3.125,1.428,2.512,5.749c0,0,10.609-.657,10.956-1.66S880.724,406.26,880.724,406.26Z" transform="translate(-726.011 -339.085)" fill="#e6f0f3" opacity="0.81"/>
    <path id="Path_511" data-name="Path 511" d="M777.66,389.76l1.851,1.581,15.238,3.2-1.89-1.928Z" transform="translate(-642.779 -314.444)" fill="#fff"/>
    <path id="Path_512" data-name="Path 512" d="M914.6,349.607a38.984,38.984,0,0,0-1.583,4.093c-.5,1.44-.926,2.705-.926,2.705a72.375,72.375,0,0,1-1.486,7.561c-.5,1.157-.23,5.671-.23,5.671l-1.872,11.148a55.607,55.607,0,0,1-2.158,9.183,16.724,16.724,0,0,1-2.777,5.014c.58-.785,3.739-16.232,3.739-16.232l1.043-19.482s.153-1.851.307-3.434,3.285-3.743,3.285-3.743l3.018-4.292C915.266,348.206,915.064,348.913,914.6,349.607Z" transform="translate(-754.572 -291.921)" fill="#fff"/>
    <path id="Path_513" data-name="Path 513" d="M890.7,468.878s-4.444-.193-6.6-2.779,4.976-1.032,4.976-1.032l1.853.425Z" transform="translate(-737.823 -386.155)" fill="#ffb0b1"/>
    <path id="Path_514" data-name="Path 514" d="M959.37,411.2a5.631,5.631,0,0,0-.112,2.587,36.833,36.833,0,0,1-10.035-.966,22.541,22.541,0,0,1-3.511,2.2l-1.387-17.2c-.887-2.319-1.235-14.467-1.235-14.467s.079-.636.193-1.588a.182.182,0,0,1,.01-.072,73.8,73.8,0,0,1,1.368-8.33c.464-.928-1.426-3.4-1.426-3.4l.86-7.333.1-.885c1.813-.81,3.2-3.4,3.2-3.4l1.067-1.869h0c1.159-.744,1.219,6.547,1.219,6.547l-1.159,17.215,3.841-1.061S960.025,409,959.37,411.2Z" transform="translate(-790.074 -298.887)" opacity="0.1"/>
    <path id="Path_515" data-name="Path 515" d="M965.314,393.16c-5.285,2.624-14.891.193-14.891.193a22.541,22.541,0,0,1-3.511,2.2l-1.389-17.2c-.885-2.319-1.233-14.467-1.233-14.467s1.117-9.065,1.581-9.99a1.489,1.489,0,0,0-.091-1.105,13.986,13.986,0,0,1-.846-6.471l.371-3.152.1-.883c1.814-.812,3.2-3.4,3.2-3.4l.966-1.693,1.778-3.119.842-1.476.143.129,1.092.989,1.159.966c1.513,1.275,4.128,3.521,5.476,4.895,1.186,1.21,1.561,5.915,1.67,9.457.071,2.332.029,4.16.029,4.16-1.2,1.969,1.932,17.778,1.932,17.778C964.427,374.029,965.314,393.16,965.314,393.16Z" transform="translate(-791.042 -279.658)" fill="#fff"/>
    <path id="Path_516" data-name="Path 516" d="M932.695,363.8s-3.627,6.9-3.206,9.528,1.619,5.594,1.042,6.288a2.135,2.135,0,0,1-1.7.848,5.584,5.584,0,0,0-2.126,1.235,20.141,20.141,0,0,0-2.705.657,16.842,16.842,0,0,1-3.163.848s-3.671-.116-4.013.232a5.163,5.163,0,0,0,.039,4.089c.732,1.66,1.546,2.9,2.16,3.125s4.514-1.08,7.677-1.389,6.6-2.815,6.6-2.815,3.782-1.353,4.444-3.627-.81-14.775-.81-14.775S935.819,362.219,932.695,363.8Z" transform="translate(-768.567 -304.611)" opacity="0.03"/>
    <path id="Path_517" data-name="Path 517" d="M930.318,360.8s-3.627,6.906-3.2,9.528,1.619,5.594,1.04,6.29a2.125,2.125,0,0,1-1.7.848,5.583,5.583,0,0,0-2.126,1.235,20.317,20.317,0,0,0-2.705.655,17.009,17.009,0,0,1-3.163.848s-3.672-.116-4.012.232a5.163,5.163,0,0,0,.039,4.089c.734,1.658,1.546,2.9,2.16,3.125s4.514-1.08,7.677-1.387,6.6-2.817,6.6-2.817,3.78-1.353,4.435-3.625-.81-14.777-.81-14.777S933.443,359.224,930.318,360.8Z" transform="translate(-766.654 -302.193)" opacity="0.03"/>
    <path id="Path_518" data-name="Path 518" d="M932.121,362.013s-3.627,6.906-3.2,9.528,1.619,5.594,1.042,6.288a2.125,2.125,0,0,1-1.7.85,5.609,5.609,0,0,0-2.126,1.233,19.881,19.881,0,0,0-2.705.657,16.884,16.884,0,0,1-3.163.848s-3.671-.116-4.013.232a5.164,5.164,0,0,0,.039,4.089c.732,1.658,1.546,2.9,2.16,3.125s4.514-1.08,7.677-1.389,6.6-2.815,6.6-2.815,3.782-1.353,4.444-3.627-.8-14.775-.8-14.775S935.244,360.44,932.121,362.013Z" transform="translate(-768.107 -303.17)" fill="#fff"/>
    <path id="Path_519" data-name="Path 519" d="M990.81,458.28s-2.9-.58-1.89.386,1,1.813,2.238,1.774S990.81,458.28,990.81,458.28Z" transform="translate(-826.876 -380.913)" fill="#cbd7dc" opacity="0.34"/>
    <path id="Path_520" data-name="Path 520" d="M1023.511,566.58s-1.31.887,1.2,2.931S1023.511,566.58,1023.511,566.58Z" transform="translate(-854.678 -468.425)" fill="#cbd7dc" opacity="0.34"/>
    <path id="Path_521" data-name="Path 521" d="M1011.765,604.31c0,.116-.464,4.251,1.271,5.285S1011.765,604.31,1011.765,604.31Z" transform="translate(-845.433 -498.865)" fill="#cbd7dc" opacity="0.34"/>
    <path id="Path_522" data-name="Path 522" d="M855.67,436.59c-1.4.048-4.421.475-2.854,3.4,1.385,2.587,3.714.858,5.024-.454A4.937,4.937,0,0,0,855.67,436.59Z" transform="translate(-711.841 -363.554)" fill="#ffb0b1"/>
    <path id="Path_523" data-name="Path 523" d="M881.39,451Z" transform="translate(-735.391 -375.179)" fill="#ffb0b1"/>
    <path id="Path_524" data-name="Path 524" d="M880.74,451.46l.058-.06Z" transform="translate(-734.859 -375.502)" fill="#ffb0b1"/>
    <path id="Path_525" data-name="Path 525" d="M958.827,335.279c-1.484,1.014-2.728,1.87-2.972,2.048-.665.493-1.932,3.385-2.75,4.862-.651,1.188-2.767,1.494-3.565,1.569l.1-.883c1.814-.812,3.2-3.4,3.2-3.4l3.586-6.288,1.235,1.123Z" transform="translate(-795.277 -280.134)" opacity="0.1"/>
    <path id="Path_526" data-name="Path 526" d="M958.827,334.679c-1.484,1.014-2.728,1.871-2.972,2.05-.665.491-1.932,3.384-2.75,4.86-.651,1.188-2.767,1.494-3.565,1.569l.1-.883c1.814-.812,3.2-3.4,3.2-3.4l3.586-6.288,1.235,1.119S958.131,334.091,958.827,334.679Z" transform="translate(-795.277 -279.65)" fill="#b3d8e6"/>
    <path id="Path_527" data-name="Path 527" d="M934.959,293.994a5.731,5.731,0,1,1-4.872-5.666A5.722,5.722,0,0,1,934.959,293.994Z" transform="translate(-771.023 -243.889)" fill="#ffb0b1"/>
    <path id="Path_528" data-name="Path 528" d="M946.7,313.268a5.094,5.094,0,0,1-1.849-1.986,5.232,5.232,0,0,0-1.088-1.826,4.831,4.831,0,0,0-1.778-.686,5.211,5.211,0,0,1-3.8-4.574,27.082,27.082,0,0,0,.139-2.98,3.3,3.3,0,0,0-.645-1.536,5.293,5.293,0,0,0-.558-.6c-.271-.255-.555-.5-.8-.773a3,3,0,0,1-.406-.551,2.649,2.649,0,0,1-.222-.512c-.386-1.183-.035-2.585-.46-3.782l-.023-.066a1.23,1.23,0,0,0-.941-.883c-.454-.033-.843.344-1.275.512-.906.352-1.884-.247-2.64-.858a3.619,3.619,0,0,0-2.568-1.173,8.3,8.3,0,0,0-1.724.748,2.416,2.416,0,0,1-.408.118,5.731,5.731,0,0,1,10.922,3.331c.01.027.019.052.031.079.224.58.477,1.175.7,1.689l1.092.989,1.159.966c1.513,1.275,4.128,3.521,5.476,4.895C946.216,305.023,946.587,309.726,946.7,313.268Z" transform="translate(-776.004 -243.888)" opacity="0.1"/>
    <path id="Path_529" data-name="Path 529" d="M920.788,269.85c.276-.562.414-1.192.744-1.726a4.111,4.111,0,0,1,2.2-1.567c2.271-.783,7.069-1.919,8.5,0a4.183,4.183,0,0,0,.906,1.082,6.736,6.736,0,0,0,.984.443,3.759,3.759,0,0,1,1.809,2.319c.311.955.4,1.979.632,2.962a21.788,21.788,0,0,0,1.314,3.646,10.041,10.041,0,0,0,2.4,3.849c1.583,1.353,1.932,3.268,3.4,4.752,1.739,1.762,1.683,4.671.786,6.98a1.916,1.916,0,0,0-.2.943,1.849,1.849,0,0,0,.512.873l.951,1.072a5.346,5.346,0,0,1-5.841-2.694,5.224,5.224,0,0,0-1.09-1.826,4.819,4.819,0,0,0-1.776-.684,5.218,5.218,0,0,1-3.8-4.578,27.028,27.028,0,0,0,.139-2.976,3.285,3.285,0,0,0-.647-1.546c-.531-.694-1.333-1.159-1.766-1.932-.732-1.293-.176-2.972-.7-4.359A1.233,1.233,0,0,0,929.3,274c-.454-.033-.843.344-1.277.512-.9.352-1.882-.245-2.638-.858a3.6,3.6,0,0,0-2.57-1.171,8.08,8.08,0,0,0-1.722.748c-.433.166-1.31.315-1.689-.05C918.6,272.445,920.454,270.538,920.788,269.85Z" transform="translate(-770.802 -225.527)" fill="#591d4b"/>
    <path id="Path_530" data-name="Path 530" d="M940.245,299.995a5.226,5.226,0,0,0-1.09-1.824,4.818,4.818,0,0,0-1.778-.686,5.219,5.219,0,0,1-3.8-4.576,27.525,27.525,0,0,0,.141-2.978,3.3,3.3,0,0,0-.647-1.536c-.533-.694-1.335-1.159-1.766-1.932-.732-1.291-.176-2.97-.705-4.359a1.237,1.237,0,0,0-.939-.883c-.452-.035-.844.346-1.277.514-.9.352-1.884-.247-2.638-.858a3.62,3.62,0,0,0-2.57-1.173,8.236,8.236,0,0,0-1.722.748c-.433.166-1.312.317-1.691-.048-.8-.773,1.057-2.676,1.389-3.36a18.522,18.522,0,0,1,.746-1.726c.017-.029.037-.058.056-.087a3.07,3.07,0,0,0-.636.723c-.33.533-.468,1.159-.744,1.726-.334.684-2.187,2.593-1.389,3.36.386.367,1.256.216,1.689.05a7.953,7.953,0,0,1,1.722-.748,3.6,3.6,0,0,1,2.57,1.171c.754.611,1.739,1.21,2.64.858.433-.168.812-.547,1.275-.512a1.23,1.23,0,0,1,.941.883c.527,1.387-.029,3.067.7,4.359.433.759,1.235,1.235,1.766,1.932a3.285,3.285,0,0,1,.647,1.546,27.012,27.012,0,0,1-.139,2.976,5.21,5.21,0,0,0,3.8,4.578,4.845,4.845,0,0,1,1.776.684,5.11,5.11,0,0,1,1.09,1.826,5.346,5.346,0,0,0,5.841,2.694l-.448-.506A5.4,5.4,0,0,1,940.245,299.995Z" transform="translate(-770.628 -233.374)" opacity="0.1"/>
    <path id="Path_531" data-name="Path 531" d="M948.943,350.126a39,39,0,0,0-1.583,4.093c-.566-.22-1.08-1.625-1.08-1.625L949.3,348.3C949.608,348.725,949.4,349.43,948.943,350.126Z" transform="translate(-792.647 -292.324)" opacity="0.1"/>
    <path id="Path_532" data-name="Path 532" d="M949.543,349.534a38.984,38.984,0,0,0-1.583,4.093c-.566-.218-1.08-1.625-1.08-1.625l3.018-4.292C950.207,348.133,950,348.84,949.543,349.534Z" transform="translate(-793.131 -291.849)" fill="#b3d8e6"/>
    <path id="Path_533" data-name="Path 533" d="M862.755,434.593l-1.673-5.277a.493.493,0,0,1,.321-.62h0a.5.5,0,0,1,.618.321l1.673,5.271-.166,1.1Z" transform="translate(-718.804 -357.167)" fill="#be8b87"/>
    <path id="Path_534" data-name="Path 534" d="M861.572,428.884h0a.5.5,0,0,1,.62.321l1.673,5.271-.126.827.122.128.166-1.1-1.683-5.271a.5.5,0,0,0-.618-.321h0a.5.5,0,0,0-.257.193A.671.671,0,0,1,861.572,428.884Z" transform="translate(-719.139 -357.199)" fill="#fff" opacity="0.1"/>
    <path id="Path_535" data-name="Path 535" d="M822.6,399.438l.939-.3-.137.9-.029.2-.274-.286Z" transform="translate(-678.69 -322.011)" fill="#efc8c4"/>
    <path id="Path_536" data-name="Path 536" d="M872.42,461.735a.194.194,0,0,1,.06-.05.085.085,0,0,1,.091,0,.239.239,0,0,1,.033.052.166.166,0,0,0,.12.079l-.029.193Z" transform="translate(-728.013 -383.789)" fill="#727a9c"/>
    <path id="Path_537" data-name="Path 537" d="M861.13,441.7s3.357-.019,2.566,1.409a3.019,3.019,0,0,1-2.025,1.6Z" transform="translate(-718.867 -367.676)" fill="#ffb0b1"/>
    <g id="Ellipse_70" data-name="Ellipse 70" transform="translate(91.191 19.254)" fill="#fff" stroke="#707070" stroke-width="1">
      <circle cx="19.5" cy="19.5" r="19.5" stroke="none"/>
      <circle cx="19.5" cy="19.5" r="19" fill="none"/>
    </g>
    <path id="Path_538" data-name="Path 538" d="M568.746,110.05H568.6a16.528,16.528,0,0,0-13.8,7.554A16.528,16.528,0,0,0,541,110.05h-.145a16.425,16.425,0,0,0-16.268,16.415c0,5.374,2.354,13,6.943,19.273,8.744,11.955,23.269,22.415,23.269,22.415s14.525-10.458,23.267-22.415c4.591-6.274,6.943-13.9,6.943-19.273a16.425,16.425,0,0,0-16.267-16.415Zm-2.073,36.608a3.256,3.256,0,0,1-3.028-2.091H560.2a1.09,1.09,0,0,1-1.026-.742l-1.059-3.19-3.351,11.708a1.084,1.084,0,0,1-1.04.783h-.068a1.071,1.071,0,0,1-1-.9L549.2,131.46l-2.524,12.29a1.076,1.076,0,0,1-1.045.817h-4.856a1.08,1.08,0,1,1,0-2.158h4.006l3.575-16.523a1.084,1.084,0,0,1,2.126.089L554,147.161l3-10.475a1.063,1.063,0,0,1,1.011-.773h.021a1.078,1.078,0,0,1,1.024.742l1.915,5.76H563.6a3.239,3.239,0,1,1,3.076,4.251Z" transform="translate(-444.486 -100.113)" fill="#fc2361"/>
  </g>
</svg>
