<svg xmlns="http://www.w3.org/2000/svg" width="71.454" height="65.386" viewBox="0 0 71.454 65.386">
  <path id="first-aid-icon" d="M21.745,0H34.489a4.539,4.539,0,0,1,4.526,4.526V6.941H36.131V4.515A1.59,1.59,0,0,0,34.545,2.93H21.688A1.59,1.59,0,0,0,20.1,4.515V6.941H17.219V4.526A4.539,4.539,0,0,1,21.745,0Zm9.484,17.645v5.982h5.982v6.226H31.229v5.982H25V29.854H19.02V23.628H25V17.645ZM4.022,7.8h4.7V45.684h-4.7A4.033,4.033,0,0,1,0,41.663V11.818A4.033,4.033,0,0,1,4.022,7.8Zm7.091,0H44.587V45.684H11.113Zm35.865,0h5.233a4.033,4.033,0,0,1,4.022,4.021V41.663a4.033,4.033,0,0,1-4.022,4.021H46.978Z" transform="translate(1.292 21.444) rotate(-21)" fill="none" stroke="#31c5fe" stroke-linecap="round" stroke-width="2" fill-rule="evenodd" opacity="0.2"/>
</svg>
