<svg id="Group_376" data-name="Group 376" xmlns="http://www.w3.org/2000/svg" width="163.135" height="138.398" viewBox="0 0 163.135 138.398">
  <path id="Path_389" data-name="Path 389" d="M651.281,239.7h-4.836a.931.931,0,0,1-.93-.93V233.93a.931.931,0,0,1,.93-.93h4.836a.931.931,0,0,1,.93.93v4.837A.931.931,0,0,1,651.281,239.7Zm-4.836-6.325a.559.559,0,0,0-.558.558v4.837a.559.559,0,0,0,.558.558h4.836a.559.559,0,0,0,.558-.558V233.93a.559.559,0,0,0-.558-.558Z" transform="translate(-555.481 -204.167)" fill="#e6e6e6"/>
  <path id="Path_390" data-name="Path 390" d="M348.281,84.7h-4.836a.931.931,0,0,1-.93-.93V78.93a.931.931,0,0,1,.93-.93h4.836a.931.931,0,0,1,.93.93v4.837A.931.931,0,0,1,348.281,84.7Zm-4.836-6.325a.559.559,0,0,0-.558.558v4.837a.559.559,0,0,0,.558.558h4.836a.559.559,0,0,0,.558-.558V78.93a.559.559,0,0,0-.558-.558Z" transform="translate(-308.845 -78)" fill="#e6e6e6"/>
  <path id="Path_391" data-name="Path 391" d="M635.281,226.7h-4.836a.931.931,0,0,1-.93-.93V220.93a.931.931,0,0,1,.93-.93h4.836a.931.931,0,0,1,.93.93v4.837a.931.931,0,0,1-.93.93Zm-4.836-6.325a.559.559,0,0,0-.558.558v4.837a.559.559,0,0,0,.558.558h4.836a.559.559,0,0,0,.558-.558V220.93a.559.559,0,0,0-.558-.558Z" transform="translate(-542.457 -193.585)" fill="#e6e6e6"/>
  <path id="Path_392" data-name="Path 392" d="M183.281,443.7h-4.836a.931.931,0,0,1-.93-.93V437.93a.931.931,0,0,1,.93-.93h4.836a.931.931,0,0,1,.93.93v4.836A.931.931,0,0,1,183.281,443.7Zm-4.836-6.325a.559.559,0,0,0-.558.558v4.836a.559.559,0,0,0,.558.558h4.836a.559.559,0,0,0,.558-.558V437.93a.559.559,0,0,0-.558-.558Z" transform="translate(-174.538 -370.219)" fill="#e6e6e6"/>
  <path id="Path_393" data-name="Path 393" d="M167.281,430.7h-4.837a.931.931,0,0,1-.93-.93V424.93a.931.931,0,0,1,.93-.93h4.837a.931.931,0,0,1,.93.93v4.837A.931.931,0,0,1,167.281,430.7Zm-4.837-6.325a.559.559,0,0,0-.558.558v4.837a.559.559,0,0,0,.558.558h4.837a.559.559,0,0,0,.558-.558V424.93a.559.559,0,0,0-.558-.558Z" transform="translate(-161.514 -359.637)" fill="#e6e6e6"/>
  <path id="Path_394" data-name="Path 394" d="M228.1,164.038h44.759a9.515,9.515,0,0,1,9.282,7.422l22.616,100.314a7.69,7.69,0,0,1-7.123,9.372l-46.013,2.267a10.16,10.16,0,0,1-10.5-8.339l-12.829-70.923-.954.273-2.455-13.443.982-.246-3.581-19.8a5.858,5.858,0,0,1,5.813-6.9Z" transform="translate(-210.903 -148.033)" fill="#3f3d56"/>
  <path id="Path_395" data-name="Path 395" d="M286.292,175.664h5.225a6.576,6.576,0,0,1,6.424,5.174l21.708,99.5a4.074,4.074,0,0,1-3.714,4.934l-45.864,3.006a5.277,5.277,0,0,1-5.538-4.33L246.01,181.1a4.622,4.622,0,0,1,4.549-5.441h4.956a2.181,2.181,0,0,1,2.106,1.614h0a1.926,1.926,0,0,0,1.859,1.425h23.53a3.292,3.292,0,0,0,3.282-3.039Z" transform="translate(-230.232 -157.496)" fill="#fff"/>
  <path id="Path_396" data-name="Path 396" d="M104,188.606h49.756l5.3,23.884-50.406.93Z" transform="translate(-84.654 -153.522)" fill="#fc2361"/>
  <path id="Path_397" data-name="Path 397" d="M358,431.754h11.714l.372,2.242H358.372Z" transform="translate(-291.405 -351.439)" fill="#31c5fe"/>
  <rect id="Rectangle_158" data-name="Rectangle 158" width="49.69" height="0.234" transform="translate(26.446 69.927) rotate(-1.213)" fill="#cbd7dc"/>
  <rect id="Rectangle_159" data-name="Rectangle 159" width="50.628" height="0.234" transform="matrix(1, -0.023, 0.023, 1, 27.031, 76.94)" fill="#cbd7dc"/>
  <path id="Path_398" data-name="Path 398" d="M384,560.754h11.714l.372,2.242H384.372Z" transform="translate(-312.569 -456.443)" fill="#31c5fe"/>
  <rect id="Rectangle_160" data-name="Rectangle 160" width="49.69" height="0.234" transform="translate(31.283 93.924) rotate(-1.213)" fill="#cbd7dc"/>
  <rect id="Rectangle_161" data-name="Rectangle 161" width="50.628" height="0.234" transform="matrix(1, -0.023, 0.023, 1, 31.867, 100.936)" fill="#cbd7dc"/>
  <path id="Path_399" data-name="Path 399" d="M601.248,693.8h-2.216l-1.054-8.549h3.271Z" transform="translate(-486.742 -557.779)" fill="#a0616a"/>
  <path id="Path_400" data-name="Path 400" d="M748.84,808.189h-7.147v-.09a2.782,2.782,0,0,1,2.781-2.782h4.365Z" transform="translate(-633.769 -670.021)" fill="#2f2e41"/>
  <path id="Path_401" data-name="Path 401" d="M741.07,686.992l-2.157.508-2.986-8.08,3.184-.75Z" transform="translate(-599.03 -552.425)" fill="#a0616a"/>
  <path id="Path_402" data-name="Path 402" d="M899.838,799.718l-6.956,1.638-.021-.088a2.782,2.782,0,0,1,2.07-3.345h0l4.249-1Z" transform="translate(-756.756 -663.189)" fill="#2f2e41"/>
  <path id="Path_403" data-name="Path 403" d="M757.824,549.758c0-.446.136-10.959,3.018-14.935l.043-.059,10.044,1.386-.225,2.207c.442.43,3.917,4.061,4.92,12.659l10.66,28.631-4.956.451-14.671-31.254-7.764,33.974h-4.913Z" transform="translate(-643.771 -449.797)" fill="#2f2e41"/>
  <path id="Path_404" data-name="Path 404" d="M784.539,460.639l.982-5.154a4.062,4.062,0,0,1-.854-2.828,3.484,3.484,0,0,1,1.612-2.369l2.545-5.938.034-.02c.171-.1,4.223-2.444,6.432-.233.055.043,5.494,4.36,3.31,10.184l-2.7,8.089Z" transform="translate(-668.644 -375.226)" fill="#ccc"/>
  <path id="Path_405" data-name="Path 405" d="M757.195,542.641a1.823,1.823,0,0,0,1.539-2.333l5.255-3.786-3.146-1.2-4.508,3.779a1.832,1.832,0,0,0,.859,3.536Z" transform="translate(-644.716 -450.254)" fill="#a0616a"/>
  <path id="Path_406" data-name="Path 406" d="M771.369,462.395l8.023-6.321-2.385-8.149a2.928,2.928,0,0,1,.3-2.317,2.709,2.709,0,0,1,1.776-1.282c1.373-.291,2.62.478,3.705,2.286l.008.016c.179.439,4.359,10.771,1.168,12.98-3.122,2.161-10.361,5.308-10.434,5.339l-.085.037Z" transform="translate(-657.924 -376.133)" fill="#ccc"/>
  <circle id="Ellipse_59" data-name="Ellipse 59" cx="4.86" cy="4.86" r="4.86" transform="translate(119.248 57.002)" fill="#a0616a"/>
  <circle id="Ellipse_60" data-name="Ellipse 60" cx="4.3" cy="4.3" r="4.3" transform="translate(127.428 51.527)" fill="#2f2e41"/>
  <path id="Path_407" data-name="Path 407" d="M860.535,379.66a4.3,4.3,0,0,1-6.64-2.258,4.3,4.3,0,1,0,8.388-1.763A4.3,4.3,0,0,1,860.535,379.66Z" transform="translate(-725.099 -320.272)" fill="#2f2e41"/>
  <path id="Path_408" data-name="Path 408" d="M798.37,382.447a7.881,7.881,0,0,1,2.006-2.722,2.085,2.085,0,0,1,2.758-.25,5.085,5.085,0,1,1-3.068,4.668,5.143,5.143,0,0,1,.035-.575C799.362,383.463,799.108,382.55,798.37,382.447Z" transform="translate(-679.902 -323.054)" fill="#2f2e41"/>
  <path id="Path_409" data-name="Path 409" d="M726.549,820.372H655.676a.186.186,0,1,1,0-.372h70.873a.186.186,0,0,1,0,.372Z" transform="translate(-563.601 -681.974)" fill="#3f3d56"/>
  <path id="Free" d="M10.061,5.523l.346,1.741L5.44,7.256l.541,2.772H9.8l.34,1.722-3.819,0,.9,4.6L4.8,16.363,2.7,5.506Zm4.772,3.551q.322-.678.982-1.063t1.608-.383l.461,2.265h-.627q-1.12,0-1.592.478t-.233,1.672l.864,4.291L13.9,16.34l-1.716-8.6,2.379,0Zm13.734,2.761q.1.462.108.832l-6.835.006q.276.929,1.011,1.454t1.649.524q1.318,0,1.659-1.04l2.545,0q-.144,1.237-1.124,2.037t-2.657.806q-1.355,0-2.546-.546t-2-1.557q-.809-1.007-1.077-2.323t.116-2.332q.387-1,1.341-1.538t2.334-.534q1.33,0,2.489.525t1.941,1.482Q28.3,10.589,28.567,11.835ZM26,11.22q-.191-.831-.935-1.332t-1.671-.5q-.877,0-1.376.484t-.457,1.349Zm12.894.61q.1.46.114.828l-6.77.006q.281.924,1.013,1.448t1.638.522q1.306,0,1.635-1.035l2.521,0q-.133,1.231-1.1,2.027t-2.625.8q-1.343,0-2.526-.543T30.8,14.332q-.809-1-1.086-2.312t.1-2.321q.375-1,1.316-1.531t2.308-.532q1.317,0,2.47.522t1.935,1.475Q38.621,10.589,38.892,11.83Zm-2.55-.612q-.2-.827-.937-1.325t-1.659-.5q-.869,0-1.359.482t-.442,1.343Z" transform="translate(26.983 35.978)" fill="#fff"/>
</svg>
