<svg xmlns="http://www.w3.org/2000/svg" width="71.003" height="62.731" viewBox="0 0 71.003 62.731">
  <path id="heart-beat-icon" d="M34.626,8.6l.051-.051C38.636,4.343,41.895.891,48.549.122a19.17,19.17,0,0,1,10.79,1.96,19.939,19.939,0,0,1,7.1,5.936,17.871,17.871,0,0,1,3.452,8.608,17.154,17.154,0,0,1-.832,7.548H65.423a14.14,14.14,0,0,0,1.082-7.161,14.578,14.578,0,0,0-2.8-6.967,16.658,16.658,0,0,0-5.879-4.916,15.837,15.837,0,0,0-8.887-1.618c-5.418.621-8.289,3.669-11.781,7.366L35.89,12.211a1.709,1.709,0,0,1-2.4.034l-1.225-1.2c-4.284-4.216-7.514-7.406-14.185-7.474h-.832A14.966,14.966,0,0,0,7.56,7.431a13.177,13.177,0,0,0-4.142,9.662c0,.251,0,.518,0,.8a20.332,20.332,0,0,0,1.288,6.284H1.1A23.181,23.181,0,0,1,0,18v-.957A16.481,16.481,0,0,1,5.218,4.953,18.293,18.293,0,0,1,17.125.184h.991C26.154.287,29.8,3.859,34.637,8.61ZM1.139,29.427H17.427l3.7-5.976,6.523,9.463,6.534-13.234,7.047,13.57,3.338-3.418H68.875v3.418H46l-5.617,5.765L34.25,27.228l-6.113,12.4L21.3,29.672l-1.96,3.173H1.139Zm57.214,9.565-.165.177c-2.848,2.94-5.856,5.828-8.545,8.426-1.584,1.515-3.065,2.934-4.318,4.176L35.89,61.124a1.709,1.709,0,0,1-2.381,0L25.7,53.639c-1.424-1.367-3.076-2.877-4.8-4.444-3.452-3.15-7.172-6.54-10.5-10.2H15.1c2.643,2.706,5.452,5.27,8.1,7.679,1.709,1.538,3.31,3.019,4.859,4.512l6.6,6.358L42.9,49.354c1.3-1.288,2.774-2.706,4.352-4.216,2.011-1.926,4.193-3.988,6.324-6.147Z" transform="translate(0.5 0.501)" fill="#fc2361" stroke="#fff" stroke-width="1" opacity="0.2"/>
</svg>
