<svg id="Group_375" data-name="Group 375" xmlns="http://www.w3.org/2000/svg" width="154.689" height="129.332" viewBox="0 0 154.689 129.332">
  <ellipse id="Ellipse_50" data-name="Ellipse 50" cx="61.091" cy="3.124" rx="61.091" ry="3.124" transform="translate(11.566 123.084)" fill="#f2f2f2"/>
  <path id="Path_371" data-name="Path 371" d="M478.741,107.419h-.694V88.407a11,11,0,0,0-11-11h-40.28a11,11,0,0,0-11,11v104.3a11,11,0,0,0,11,11h40.28a11,11,0,0,0,11-11V120.952h.694Z" transform="translate(-370.391 -77.403)" fill="#3f3d56"/>
  <path id="Path_372" data-name="Path 372" d="M490.165,102.115V206.263a8.218,8.218,0,0,1-8.218,8.218H441.474a8.218,8.218,0,0,1-8.218-8.218V102.115a8.218,8.218,0,0,1,8.218-8.218h4.91A3.906,3.906,0,0,0,450,99.275h23.076A3.906,3.906,0,0,0,476.69,93.9h5.257a8.218,8.218,0,0,1,8.218,8.218Z" transform="translate(-384.851 -91.034)" fill="#fff"/>
  <path id="Path_373" data-name="Path 373" d="M614.666,380.879q-.4.211-.821.4-.38.172-.772.323l-.29.109a15.54,15.54,0,0,1-2.36.651q-.6.117-1.208.184-.505.057-1.02.082c-.245.012-.489.017-.736.017a15.59,15.59,0,0,1-2.909-.272c-.25-.045-.495-.1-.739-.158a15.41,15.41,0,0,1-3.414-1.26c-.1-.049-.194-.1-.292-.151-.144-.076-.285-.156-.425-.24.068-.094.141-.186.215-.276a9.2,9.2,0,0,1,13.688-.712,9.406,9.406,0,0,1,.878,1.017C614.533,380.686,614.6,380.782,614.666,380.879Z" transform="translate(-522.391 -324.89)" fill="#fc2361"/>
  <circle id="Ellipse_51" data-name="Ellipse 51" cx="7.621" cy="7.621" r="7.621" transform="translate(77.793 33.124)" fill="#2f2e41"/>
  <circle id="Ellipse_52" data-name="Ellipse 52" cx="5.672" cy="5.672" r="5.672" transform="translate(77.022 41.142) rotate(-28.663)" fill="#a0616a"/>
  <path id="Path_374" data-name="Path 374" d="M624.174,292.443a7.714,7.714,0,0,1-4.409,1.362,4.727,4.727,0,0,0,1.874.771,15.555,15.555,0,0,1-6.354.036,4.115,4.115,0,0,1-1.33-.457,1.683,1.683,0,0,1-.821-1.1,2.268,2.268,0,0,1,1.126-2.008,8.306,8.306,0,0,1,6.98-1.395,3.822,3.822,0,0,1,2.067,1.168,1.883,1.883,0,0,1,.174,2.236Z" transform="translate(-533.494 -252.611)" fill="#2f2e41"/>
  <path id="Path_375" data-name="Path 375" d="M570.112,230.173a15.618,15.618,0,0,0-8.129,28.954l.1.059q.125.076.25.146c.141.083.281.163.425.24.1.05.194.1.292.151a15.4,15.4,0,0,0,3.414,1.26c.245.059.489.113.739.158a15.6,15.6,0,0,0,2.909.272c.246,0,.491-.005.736-.017q.516-.023,1.02-.082.612-.068,1.208-.184a15.531,15.531,0,0,0,2.36-.651l.29-.109q.393-.151.772-.323.416-.187.821-.4a15.757,15.757,0,0,0,6.428-6.243c.007-.014.016-.028.023-.042a15.62,15.62,0,0,0-13.659-23.19Zm13.374,22.987c-.014.024-.026.049-.04.071a15.3,15.3,0,0,1-6.331,6.13q-.4.208-.811.391c-.227.1-.46.2-.694.29-.1.038-.2.076-.3.111a14.865,14.865,0,0,1-2.036.583,14.7,14.7,0,0,1-1.553.245c-.321.035-.647.059-.975.071-.21.009-.422.014-.633.014a15.06,15.06,0,0,1-2.815-.262,14.862,14.862,0,0,1-1.671-.41,15.352,15.352,0,0,1-2.428-.984c-.09-.047-.18-.094-.269-.142-.127-.068-.255-.137-.38-.212-.094-.052-.187-.108-.279-.163-.054-.031-.108-.064-.161-.1a15.285,15.285,0,1,1,21.378-5.635Z" transform="translate(-485.045 -203.659)" fill="#3f3d56"/>
  <path id="Path_376" data-name="Path 376" d="M607.3,263.153a1.526,1.526,0,0,0-1.964-1.133,2.471,2.471,0,0,0-1.532,1.943,2.787,2.787,0,0,0,.376,2.1,1.917,1.917,0,0,0,1.9.823,2.2,2.2,0,0,0,1.545-1.791,6.477,6.477,0,0,0-.159-2.484Z" transform="translate(-525.745 -229.924)" fill="#2f2e41"/>
  <path id="Path_377" data-name="Path 377" d="M674.281,270.25a1.526,1.526,0,0,0-1.964-1.133,2.47,2.47,0,0,0-1.532,1.943,2.787,2.787,0,0,0,.376,2.1,1.917,1.917,0,0,0,1.9.823,2.2,2.2,0,0,0,1.545-1.791,6.476,6.476,0,0,0-.159-2.484Z" transform="translate(-581.102 -235.79)" fill="#2f2e41"/>
  <path id="Path_378" data-name="Path 378" d="M212.421,205.625a.777.777,0,0,1-.574-.254l-8.612-9.4a1.045,1.045,0,0,0-.768-.338h-45.51a2.608,2.608,0,0,1-2.6-2.6V176.621a2.608,2.608,0,0,1,2.6-2.6h58.961a2.608,2.608,0,0,1,2.6,2.6v16.412a2.608,2.608,0,0,1-2.6,2.6h-1.672a1.043,1.043,0,0,0-1.042,1.042v8.163a.777.777,0,0,1-.5.728A.785.785,0,0,1,212.421,205.625Z" transform="translate(-154.353 -157.248)" fill="#fff"/>
  <path id="Path_379" data-name="Path 379" d="M212.421,205.625a.777.777,0,0,1-.574-.254l-8.612-9.4a1.045,1.045,0,0,0-.768-.338h-45.51a2.608,2.608,0,0,1-2.6-2.6V176.621a2.608,2.608,0,0,1,2.6-2.6h58.961a2.608,2.608,0,0,1,2.6,2.6v16.412a2.608,2.608,0,0,1-2.6,2.6h-1.672a1.043,1.043,0,0,0-1.042,1.042v8.163a.777.777,0,0,1-.5.728A.785.785,0,0,1,212.421,205.625Zm-55.464-31.262a2.26,2.26,0,0,0-2.258,2.258v16.412a2.26,2.26,0,0,0,2.258,2.258h45.509a1.393,1.393,0,0,1,1.024.451l8.612,9.4a.434.434,0,0,0,.754-.293V196.68a1.391,1.391,0,0,1,1.389-1.389h1.672a2.26,2.26,0,0,0,2.258-2.258V176.621a2.26,2.26,0,0,0-2.258-2.258Z" transform="translate(-154.353 -157.248)" fill="#3f3d56"/>
  <circle id="Ellipse_53" data-name="Ellipse 53" cx="2.279" cy="2.279" r="2.279" transform="translate(4.11 19.448)" fill="#fc2361"/>
  <path id="Path_380" data-name="Path 380" d="M232.537,263.691H178.9a1.216,1.216,0,1,1,0-2.431h53.642a1.216,1.216,0,1,1,0,2.431Z" transform="translate(-173.631 -229.35)" fill="#e6e6e6"/>
  <path id="Path_381" data-name="Path 381" d="M215.062,233.922H178.9a1.216,1.216,0,0,1,0-2.431h36.167a1.216,1.216,0,1,1,0,2.431Z" transform="translate(-173.631 -204.748)" fill="#e6e6e6"/>
  <path id="Path_382" data-name="Path 382" d="M681.72,526.571a.777.777,0,0,1-.5-.728V517.68a1.043,1.043,0,0,0-1.042-1.042h-1.672a2.608,2.608,0,0,1-2.6-2.6V497.621a2.608,2.608,0,0,1,2.6-2.6H737.47a2.608,2.608,0,0,1,2.6,2.6v16.412a2.608,2.608,0,0,1-2.6,2.6H691.96a1.045,1.045,0,0,0-.768.338l-8.612,9.4a.776.776,0,0,1-.574.254.785.785,0,0,1-.285-.054Z" transform="translate(-585.386 -422.537)" fill="#fff"/>
  <path id="Path_383" data-name="Path 383" d="M681.72,526.571a.777.777,0,0,1-.5-.728V517.68a1.043,1.043,0,0,0-1.042-1.042h-1.672a2.608,2.608,0,0,1-2.6-2.6V497.621a2.608,2.608,0,0,1,2.6-2.6H737.47a2.608,2.608,0,0,1,2.6,2.6v16.412a2.608,2.608,0,0,1-2.6,2.6H691.96a1.045,1.045,0,0,0-.768.338l-8.612,9.4a.776.776,0,0,1-.574.254.785.785,0,0,1-.285-.054Zm-3.212-31.208a2.261,2.261,0,0,0-2.258,2.258v16.412a2.26,2.26,0,0,0,2.258,2.258h1.672a1.391,1.391,0,0,1,1.389,1.389v8.163a.434.434,0,0,0,.755.293l8.612-9.4a1.393,1.393,0,0,1,1.024-.451h45.51a2.26,2.26,0,0,0,2.258-2.258V497.621a2.261,2.261,0,0,0-2.258-2.258Z" transform="translate(-585.386 -422.537)" fill="#3f3d56"/>
  <path id="Path_384" data-name="Path 384" d="M526.133,683.881a15.458,15.458,0,0,1-16.253.259,9.4,9.4,0,0,1,1.631-2.2,9.273,9.273,0,0,1,14.563,1.835C526.093,683.812,526.114,683.846,526.133,683.881Z" transform="translate(-448.176 -574.766)" fill="#31c5fe"/>
  <circle id="Ellipse_54" data-name="Ellipse 54" cx="7.671" cy="7.671" r="7.671" transform="translate(61.48 85.473)" fill="#2f2e41"/>
  <circle id="Ellipse_55" data-name="Ellipse 55" cx="5.71" cy="5.71" r="5.71" transform="translate(62.101 98.089) rotate(-61.337)" fill="#ffb8b8"/>
  <path id="Path_385" data-name="Path 385" d="M522.25,594.236a7.766,7.766,0,0,0,4.438,1.371,4.759,4.759,0,0,1-1.886.776,15.661,15.661,0,0,0,6.4.036,4.143,4.143,0,0,0,1.339-.46,1.7,1.7,0,0,0,.827-1.105,2.284,2.284,0,0,0-1.134-2.021,8.361,8.361,0,0,0-7.026-1.4,3.847,3.847,0,0,0-2.081,1.176,1.9,1.9,0,0,0-.175,2.251Z" transform="translate(-458.4 -502.011)" fill="#2f2e41"/>
  <path id="Path_386" data-name="Path 386" d="M481.16,572.448a15.615,15.615,0,1,1,8.43-2.468A15.615,15.615,0,0,1,481.16,572.448Zm0-30.893a15.274,15.274,0,1,0,15.273,15.273A15.275,15.275,0,0,0,481.16,541.555Z" transform="translate(-411.539 -460.718)" fill="#3f3d56"/>
  <circle id="Ellipse_56" data-name="Ellipse 56" cx="2.279" cy="2.279" r="2.279" transform="translate(95.574 74.986)" fill="#31c5fe"/>
  <path id="Path_387" data-name="Path 387" d="M759.537,583.691H705.9a1.216,1.216,0,1,1,0-2.431h53.642a1.216,1.216,0,0,1,0,2.431Z" transform="translate(-609.168 -493.813)" fill="#e6e6e6"/>
  <path id="Path_388" data-name="Path 388" d="M742.062,553.922H705.9a1.216,1.216,0,1,1,0-2.431h36.167a1.216,1.216,0,1,1,0,2.431Z" transform="translate(-609.168 -469.211)" fill="#e6e6e6"/>
  <ellipse id="Ellipse_57" data-name="Ellipse 57" cx="4.253" cy="0.472" rx="4.253" ry="0.472" transform="translate(92.008 104.643)" fill="#f2f2f2"/>
  <ellipse id="Ellipse_58" data-name="Ellipse 58" cx="4.253" cy="0.472" rx="4.253" ry="0.472" transform="translate(54 49.106)" fill="#f2f2f2"/>
</svg>
