<svg xmlns="http://www.w3.org/2000/svg" width="229" height="241.985" xmlns:v="https://vecta.io/nano"><path d="M138.669 240.495c-.174 0-.352-.031-.525-.095l-.657-.256-.022-.009-.065-.026-.021-.009-.022-.009-.044-.018-.02-.008-.02-.008-.022-.009-.025-.01-.02-.008-.02-.008-.02-.008-.02-.009-.019-.008-.02-.009-.019-.008-.019-.008-.051-.022-.018-.008-.019-.008-1.584-.751a1.5 1.5 0 1 1 1.385-2.661 22.11 22.11 0 0 0 2.412 1.07 1.5 1.5 0 0 1-.525 2.905zm-7.234-4.307c-.349 0-.699-.121-.983-.368l-1.086-1-.017-.016-.05-.049-.016-.016-.034-.034-.016-.015-.016-.016-.05-.05-.016-.016-.018-.018-.017-.017-.015-.015-.015-.015-.017-.017-.019-.019-.015-.015-.015-.015-.016-.016-.02-.02-.015-.015-.015-.015-.015-.016-.017-.018-.017-.018-.015-.015-.015-.015-.015-.015-.021-.021-.014-.015-.015-.015-.014-.015-.019-.02-.017-.018-.014-.015-.014-.015-.033-.035-.017-.018-.05-.052-.014-.015-.313-.338a1.5 1.5 0 0 1 2.225-2.012c.59.651 1.226 1.273 1.889 1.849a1.5 1.5 0 0 1 .148 2.116c-.297.341-.714.516-1.133.516zm-5.276-6.561a1.5 1.5 0 0 1-1.318-.782l-.011-.02-.011-.02-.045-.083-.767-1.552-.009-.021-.029-.065-.009-.021-.009-.021-.02-.044-.009-.02-.009-.02-.01-.022-.01-.023-.009-.02-.009-.02-.009-.02-.01-.023-.01-.023-.009-.02-.009-.02-.009-.02-.011-.027-.008-.02-.008-.02-.008-.019-.008-.02-.008-.019-.009-.02-.008-.02-.008-.02-.021-.051-.008-.018-.008-.019-.029-.07-.008-.019-.036-.089-.068-.168a1.5 1.5 0 1 1 2.788-1.108c.324.814.702 1.618 1.122 2.389a1.5 1.5 0 0 1-.599 2.035c-.228.124-.474.183-.717.183zm-2.644-7.99a1.5 1.5 0 0 1-1.483-1.288l-.015-.11-.003-.021-.003-.02-.01-.072-.004-.028-.003-.022-.003-.022-.003-.027-.003-.026-.003-.022-.003-.023-.003-.023-.003-.025-.008-.07-.003-.023-.003-.023-.13-1.468-.001-.023-.001-.024-.003-.048-.001-.022-.001-.022-.001-.022-.001-.023-.001-.025-.001-.025-.001-.022-.001-.022-.001-.021-.001-.02-.003-.073-.001-.02-.001-.021-.017-.541a1.5 1.5 0 0 1 2.999-.058 22.44 22.44 0 0 0 .211 2.635 1.5 1.5 0 0 1-1.277 1.694c-.071.01-.141.015-.21.015zm-.229-8.781a1.5 1.5 0 0 1-1.5-1.5v-3a1.5 1.5 0 1 1 3 0v3a1.5 1.5 0 0 1-1.5 1.5zm0-9a1.5 1.5 0 0 1-1.5-1.5v-3a1.5 1.5 0 1 1 3 0v3a1.5 1.5 0 0 1-1.5 1.5zm0-9a1.5 1.5 0 0 1-1.5-1.5v-3a1.5 1.5 0 1 1 3 0v3a1.5 1.5 0 0 1-1.5 1.5zm-2.253-9.747h-3a1.5 1.5 0 1 1 0-3h3a1.5 1.5 0 1 1 0 3zm-9 0h-3a1.5 1.5 0 1 1 0-3h3a1.5 1.5 0 1 1 0 3zm-9 0h-3a1.5 1.5 0 1 1 0-3h3a1.5 1.5 0 1 1 0 3zm-9 0h-3a1.5 1.5 0 1 1 0-3h3a1.5 1.5 0 1 1 0 3zm-8.668-.47a1.51 1.51 0 0 1-.299-.03c-.988-.2-1.955-.457-2.898-.769a1.5 1.5 0 1 1 .942-2.848c.832.275 1.69.503 2.55.677a1.5 1.5 0 0 1-.296 2.971zm-7.82-3.117c-.272 0-.547-.074-.794-.229l-.02-.012-.079-.05-.019-.012-.059-.038-.019-.012-.059-.038-.019-.012-.02-.013-.022-.014-.018-.012-.018-.012-.02-.013-.023-.015-.018-.012-.018-.012-.019-.012-.021-.014-.021-.014-.018-.012-.018-.012-.019-.013-.023-.015-.018-.012-.018-.012-.018-.012-.024-.016-.017-.012-.018-.012-.018-.012-.025-.017-.018-.012-.018-.012-.017-.012-.018-.012-.024-.016-.018-.012-.018-.012-.018-.012-.025-.017-.017-.012-.017-.012-.017-.012-.019-.013-.017-.012-.018-.012-.017-.012-.022-.016-.02-.014-.017-.012-.017-.012-.017-.012-.025-.018-.017-.012-.017-.012-.017-.012-.025-.017-.017-.012-.018-.013-.017-.012-.024-.017-.018-.013-.017-.012-.017-.012-.018-.013-.023-.017-.018-.013-.017-.012-.018-.013-.016-.012-.017-.013-.018-.013-.018-.013-.022-.016-.017-.013-.018-.013-.019-.014-.039-.029-.018-.013-.019-.014-.039-.029-.018-.014-.019-.014-.056-.042-.019-.014-.628-.49a1.5 1.5 0 0 1 1.881-2.337c.685.551 1.409 1.066 2.153 1.532a1.5 1.5 0 0 1-.797 2.772zm-6.233-5.66a1.5 1.5 0 0 1-1.188-.582l-.914-1.266-.064-.095-.042-.063-.062-.094-.011-.017-.031-.047-.011-.017-.041-.062-.011-.018-.011-.017-.029-.045-.012-.018-.011-.018-.036-.056-.011-.017-.011-.017-.012-.019-.015-.024-.011-.018-.011-.018-.011-.018-.011-.018-.011-.018-.012-.019-.013-.02-.026-.042-.012-.019-.013-.02-.026-.041-.012-.019-.013-.021-.17-.281a1.5 1.5 0 1 1 2.578-1.535c.449.754.948 1.489 1.484 2.185a1.5 1.5 0 0 1-.274 2.104c-.273.21-.594.311-.914.311zm-3.866-7.477a1.5 1.5 0 0 1-1.432-1.057l-.071-.236-.027-.092-.006-.022-.021-.072-.006-.021-.006-.02-.02-.071-.006-.021-.006-.02-.02-.07-.006-.023-.005-.019-.02-.072-.006-.021-.005-.02-.019-.072-.005-.021-.029-.111-.006-.021-.024-.092-.005-.019-.207-.873-.004-.021-.02-.092-.005-.024-.004-.02-.011-.053-.005-.023-.004-.021-.004-.022-.006-.028-.005-.025-.004-.022-.005-.022-.005-.023-.01-.049-.004-.023-.005-.023-.079-.419a1.5 1.5 0 1 1 2.953-.529c.155.864.363 1.727.62 2.565a1.5 1.5 0 0 1-1.435 1.94zm-.991-8.363c-.03 0-.06-.001-.09-.003a1.5 1.5 0 0 1-1.409-1.586l.007-.117.001-.023.002-.024.003-.048.001-.022.002-.022.002-.022.002-.022.002-.027.002-.024.002-.021.002-.021.002-.021.006-.073.002-.023.319-2.471a1.5 1.5 0 0 1 2.952.536c-.155.862-.26 1.744-.312 2.623a1.5 1.5 0 0 1-1.496 1.412zm1.982-8.178c-.203 0-.41-.042-.608-.13a1.5 1.5 0 0 1-.762-1.98c.408-.918.868-1.806 1.379-2.662a1.5 1.5 0 0 1 2.577 1.536c-.45.754-.858 1.543-1.214 2.344a1.5 1.5 0 0 1-1.372.892zm4.733-6.964c-.379 0-.758-.143-1.05-.428a1.5 1.5 0 0 1-.024-2.119l.728-.714.055-.051.069-.064.016-.015.053-.049.016-.015.015-.014.037-.034.018-.017.049-.045.015-.014.015-.014.015-.014.023-.021.015-.014.016-.014.015-.014.02-.018.018-.016.016-.014.016-.014.016-.014.016-.014.016-.014.017-.015.019-.016.019-.017.016-.014.017-.015.02-.017.018-.016.016-.014.017-.015.019-.017.035-.03.018-.015.071-.061.631-.525a1.5 1.5 0 1 1 1.88 2.338c-.684.55-1.343 1.148-1.958 1.775-.294.3-.683.45-1.072.45zm6.865-4.877a1.5 1.5 0 0 1-.644-2.856l.697-.315.021-.009.063-.027.019-.008.019-.008.019-.008.019-.008.02-.009.02-.009.021-.009.025-.01.021-.009.02-.008.021-.009.024-.01.043-.018.021-.009 1.696-.629a1.5 1.5 0 1 1 .941 2.849c-.832.275-1.657.603-2.451.976-.206.097-.423.143-.636.143zm8.132-2.156a1.5 1.5 0 0 1-.118-2.995l1.391-.073.063-.001.034-.001h.029l.033-.001.044-.001h.036l.043-.001h.037.043.037.02.023.038.022.021.038.023.02.038.967a1.5 1.5 0 1 1 0 3h-.967l-1.792.071-.121.005zm11.88-.076h-3a1.5 1.5 0 1 1 0-3h3a1.5 1.5 0 1 1 0 3zm9 0h-3a1.5 1.5 0 1 1 0-3h3a1.5 1.5 0 1 1 0 3zm9 0h-3a1.5 1.5 0 1 1 0-3h3a1.5 1.5 0 1 1 0 3zm5.238-3.762a1.5 1.5 0 0 1-1.5-1.5v-3a1.5 1.5 0 1 1 3 0v3a1.5 1.5 0 0 1-1.5 1.5zm0-9a1.5 1.5 0 0 1-1.5-1.5v-3a1.5 1.5 0 1 1 3 0v3a1.5 1.5 0 0 1-1.5 1.5zm0-9a1.5 1.5 0 0 1-1.5-1.5v-3a1.5 1.5 0 1 1 3 0v3a1.5 1.5 0 0 1-1.5 1.5zm0-9a1.5 1.5 0 0 1-1.5-1.5v-2.446-.025-.02-.032-.021-.024-.025-.02-.032-.022-.022-.024-.02-.035l.001-.063v-.022l.003-.15a1.5 1.5 0 0 1 2.999.068l-.005.489v2.446a1.5 1.5 0 0 1-1.5 1.5zm.793-8.542a1.5 1.5 0 0 1-1.451-1.886l.062-.227.006-.022.006-.023.013-.046.006-.021.006-.021.007-.023.013-.046.006-.021.006-.022.007-.023.007-.025.006-.021.006-.021.006-.021.007-.024.007-.025.006-.021.006-.021.006-.022.007-.024.007-.025.006-.021.006-.021.006-.021.009-.029.006-.021.006-.02.006-.021.007-.022.009-.028.006-.021.006-.021.007-.021.007-.021.009-.028.006-.02.006-.02.006-.02.007-.022.009-.028.007-.02.007-.02.006-.02.014-.043.006-.019.007-.02.007-.02.011-.033.008-.024.006-.02.022-.067.008-.023.007-.02.022-.066.006-.019.007-.02.025-.072.008-.022.03-.088.007-.021.031-.089.039-.109.312-.824a1.5 1.5 0 1 1 2.784 1.117 22.06 22.06 0 0 0-.829 2.504 1.5 1.5 0 0 1-1.449 1.115zm3.58-7.616c-.301 0-.605-.09-.869-.278a1.5 1.5 0 0 1-.352-2.092l.673-.902.014-.018.015-.019.028-.036.014-.017.014-.018.03-.037.013-.017.014-.017.015-.019.016-.019.013-.017.013-.016.013-.016.015-.019.017-.021.013-.016.043-.054.015-.019.058-.071.838-.971a1.5 1.5 0 0 1 2.217 2.022 22.37 22.37 0 0 0-1.658 2.058 1.5 1.5 0 0 1-1.223.63zm6.024-5.888a1.5 1.5 0 0 1-.844-2.741l1.203-.768.06-.036.019-.012.021-.012.06-.035.02-.012.061-.035.02-.011.061-.036.019-.011.021-.012.041-.024.019-.011.02-.012.042-.024.019-.011.02-.011.021-.012.021-.012.019-.011.019-.011.02-.011.042-.024.019-.011.019-.011.023-.013.02-.011.019-.011.019-.011.021-.012.023-.012.019-.01.019-.01.021-.011.024-.013.019-.01.019-.01.019-.01.022-.012.023-.012.019-.01.019-.01.018-.01.019-.01.018-.01.019-.01.018-.01.03-.016.024-.013.018-.01.062-.032.022-.011.072-.037a1.5 1.5 0 0 1 1.375 2.666 22.24 22.24 0 0 0-2.269 1.35c-.258.175-.551.259-.841.259zm7.692-3.408a1.5 1.5 0 0 1-.354-2.958l1.362-.289.115-.021.021-.004.094-.017.039-.007.075-.013.04-.007.021-.003.054-.009.02-.003.021-.003.021-.003.021-.003.042-.007.022-.003.022-.003.023-.004.029-.005.022-.003.022-.003.023-.003.024-.004.049-.007.022-.003.023-.003.727-.096a1.5 1.5 0 0 1 .351 2.979c-.873.103-1.747.259-2.598.465-.118.029-.237.042-.353.042zm11.185.006c-.117 0-.236-.014-.355-.043-.851-.207-1.725-.364-2.598-.468a1.5 1.5 0 0 1 .35-2.979 25.07 25.07 0 0 1 2.96.533 1.5 1.5 0 0 1-.358 2.957zm7.688 3.417c-.29 0-.584-.084-.842-.26-.726-.494-1.489-.949-2.268-1.353a1.5 1.5 0 1 1 1.379-2.665l.03.016.067.035.019.01.065.034.02.011.063.033.021.011.018.01.044.024.022.012.018.01.018.01.02.011.018.01.019.01.019.01.018.01.026.014.019.01.019.01.019.01.025.014.02.011.019.011.019.01.02.011.023.013.02.011.019.011.017.01.02.011.019.011.02.011.022.013.021.012.019.011.019.011.022.013.041.023.019.011.021.012.061.035.081.048.76.464.019.012.02.013.039.025.019.012.019.012.04.026.018.012.018.012.02.013.021.014.018.012.018.012.018.012.018.012.023.015.017.011.029.019.047.031.017.011.228.153a1.5 1.5 0 0 1-.849 2.738zm6.018 5.895a1.5 1.5 0 0 1-1.224-.631c-.508-.716-1.065-1.409-1.655-2.06a1.5 1.5 0 1 1 2.223-2.015l.031.034.015.017.032.036.014.016.015.016.015.017.017.02.014.016.014.016.014.016.019.021.014.016.014.016.013.015.031.035.017.019.059.068.015.017.061.07 1.454 1.858a1.5 1.5 0 0 1-.356 2.089c-.264.187-.567.277-.867.277zm3.571 7.62a1.5 1.5 0 0 1-1.449-1.117c-.224-.848-.502-1.69-.827-2.505a1.5 1.5 0 0 1 2.787-1.109 24.97 24.97 0 0 1 .939 2.847 1.5 1.5 0 0 1-1.451 1.884zm.786 8.544a1.5 1.5 0 0 1-1.5-1.5v-2.475l-.005-.464a1.5 1.5 0 1 1 2.999-.061l.003.196v.029.032.023.024.036.022.023.036.022.024.034.024 2.475a1.5 1.5 0 0 1-1.5 1.5zm0 9a1.5 1.5 0 0 1-1.5-1.5v-3a1.5 1.5 0 1 1 3 0v3a1.5 1.5 0 0 1-1.5 1.5zm0 9a1.5 1.5 0 0 1-1.5-1.5v-3a1.5 1.5 0 1 1 3 0v3a1.5 1.5 0 0 1-1.5 1.5zm0 9a1.5 1.5 0 0 1-1.5-1.5v-3a1.5 1.5 0 1 1 3 0v3a1.5 1.5 0 0 1-1.5 1.5zm8.267 3.733h-3a1.5 1.5 0 1 1 0-3h3a1.5 1.5 0 1 1 0 3zm9 0h-3a1.5 1.5 0 1 1 0-3h3a1.5 1.5 0 1 1 0 3zm9 0h-3a1.5 1.5 0 1 1 0-3h3a1.5 1.5 0 1 1 0 3zm8.879.078a1.52 1.52 0 0 1-.123-.005l-1.817-.073h-.939a1.5 1.5 0 1 1 0-3h.939.024.038.02.023.039.021.022.038.021.022.038.021.022.038.022.021l.038.001h.021.021l.038.001h.022.021l.038.001.022.001h.021l.037.001.023.001h.02l.038.001h.022l.021.001.059.002.021.001.038.001.022.001.021.001.06.002.02.001.06.003h.02l.06.003.02.001.06.003.02.001.06.003.039.002.041.002.039.002.041.002.02.001.061.004.039.002.042.003.039.003.042.003.038.003.042.003.038.003.043.003.038.003.02.002.022.002.037.003a1.5 1.5 0 0 1-.118 2.995zm8.13 2.165c-.214 0-.432-.046-.638-.143a22.09 22.09 0 0 0-2.45-.979 1.5 1.5 0 1 1 .944-2.848 25 25 0 0 1 2.784 1.112 1.5 1.5 0 0 1-.64 2.857zm6.86 4.884c-.39 0-.779-.151-1.073-.452a22.4 22.4 0 0 0-1.956-1.777 1.5 1.5 0 1 1 1.882-2.336l.018.014.055.044c.753.612 1.47 1.265 2.146 1.958a1.5 1.5 0 0 1-.024 2.121c-.292.285-.67.427-1.048.427zm4.726 6.969a1.5 1.5 0 0 1-1.372-.893c-.355-.801-.762-1.591-1.211-2.345a1.5 1.5 0 1 1 2.579-1.533l.496.874.044.082.011.021.033.061.011.02.033.063.01.019.012.022.022.041.01.02.011.021.022.043.01.019.011.021.012.023.021.041.01.02.011.021.021.042.01.02.011.021.022.043.01.02.01.021.032.064.01.02.042.085.417.895a1.5 1.5 0 0 1-.764 1.979c-.197.087-.404.129-.607.129zm1.973 8.181a1.5 1.5 0 0 1-1.496-1.413c-.051-.879-.155-1.761-.309-2.623a1.5 1.5 0 1 1 2.953-.529l.004.023.004.021.004.021.004.022.004.023.005.028.004.022.004.021.004.022.004.023.004.026.008.046.004.022.004.022.004.024.011.069.004.022.004.024.014.092.004.023.014.093.003.022.003.023.014.093.003.023.003.023.01.07.003.022.003.023.003.024.006.048.003.022.003.022.003.022.003.024.006.048.003.022.003.022.003.023.003.024.003.026.003.022.003.021.003.021.003.022.003.021.003.023.003.021.002.021.003.021.002.021.007.057.003.025.002.021.01.095.002.021.002.02.012.118.087 1.099a1.5 1.5 0 0 1-1.411 1.579l-.088.003zm-1 8.362a1.5 1.5 0 0 1-1.434-1.941 22.08 22.08 0 0 0 .623-2.564 1.5 1.5 0 1 1 2.952.533c-.168.931-.387 1.843-.654 2.735l-.007.022-.034.111-.014.045a1.5 1.5 0 0 1-1.433 1.059zm-3.875 7.473c-.32 0-.642-.102-.915-.312a1.5 1.5 0 0 1-.272-2.104c.537-.696 1.037-1.431 1.486-2.184a1.5 1.5 0 1 1 2.576 1.537l-1.238 1.879-.013.018-.014.019-.028.038-.013.018-.014.019-.028.039-.013.018-.013.018-.015.02-.014.019-.013.018-.013.018-.014.019-.016.021-.013.017-.013.017-.014.019-.016.022-.013.017-.013.017-.014.018-.015.02-.015.019-.013.017-.014.018-.015.019-.016.021-.013.017-.013.017-.014.018a1.5 1.5 0 0 1-1.192.588zm-6.24 5.654a1.5 1.5 0 0 1-.795-2.773 22.32 22.32 0 0 0 2.154-1.529 1.5 1.5 0 1 1 1.879 2.339l-.054.043-.018.014-.038.03-.017.013-.017.013-.019.015-.021.016-.017.013-.017.013-.017.013-.019.015-.02.016-.016.013-.017.013-.017.013-.018.014-.016.013-.017.013-.016.013-.043.033-.019.015-.057.044-.017.013-.074.056-.076.057-1.773 1.214c-.246.152-.519.225-.788.225zm-7.823 3.109a1.5 1.5 0 0 1-.294-2.971 22.07 22.07 0 0 0 2.551-.674 1.5 1.5 0 1 1 .94 2.849l-.031.01-.02.007-.075.024a24.97 24.97 0 0 1-2.779.726c-.098.019-.196.029-.292.029zm-5.67.464h-3a1.5 1.5 0 1 1 0-3h3a1.5 1.5 0 1 1 0 3zm-9 0h-3a1.5 1.5 0 1 1 0-3h3a1.5 1.5 0 1 1 0 3zm-9 0h-3a1.5 1.5 0 1 1 0-3h3a1.5 1.5 0 1 1 0 3zm-9 0h-3a1.5 1.5 0 1 1 0-3h3a1.5 1.5 0 1 1 0 3zm-5.226 9.774a1.5 1.5 0 0 1-1.5-1.5v-3a1.5 1.5 0 1 1 3 0v3a1.5 1.5 0 0 1-1.5 1.5zm0 9a1.5 1.5 0 0 1-1.5-1.5v-3a1.5 1.5 0 1 1 3 0v3a1.5 1.5 0 0 1-1.5 1.5zm0 9a1.5 1.5 0 0 1-1.5-1.5v-3a1.5 1.5 0 1 1 3 0v3a1.5 1.5 0 0 1-1.5 1.5zm-.232 8.779c-.07 0-.141-.005-.212-.015a1.5 1.5 0 0 1-1.275-1.695 22.43 22.43 0 0 0 .214-2.635 1.5 1.5 0 0 1 2.999.066l-.01.355-.001.023-.004.095-.001.023v.023l-.004.095-.001.023-.001.023-.004.073-.001.022-.001.023-.001.023-.001.025-.003.047-.001.022-.001.023-.001.023-.004.073-.001.022-.001.023-.001.023-.002.027-.002.023-.001.022-.002.022-.002.023-.002.023-.004.05-.002.022-.002.022-.002.023-.002.024-.004.049-.002.022-.002.022-.002.022-.002.024-.004.05-.002.022-.002.022-.002.023-.002.025-.004.048-.002.022-.002.022-.002.023-.002.024-.004.048-.002.022-.002.022-.002.023-.007.072-.002.022-.002.022-.002.023-.005.049-.002.022-.002.022-.002.022-.003.024-.005.049-.002.022-.002.022-.003.022-.003.024-.006.049-.003.022-.003.022-.003.022-.003.024-.006.048-.003.022-.003.022-.003.022-.003.024-.003.027-.003.022-.003.021-.003.022-.003.022-.003.023-.004.028-.003.021-.003.021-.003.021-.003.022-.003.022-.004.029-.003.021-.003.021-.003.021-.003.02c-.108.759-.75 1.3-1.485 1.3zm-2.653 7.987c-.243 0-.49-.059-.718-.184a1.5 1.5 0 0 1-.597-2.036c.421-.77.799-1.574 1.125-2.387a1.5 1.5 0 1 1 2.788 1.109l-.288.691-.009.021-.027.063-.008.019-.008.019-.009.019-.011.025-.009.021-.009.02-.009.02-.009.019-.01.021-.009.02-.01.021-.039.087-.816 1.632a1.5 1.5 0 0 1-1.318.781zm-5.283 6.556c-.42 0-.837-.175-1.134-.517a1.5 1.5 0 0 1 .15-2.116c.664-.576 1.3-1.197 1.891-1.847a1.5 1.5 0 0 1 2.22 2.018 25.32 25.32 0 0 1-2.145 2.095c-.284.246-.634.367-.982.367zm-7.238 4.299a1.5 1.5 0 0 1-.524-2.906c.821-.306 1.633-.665 2.413-1.068a1.5 1.5 0 1 1 1.376 2.666 25.04 25.04 0 0 1-2.323 1.053l-.021.008-.023.009-.023.009-.02.008-.02.008-.02.008-.047.018-.02.008-.034.013-.196.074c-.171.063-.347.093-.519.093zm-8.263 1.481c-.01 0-.019 0-.029 0h-.024-.022-.023-.022-.023-.029-.024-.023-.022-.022-.026-.026-.023-.022-.022-.022-.032-.023-.022-.022-.022-.022l-.056-.001h-.021-.022l-.022-.001-.022-.001-.058-.002-.041-.001-.021-.001-.101-.003h-.02l-2.066-.16a1.5 1.5 0 0 1 .358-2.979c.87.103 1.758.155 2.64.155.875 0 1.755-.051 2.617-.153a1.5 1.5 0 0 1 .35 2.98l-1.24.115-.138.009-.023.001-.024.001-.07.004-.025.001-.023.001-.023.001-.022.001-.068.004-.022.001-.022.001-.023.001-.071.003-.022.001-.022.001-.023.001-.024.001-.049.002-.022.001-.022.001-.022.001h-.023l-.026.001-.025.001-.022.001-.022.001h-.022l-.023.001-.024.001-.028.001h-.022l-.022.001-.022.001h-.023l-.023.001h-.026l-.024.001h-.022-.022-.022-.023-.023l-.028.001h-.022-.022-.022-.023-.023-.028-.024-.022-.022-.022-.023-.025-.027-.022-.022-.023-.022-.023-.029z" fill="#31c5fe"/><path d="M48.938 97.88h-.029-.025-.024-.024-.024-.024-.024-.024-.024-.024-.024-.024-.024-.024l-.024-.001-.024-.001h-.024l-.024-.001-.024-.001h-.024l-.024-.001-.024-.001-.024-.001-.024-.001-.024-.001-.024-.001-.024-.001-.024-.001-.024-.001-.152-.008-.026-.001-.024-.001-.024-.001-.024-.001-.023-.001-.024-.002-.024-.002-.024-.002-.024-.002-.024-.002-.023-.002-.024-.002-.023-.002-.024-.002-.023-.002-.024-.002-.023-.002-.024-.002-.023-.002-.023-.002-.464-.048-.046-.006-.024-.003-.023-.003-.023-.003-.023-.003-.024-.003-.023-.003-.023-.003-.023-.003-.046-.006-.344-.051-.022-.004-.023-.004-.022-.004-.023-.004-.022-.004-.023-.004-.023-.004-.023-.004-.023-.004-.023-.004-.023-.004-.023-.004-.023-.004-.023-.004-.023-.004-.023-.004-.023-.004-.023-.004-.023-.004-.023-.004-.116-.023a1 1 0 0 1 .396-1.96c.845.17 1.715.256 2.586.256.155 0 .303.035.434.099.127-.072.271-.117.426-.127.866-.056 1.728-.2 2.56-.426a1 1 0 1 1 .524 1.93 14.98 14.98 0 0 1-2.954.491c-.178.012-.349-.024-.499-.097-.145.082-.313.129-.491.129zm-6.3-1.492c-.151 0-.305-.035-.449-.107l-.662-.355-.042-.024-.02-.011-.02-.011-.02-.011-.018-.01-.02-.012-.02-.012a15.04 15.04 0 0 1-1.708-1.164 1 1 0 1 1 1.239-1.57 13.05 13.05 0 0 0 2.19 1.394 1 1 0 0 1-.451 1.893zm-4.954-4.171a1 1 0 0 1-.802-.401l-.265-.368-.013-.018-.013-.018-.013-.019-.013-.019-.013-.019-.013-.018-.013-.019-.013-.019-.013-.019-.019-.029-.013-.019-.013-.019-.013-.019-.013-.019-.013-.019-.013-.019-.013-.02-.013-.019-.013-.02-.013-.02-.013-.02-.07-.108-.012-.02-.012-.019-.012-.02-.012-.02-.012-.02-.012-.02-.012-.02-.012-.02-.013-.021-.067-.11-.012-.02-.012-.02-.012-.02-.012-.02-.012-.02-.012-.02-.012-.02-.012-.02-.012-.02-.012-.02-.012-.021-.019-.032-.012-.02-.012-.02-.011-.02-.011-.02-.011-.02-.011-.02-.011-.02-.011-.02-.011-.02-.011-.02-.011-.019-.01-.018-.049-.089-.011-.019-.01-.019-.011-.021-.011-.02-.011-.02-.011-.02-.011-.02-.341-.681a1 1 0 0 1 1.811-.849c.367.782.816 1.532 1.333 2.227a1 1 0 0 1-.206 1.399c-.179.133-.388.197-.596.197zm-2.555-5.947a1 1 0 0 1-.984-.83l-.004-.023-.004-.023-.004-.022-.004-.022-.004-.022-.004-.024-.006-.036-.004-.023-.007-.047-.153-1.429-.003-.06-.001-.024-.002-.036-.001-.023-.002-.049-.001-.024-.002-.048-.001-.024-.001-.036-.001-.023-.001-.037v-.023l-.001-.037v-.023l-.001-.024-.001-.025v-.023l-.001-.025v-.024-.023-.038-.023-.025-.024-.023-.038-.023-.025-.025-.023-.027-.415a1 1 0 1 1 2 0v.415c0 .75.064 1.501.19 2.232a1 1 0 0 1-.815 1.156c-.058.01-.115.015-.171.015zm-.204-6.818a1 1 0 0 1-1-1v-3a1 1 0 1 1 2 0v3a1 1 0 0 1-1 1zm0-7a1 1 0 0 1-1-1v-3a1 1 0 1 1 2 0v3a1 1 0 0 1-1 1zm0-7a1 1 0 0 1-1-1v-.499h-2.501a1 1 0 1 1 0-2h4.501v2.499a1 1 0 0 1-1 1zm-7.501-1.499h-3a1 1 0 1 1 0-2h3a1 1 0 1 1 0 2zm-7 0h-3a1 1 0 1 1 0-2h3a1 1 0 1 1 0 2zm-6.892-.077a1.01 1.01 0 0 1-.102-.005l-.703-.09-.023-.004-.023-.004-.023-.004-.023-.004-.023-.004-.023-.004-.023-.004-.023-.004-.023-.004-.023-.004-.023-.004-.023-.004-.023-.004-.023-.004-.023-.004-.023-.004-.023-.004-.023-.004-.023-.004-.023-.004-.023-.004-.023-.004-.023-.004-.023-.004-.023-.004-.023-.004-.023-.004-.023-.004-.023-.005-.023-.005-.023-.005-.023-.005-.023-.005-.023-.005-.023-.005-.023-.005-.023-.005-.023-.005-.023-.005-.023-.005-.023-.005-.023-.005-.023-.005-.023-.005-.023-.005-.023-.005-.023-.005-.023-.005-.023-.005-1.11-.304a1 1 0 0 1 .605-1.906c.823.26 1.678.437 2.54.528a1 1 0 0 1-.103 1.995zm-6.106-2.151c-.185 0-.373-.051-.54-.159l-.069-.045-.017-.011-.018-.012-.019-.012-.019-.013-.019-.013-.019-.013-.019-.013-.017-.011-.02-.014-.156-.106-.718-.528-.018-.014-.018-.014-.018-.014-.018-.015-.018-.015-.019-.015-.055-.044-.018-.014-.018-.014-.018-.014-.018-.015-.018-.014-.018-.015-.018-.014-.018-.015-.017-.014-.017-.014-.058-.048-.016-.014-.017-.015-.017-.014-.018-.015-.017-.015-.017-.015-.734-.669a1 1 0 0 1 1.397-1.431 13.11 13.11 0 0 0 2.032 1.618 1 1 0 0 1-.543 1.84zm-4.487-4.669a1 1 0 0 1-.86-.489l-.347-.62-.01-.02-.011-.02-.01-.02-.011-.02-.01-.02-.011-.02-.01-.02-.01-.02-.01-.02-.011-.021-.01-.02-.01-.021-.013-.026-.01-.02-.01-.02-.01-.021-.01-.021-.01-.021-.01-.021-.01-.02-.01-.021-.01-.021-.01-.021-.01-.021-.01-.021-.01-.021-.01-.021-.009-.019-.011-.023-.03-.064-.01-.021-.01-.021-.01-.021-.01-.021-.01-.021-.01-.021-.01-.021-.01-.021-.009-.021-.009-.021-.009-.021-.009-.021-.009-.021-.009-.021-.01-.022-.009-.021-.009-.022-.01-.022-.009-.02-.009-.021-.009-.021-.009-.021-.009-.021-.009-.021-.009-.022-.009-.022-.009-.021-.009-.022-.009-.021-.009-.022-.009-.021-.295-.782a1 1 0 1 1 1.891-.651 12.97 12.97 0 0 0 1.089 2.354 1 1 0 0 1-.352 1.37c-.16.094-.335.139-.508.139zm-1.91-6.185a1 1 0 0 1-.997-.935l-.026-.542-.001-.023-.001-.023v-.023l-.001-.023v-.023-.023-.024-.024-.024-.021-.024-.024-.024-.024-.024-.024-.024-.025-.025-.024-.024-.024-.024-.024-.024-.024-.024-.024-.024-.024-.024-.025l.001-.024v-.025l.001-.025.001-.036.001-.024v-.024l.001-.024.001-.025.001-.024.001-.036.001-.024.001-.024.001-.024.001-.024.001-.025.001-.024.001-.024.001-.024.002-.035.001-.024.001-.024.001-.024.001-.024.001-.024.001-.024.002-.024.002-.024.002-.024.002-.024.002-.024.002-.024.002-.023.002-.023.002-.023.002-.023.002-.023.002-.02.002-.024.002-.024.002-.024.002-.024.074-.671a1 1 0 0 1 1.983.264C2.038 47.777 2 48.361 2 48.941l.028.865a1 1 0 0 1-.933 1.063l-.066.002zm1.072-6.386c-.13 0-.262-.025-.389-.079a1 1 0 0 1-.531-1.311l.023-.054.009-.021.009-.021.009-.021.009-.022.009-.022.009-.021.01-.022.01-.022.034-.076.01-.021.01-.021.01-.021.01-.021.01-.021.01-.021.01-.021.01-.021.01-.021.01-.021.01-.021.01-.021.011-.023.011-.023.01-.021.01-.021.01-.021.01-.021.01-.021.01-.021.01-.021.01-.02.01-.021.01-.021.011-.021.01-.02.011-.022.011-.021.023-.045.011-.021.011-.021.011-.021.011-.021.011-.021.011-.021.011-.021.011-.021.011-.021.011-.021.011-.021.011-.021.012-.022.034-.063.011-.02.011-.02.011-.02.011-.02.011-.02.011-.02.011-.02.011-.02.011-.021.011-.02.011-.02.011-.02.012-.022.024-.042.011-.02.012-.02.011-.02.011-.02.011-.02.012-.02.011-.02.012-.02.011-.019.012-.02.011-.019.01-.017.523-.818a1 1 0 1 1 1.648 1.134 13.01 13.01 0 0 0-1.246 2.277 1 1 0 0 1-.921.611zm3.835-5.22a1 1 0 0 1-.651-1.759l.71-.569.018-.014.018-.013.018-.014.145-.107.018-.013.018-.013.018-.013.019-.013.018-.013.019-.013.019-.013.019-.013.073-.052.018-.013.018-.013.018-.013.019-.013.019-.013.019-.013.019-.013.019-.013.019-.013.019-.013.019-.013.055-.037.018-.012.019-.013.019-.012.019-.013.019-.013.019-.013.019-.012.019-.013.019-.012.133-.086.019-.012.02-.012.019-.012.716-.423a1 1 0 0 1 .966 1.751c-.756.419-1.475.916-2.135 1.479-.188.16-.419.239-.648.239zm5.764-2.944a1 1 0 0 1-.235-1.972l.907-.19.023-.004.023-.004.023-.004.024-.004.022-.004.023-.004.023-.004.024-.004.023-.004.023-.004.023-.004.022-.004.231-.035.022-.003.025-.003.023-.003.023-.003.023-.003.023-.003.023-.003.023-.003.023-.003.023-.003.023-.003.024-.003.023-.003.024-.003.023-.003.024-.003.023-.003.024-.003.023-.003.023-.003.023-.003.024-.003.024-.003.023-.002.023-.002.024-.002.024-.002.024-.002.023-.002.024-.002.024-.002.024-.002.024-.002.024-.002.024-.002.024-.002.024-.002.024-.002.024-.002.024-.002.024-.002.024-.002.024-.002.024-.002.025-.002.493-.027a1 1 0 0 1 .074 1.999c-.868.033-1.734.153-2.572.356a1 1 0 0 1-.236.028zm9.732-.394h-3a1 1 0 1 1 0-2h3a1 1 0 1 1 0 2zm7 0h-3a1 1 0 1 1 0-2h3a1 1 0 1 1 0 2zm7.494 0h-3.494a1 1 0 1 1 0-2h1.494v-1.506a1 1 0 1 1 2 0v3.506zm-1-6.506a1 1 0 0 1-1-1v-3a1 1 0 1 1 2 0v3a1 1 0 0 1-1 1zm0-7a1 1 0 0 1-1-1v-3a1 1 0 1 1 2 0v3a1 1 0 0 1-1 1zm.011-6.961a1.02 1.02 0 0 1-.039-.001 1 1 0 0 1-.961-1.035c.039-1.02.18-2.014.413-2.972a1 1 0 1 1 1.943.475c-.204.838-.324 1.703-.358 2.572a1 1 0 0 1-.999.961zm1.738-6.234c-.164 0-.331-.04-.484-.126a1 1 0 0 1-.389-1.36l.444-.748.012-.02.013-.02.013-.02.076-.118.013-.019.013-.019.013-.019.013-.019.013-.019.013-.019.013-.019.013-.019.013-.019.013-.019.013-.02.012-.018.014-.02.013-.018.013-.019.013-.019.013-.019.013-.019.013-.019.013-.019.013-.019.013-.019.078-.11.013-.018.013-.018.013-.019.013-.018.013-.018.013-.018.107-.145.014-.018.013-.018.014-.018.014-.018.014-.018.014-.018.014-.018.014-.018.054-.07.013-.017.014-.018.014-.017.014-.018.014-.018.014-.018.014-.018.014-.018.013-.016.015-.019.298-.361a1 1 0 0 1 1.522 1.297c-.563.66-1.06 1.378-1.48 2.134a1 1 0 0 1-.875.515zm4.364-4.788a1 1 0 0 1-.568-1.824l.557-.364.018-.011.019-.012.019-.012.019-.012.019-.012.019-.012.019-.012.02-.012.02-.012.02-.012.02-.012.017-.01.022-.013.02-.012.02-.012.02-.012.02-.012.02-.012.02-.012.02-.012.02-.012.02-.012.02-.012.02-.012.021-.012.103-.058.02-.011.02-.011.02-.011.02-.011.02-.011.02-.011.021-.011.021-.011.021-.011.02-.011.022-.012.062-.033.021-.011.02-.011.021-.011.02-.011.021-.011.02-.011.021-.011.02-.01.021-.011.021-.011.021-.011.021-.011.075-.038.021-.01.021-.01.021-.01.021-.01.021-.01.021-.01.021-.01.021-.01.021-.01.021-.01.021-.01.022-.01.097-.046.021-.01.021-.01.021-.01.021-.01.021-.01.022-.01.022-.01.367-.161a1 1 0 1 1 .778 1.842 13.01 13.01 0 0 0-2.278 1.244c-.173.118-.369.175-.564.175zm6.041-2.316a1 1 0 0 1-.133-1.991 15.12 15.12 0 0 1 1.64-.127h.024.024.024.025.024.024.024.036.024.024.024.024.024.026.025.024.024.024.024.024.024.024.024.024.024.024.036l.024.001.024.001h.024l.157.005.024.001.108.005.024.001.024.001.024.001.024.001.024.001.024.001.024.001.024.001.027.002.025.002.025.002.024.002.024.002a1 1 0 1 1-.132 1.996L48.938 2c-.577 0-1.158.038-1.726.113a1.01 1.01 0 0 1-.132.009zm8.981 1.821c-.173 0-.348-.045-.508-.139a12.97 12.97 0 0 0-2.354-1.091 1 1 0 1 1 .654-1.89l.022.007.022.008.022.008.022.008.022.008.022.008.022.008.022.008.022.008.022.008.023.008.022.008.024.009.057.021.022.008.022.008.022.008.022.008.022.008.022.008.022.008.021.008.022.008.022.009.022.009.021.008.022.009.022.009.022.009.021.008.036.015.022.009.021.009.021.009.022.009.021.009.022.009.021.009.022.009.022.009.022.009.021.009.021.009.022.009.021.009.021.009.022.01.057.025.021.009.021.009.021.009.021.009.021.01.021.01.021.01.021.01.021.01.021.01.021.01.021.01.021.01.022.01.022.01.096.045.021.01.021.01.021.01.021.01.021.01.021.01.021.01.021.01.021.01.022.011.964.523a1 1 0 0 1-.51 1.861zm4.668 4.492a1 1 0 0 1-.842-.459c-.469-.727-1.013-1.412-1.617-2.033a1 1 0 1 1 1.434-1.394c.435.447.842.922 1.219 1.42l.014.019.014.019.014.019.014.018.014.019.014.019.015.02.014.019.014.019.014.018.014.019.013.018.013.018.013.018.013.018.013.018.012.017.416.612a1 1 0 0 1-.301 1.379c-.168.108-.355.159-.541.159zm2.145 6.105a1 1 0 0 1-.993-.896c-.09-.862-.267-1.717-.526-2.54a1 1 0 0 1 1.908-.6l.148.5.006.022.006.022.006.022.006.022.005.02.009.035c.183.688.318 1.394.401 2.117l.003.023.003.023.003.023.003.023.003.023.003.024.002.023c.058.558-.341 1.049-.89 1.107a1.01 1.01 0 0 1-.105.005zm.078 6.894a1 1 0 0 1-1-1v-3a1 1 0 1 1 2 0v3a1 1 0 0 1-1 1zm0 7a1 1 0 0 1-1-1v-3a1 1 0 1 1 2 0v3a1 1 0 0 1-1 1zm1.507 7.493h-2.507v-4.493a1 1 0 1 1 2 0v2.493h.507a1 1 0 1 1 0 2zm7 0h-3a1 1 0 1 1 0-2h3a1 1 0 1 1 0 2zm7 0h-3a1 1 0 1 1 0-2h3a1 1 0 1 1 0 2zm6.818.207c-.057 0-.114-.005-.172-.015-.734-.127-1.487-.192-2.24-.192h-.406a1 1 0 1 1 0-2h.406.027.023.025.025.023.026.024.023.026.023.023.027.023.023l.027.001h.023l.024.001.025.001h.023l.026.001.023.001.023.001.026.001h.023l.022.001.027.001.023.001.023.001.027.001.023.001.026.001.024.001.022.001.026.001.023.001.022.001.026.002.023.001.022.001.027.002.022.001.022.001.027.002.022.002.027.002.022.002.022.002.027.002.022.002.022.002.026.002.023.002.022.002.026.002.023.002.022.002.027.002.022.002.025.002.024.002.022.002.025.002.024.002.022.002.025.003.023.002.022.002.025.003.023.003.022.002.025.003.023.003.034.004.024.003.022.003.024.003.024.003.046.006.023.003.047.006.613.093a1 1 0 0 1-.173 1.985zm5.944 2.557c-.208 0-.417-.064-.596-.198-.696-.518-1.445-.967-2.227-1.334a1 1 0 0 1 .851-1.81l.128.061.021.01.02.01.021.01.02.01.02.01.02.01.02.01.019.009 1.286.72.018.011.019.012.019.012.019.012.019.012.019.012.019.012.02.013.017.011.02.013.807.56a1 1 0 0 1-.598 1.802zm4.17 4.958a1 1 0 0 1-.894-.55c-.389-.772-.858-1.509-1.393-2.191a1 1 0 0 1 1.572-1.236l.015.019.021.027.014.018.014.018.014.018.014.019.014.018.014.019.014.019.717 1.025.012.019.013.02.013.02.012.02.013.02.075.12.012.02.012.02.012.02.012.02.012.02.012.02.012.021.012.02.096.162.024.041.402.745a1 1 0 0 1-.443 1.343c-.144.073-.298.107-.449.107zm1.489 6.3a1 1 0 0 1-1-1v-.006c0-.869-.086-1.736-.255-2.579a1 1 0 1 1 1.961-.394l.069.366.004.023.004.023.004.022.003.02.004.023.004.023.004.023.004.023.004.023.004.023c.096.605.155 1.209.177 1.823l.001.024.001.024.001.024.001.024v.024l.001.024.001.024v.024l.001.024v.024.024.024.024.024.024.024.024.024.024.025.024.024.029a1 1 0 0 1-1 1.007zm-1.496 6.299c-.152 0-.305-.035-.45-.108a1 1 0 0 1-.442-1.343 12.94 12.94 0 0 0 .931-2.421 1 1 0 0 1 1.93.523 14.9 14.9 0 0 1-.817 2.261l-.009.02-.009.02-.009.02-.009.02-.01.021-.01.021-.01.021-.01.021-.01.021-.01.021-.009.018-.01.021-.01.022-.01.022-.123.25a1 1 0 0 1-.893.55zM91.211 61.2a1 1 0 0 1-.597-1.803c.695-.516 1.342-1.104 1.922-1.748a1 1 0 0 1 1.486 1.339c-.397.441-.82.858-1.267 1.249l-.017.015-.017.015-.017.015-.017.015-.018.015-.017.015-.019.016-.019.016-.017.015-.017.015-.017.015-.017.015-.017.015-.015.013-.018.015-.018.015-.672.529c-.179.132-.387.196-.593.196zM85.26 63.75a1 1 0 0 1-.169-1.986 12.94 12.94 0 0 0 2.499-.694 1 1 0 0 1 .726 1.863c-.921.359-1.887.63-2.886.802-.057.01-.115.015-.171.015zm-3.817.204h-3a1 1 0 1 1 0-2h3a1 1 0 1 1 0 2zm-7 0h-3a1 1 0 1 1 0-2h3a1 1 0 1 1 0 2zm-7 0h-3a1 1 0 1 1 0-2h3a1 1 0 1 1 0 2zm-4.492 7.508a1 1 0 0 1-1-1v-3a1 1 0 1 1 2 0v3a1 1 0 0 1-1 1zm0 7a1 1 0 0 1-1-1v-3a1 1 0 1 1 2 0v3a1 1 0 0 1-1 1zm-.077 6.893c-.035 0-.07-.002-.106-.006a1 1 0 0 1-.89-1.099 13.24 13.24 0 0 0 .072-1.382v-1.405a1 1 0 1 1 2 0v1.405.025.025.025.025.025.025.024.025.024.02.025.025l-.004.169v.024l-.067 1.027-.002.023-.002.024-.002.024c-.056.524-.489.906-.994.905zm-2.156 6.103c-.186 0-.374-.052-.541-.16a1 1 0 0 1-.298-1.383 12.99 12.99 0 0 0 1.183-2.31 1 1 0 0 1 1.863.727l-.015.039-.008.021-.008.021-.008.021-.009.021-.009.021-.009.021-.015.037-.008.021-.008.021-.009.022-.009.021-.008.019-.009.022-.009.022-.009.022-.009.022c-.341.802-.744 1.559-1.205 2.273a1 1 0 0 1-.841.458zm-4.669 4.487a1 1 0 0 1-.509-1.861 13.09 13.09 0 0 0 2.094-1.536 1 1 0 0 1 1.338 1.487l-.024.021-.016.015-.017.015-.017.015-.017.015-.017.015-.017.015-.017.015-.088.076-.018.015-.018.015-.018.015-.018.015-.863.683-.019.014-.019.014-.019.014-.018.013-.019.013-.019.013-.018.013-.018.013-.018.013-.019.013-.05.036-.018.013-.019.013-.019.013-.019.013-.018.013-.019.013-.909.581c-.159.093-.332.137-.504.137z" fill="#fc2361"/></svg>