<svg xmlns="http://www.w3.org/2000/svg" width="122.468" height="49.64" viewBox="0 0 122.468 49.64">
  <g id="Group_116" data-name="Group 116" transform="translate(1.941 1.498)">
    <path id="Path_101" data-name="Path 101" d="M10-13.778c1.792.7,4.7,4.226,8.6,3.34s5.9-7.813,10.122-7.592,5.9,8.18,10.122,8.654,5.9-6.092,10.122-6.377,5.9,5.042,10.122,5.01S65-16.062,69.214-15.9s5.9,5.953,10.122,5.921,5.9-6.326,10.122-6.073,5.9,7.1,10.122,7.288,5.9-6.662,10.122-6.377,6.221,7.459,10.122,7.743,6.811-5.048,8.6-6.377" transform="translate(-10 18.034)" fill="none" stroke="#31c5fe" stroke-linecap="round" stroke-width="3"/>
    <path id="Path_119" data-name="Path 119" d="M10-13.778c1.792.7,4.7,4.226,8.6,3.34s5.9-7.813,10.122-7.592,5.9,8.18,10.122,8.654,5.9-6.092,10.122-6.377,5.9,5.042,10.122,5.01S65-16.062,69.214-15.9s5.9,5.953,10.122,5.921,5.9-6.326,10.122-6.073,5.9,7.1,10.122,7.288,5.9-6.662,10.122-6.377,6.221,7.459,10.122,7.743,6.811-5.048,8.6-6.377" transform="translate(-10 54.034)" fill="none" stroke="#31c5fe" stroke-linecap="round" stroke-width="3"/>
    <path id="Path_120" data-name="Path 120" d="M10-13.778c1.792.7,4.7,4.226,8.6,3.34s5.9-7.813,10.122-7.592,5.9,8.18,10.122,8.654,5.9-6.092,10.122-6.377,5.9,5.042,10.122,5.01S65-16.062,69.214-15.9s5.9,5.953,10.122,5.921,5.9-6.326,10.122-6.073,5.9,7.1,10.122,7.288,5.9-6.662,10.122-6.377,6.221,7.459,10.122,7.743,6.811-5.048,8.6-6.377" transform="translate(-10 36.034)" fill="none" stroke="#31c5fe" stroke-linecap="round" stroke-width="3"/>
  </g>
</svg>
